# Rhino

g Columns
v 60 6 -39.5
v 60 6 -40
v 59.5 6 -39.5
v 59.5 6 -40
v 59.75 6 -39.5
v 59.5 6 -39.75
v 59.75 6 -40
v 60 6 -39.75
v 59.5 10 -39.5
v 60 10 -39.5
v 60 7.3333334922790527 -39.5
v 60 8.6666669845581055 -39.5
v 59.75 10 -39.5
v 59.5 8.6666669845581055 -39.5
v 59.5 7.3333334922790527 -39.5
v 59.5 10 -40
v 59.5 10 -39.75
v 59.5 8.6666669845581055 -40
v 59.5 7.3333334922790527 -40
v 60 10 -40
v 59.75 10 -40
v 60 8.6666669845581055 -40
v 60 7.3333334922790527 -40
v 60 10 -39.75
f 8 1 5 3 6 4 7 2
f 15 3 5 1 11 12 10 13 9 14
f 19 4 6 3 15 14 9 17 16 18
f 23 2 7 4 19 18 16 21 20 22
f 11 1 8 2 23 22 20 24 10 12
f 13 10 24 20 21 16 17 9
g Columns
v 60 6 -30
v 60 6 -30.5
v 59.5 6 -30
v 59.5 6 -30.5
v 59.75 6 -30
v 59.5 6 -30.25
v 59.75 6 -30.5
v 60 6 -30.25
v 59.5 10 -30
v 60 10 -30
v 60 7.3333334922790527 -30
v 60 8.6666669845581055 -30
v 59.75 10 -30
v 59.5 8.6666669845581055 -30
v 59.5 7.3333334922790527 -30
v 59.5 10 -30.5
v 59.5 10 -30.25
v 59.5 8.6666669845581055 -30.5
v 59.5 7.3333334922790527 -30.5
v 60 10 -30.5
v 59.75 10 -30.5
v 60 8.6666669845581055 -30.5
v 60 7.3333334922790527 -30.5
v 60 10 -30.25
f 32 25 29 27 30 28 31 26
f 39 27 29 25 35 36 34 37 33 38
f 43 28 30 27 39 38 33 41 40 42
f 47 26 31 28 43 42 40 45 44 46
f 35 25 32 26 47 46 44 48 34 36
f 37 34 48 44 45 40 41 33
g Columns
v 60 6 -20
v 60 6 -20.5
v 59.5 6 -20
v 59.5 6 -20.5
v 59.75 6 -20
v 59.5 6 -20.25
v 59.75 6 -20.5
v 60 6 -20.25
v 59.5 10 -20
v 60 10 -20
v 60 7.3333334922790527 -20
v 60 8.6666669845581055 -20
v 59.75 10 -20
v 59.5 8.6666669845581055 -20
v 59.5 7.3333334922790527 -20
v 59.5 10 -20.5
v 59.5 10 -20.25
v 59.5 8.6666669845581055 -20.5
v 59.5 7.3333334922790527 -20.5
v 60 10 -20.5
v 59.75 10 -20.5
v 60 8.6666669845581055 -20.5
v 60 7.3333334922790527 -20.5
v 60 10 -20.25
f 56 49 53 51 54 52 55 50
f 63 51 53 49 59 60 58 61 57 62
f 67 52 54 51 63 62 57 65 64 66
f 71 50 55 52 67 66 64 69 68 70
f 59 49 56 50 71 70 68 72 58 60
f 61 58 72 68 69 64 65 57
g Columns
v 70 6 -39.5
v 70 6 -40
v 69.5 6 -39.5
v 69.5 6 -40
v 69.75 6 -39.5
v 69.5 6 -39.75
v 69.75 6 -40
v 70 6 -39.75
v 69.5 10 -39.5
v 70 10 -39.5
v 70 7.3333334922790527 -39.5
v 70 8.6666669845581055 -39.5
v 69.75 10 -39.5
v 69.5 8.6666669845581055 -39.5
v 69.5 7.3333334922790527 -39.5
v 69.5 10 -40
v 69.5 10 -39.75
v 69.5 8.6666669845581055 -40
v 69.5 7.3333334922790527 -40
v 70 10 -40
v 69.75 10 -40
v 70 8.6666669845581055 -40
v 70 7.3333334922790527 -40
v 70 10 -39.75
f 80 73 77 75 78 76 79 74
f 87 75 77 73 83 84 82 85 81 86
f 91 76 78 75 87 86 81 89 88 90
f 95 74 79 76 91 90 88 93 92 94
f 83 73 80 74 95 94 92 96 82 84
f 85 82 96 92 93 88 89 81
g Columns
v 70 6 -30
v 70 6 -30.5
v 69.5 6 -30
v 69.5 6 -30.5
v 69.75 6 -30
v 69.5 6 -30.25
v 69.75 6 -30.5
v 70 6 -30.25
v 69.5 10 -30
v 70 10 -30
v 70 7.3333334922790527 -30
v 70 8.6666669845581055 -30
v 69.75 10 -30
v 69.5 8.6666669845581055 -30
v 69.5 7.3333334922790527 -30
v 69.5 10 -30.5
v 69.5 10 -30.25
v 69.5 8.6666669845581055 -30.5
v 69.5 7.3333334922790527 -30.5
v 70 10 -30.5
v 69.75 10 -30.5
v 70 8.6666669845581055 -30.5
v 70 7.3333334922790527 -30.5
v 70 10 -30.25
f 104 97 101 99 102 100 103 98
f 111 99 101 97 107 108 106 109 105 110
f 115 100 102 99 111 110 105 113 112 114
f 119 98 103 100 115 114 112 117 116 118
f 107 97 104 98 119 118 116 120 106 108
f 109 106 120 116 117 112 113 105
g Columns
v 70 6 -20
v 70 6 -20.5
v 69.5 6 -20
v 69.5 6 -20.5
v 69.75 6 -20
v 69.5 6 -20.25
v 69.75 6 -20.5
v 70 6 -20.25
v 69.5 10 -20
v 70 10 -20
v 70 7.3333334922790527 -20
v 70 8.6666669845581055 -20
v 69.75 10 -20
v 69.5 8.6666669845581055 -20
v 69.5 7.3333334922790527 -20
v 69.5 10 -20.5
v 69.5 10 -20.25
v 69.5 8.6666669845581055 -20.5
v 69.5 7.3333334922790527 -20.5
v 70 10 -20.5
v 69.75 10 -20.5
v 70 8.6666669845581055 -20.5
v 70 7.3333334922790527 -20.5
v 70 10 -20.25
f 128 121 125 123 126 124 127 122
f 135 123 125 121 131 132 130 133 129 134
f 139 124 126 123 135 134 129 137 136 138
f 143 122 127 124 139 138 136 141 140 142
f 131 121 128 122 143 142 140 144 130 132
f 133 130 144 140 141 136 137 129
g Columns
v 80 6 -39.5
v 80 6 -40
v 79.5 6 -39.5
v 79.5 6 -40
v 79.75 6 -39.5
v 79.5 6 -39.75
v 79.75 6 -40
v 80 6 -39.75
v 79.5 10 -39.5
v 80 10 -39.5
v 80 7.3333334922790527 -39.5
v 80 8.6666669845581055 -39.5
v 79.75 10 -39.5
v 79.5 8.6666669845581055 -39.5
v 79.5 7.3333334922790527 -39.5
v 79.5 10 -40
v 79.5 10 -39.75
v 79.5 8.6666669845581055 -40
v 79.5 7.3333334922790527 -40
v 80 10 -40
v 79.75 10 -40
v 80 8.6666669845581055 -40
v 80 7.3333334922790527 -40
v 80 10 -39.75
f 152 145 149 147 150 148 151 146
f 159 147 149 145 155 156 154 157 153 158
f 163 148 150 147 159 158 153 161 160 162
f 167 146 151 148 163 162 160 165 164 166
f 155 145 152 146 167 166 164 168 154 156
f 157 154 168 164 165 160 161 153
g Columns
v 80 6 -30
v 80 6 -30.5
v 79.5 6 -30
v 79.5 6 -30.5
v 79.75 6 -30
v 79.5 6 -30.25
v 79.75 6 -30.5
v 80 6 -30.25
v 79.5 10 -30
v 80 10 -30
v 80 7.3333334922790527 -30
v 80 8.6666669845581055 -30
v 79.75 10 -30
v 79.5 8.6666669845581055 -30
v 79.5 7.3333334922790527 -30
v 79.5 10 -30.5
v 79.5 10 -30.25
v 79.5 8.6666669845581055 -30.5
v 79.5 7.3333334922790527 -30.5
v 80 10 -30.5
v 79.75 10 -30.5
v 80 8.6666669845581055 -30.5
v 80 7.3333334922790527 -30.5
v 80 10 -30.25
f 176 169 173 171 174 172 175 170
f 183 171 173 169 179 180 178 181 177 182
f 187 172 174 171 183 182 177 185 184 186
f 191 170 175 172 187 186 184 189 188 190
f 179 169 176 170 191 190 188 192 178 180
f 181 178 192 188 189 184 185 177
g Columns
v 80 6 -20
v 80 6 -20.5
v 79.5 6 -20
v 79.5 6 -20.5
v 79.75 6 -20
v 79.5 6 -20.25
v 79.75 6 -20.5
v 80 6 -20.25
v 79.5 10 -20
v 80 10 -20
v 80 7.3333334922790527 -20
v 80 8.6666669845581055 -20
v 79.75 10 -20
v 79.5 8.6666669845581055 -20
v 79.5 7.3333334922790527 -20
v 79.5 10 -20.5
v 79.5 10 -20.25
v 79.5 8.6666669845581055 -20.5
v 79.5 7.3333334922790527 -20.5
v 80 10 -20.5
v 79.75 10 -20.5
v 80 8.6666669845581055 -20.5
v 80 7.3333334922790527 -20.5
v 80 10 -20.25
f 200 193 197 195 198 196 199 194
f 207 195 197 193 203 204 202 205 201 206
f 211 196 198 195 207 206 201 209 208 210
f 215 194 199 196 211 210 208 213 212 214
f 203 193 200 194 215 214 212 216 202 204
f 205 202 216 212 213 208 209 201
g Columns
v 49.5 6 -20
v 49.5 6 -20.5
v 50 6 -20
v 50 6 -20.5
v 49.75 6 -20
v 50 6 -20.25
v 49.75 6 -20.5
v 49.5 6 -20.25
v 50 10 -20
v 49.5 10 -20
v 49.5 7.3333334922790527 -20
v 49.5 8.6666669845581055 -20
v 49.75 10 -20
v 50 8.6666669845581055 -20
v 50 7.3333334922790527 -20
v 50 10 -20.5
v 50 10 -20.25
v 50 8.6666669845581055 -20.5
v 50 7.3333334922790527 -20.5
v 49.5 10 -20.5
v 49.75 10 -20.5
v 49.5 8.6666669845581055 -20.5
v 49.5 7.3333334922790527 -20.5
v 49.5 10 -20.25
f 221 217 224 218 223 220 222 219
f 221 219 231 230 225 229 226 228 227 217
f 222 220 235 234 232 233 225 230 231 219
f 223 218 239 238 236 237 232 234 235 220
f 224 217 227 228 226 240 236 238 239 218
f 240 226 229 225 233 232 237 236
g Columns
v 40 6 -20
v 40 6 -20.5
v 40.5 6 -20
v 40.5 6 -20.5
v 40.25 6 -20
v 40.5 6 -20.25
v 40.25 6 -20.5
v 40 6 -20.25
v 40.5 10 -20
v 40 10 -20
v 40 7.3333334922790527 -20
v 40 8.6666669845581055 -20
v 40.25 10 -20
v 40.5 8.6666669845581055 -20
v 40.5 7.3333334922790527 -20
v 40.5 10 -20.5
v 40.5 10 -20.25
v 40.5 8.6666669845581055 -20.5
v 40.5 7.3333334922790527 -20.5
v 40 10 -20.5
v 40.25 10 -20.5
v 40 8.6666669845581055 -20.5
v 40 7.3333334922790527 -20.5
v 40 10 -20.25
f 245 241 248 242 247 244 246 243
f 245 243 255 254 249 253 250 252 251 241
f 246 244 259 258 256 257 249 254 255 243
f 247 242 263 262 260 261 256 258 259 244
f 248 241 251 252 250 264 260 262 263 242
f 264 250 253 249 257 256 261 260
g Columns
v 30 6 -39.5
v 30 6 -40
v 30.5 6 -39.5
v 30.5 6 -40
v 30.25 6 -39.5
v 30.5 6 -39.75
v 30.25 6 -40
v 30 6 -39.75
v 30.5 10 -39.5
v 30 10 -39.5
v 30 7.3333334922790527 -39.5
v 30 8.6666669845581055 -39.5
v 30.25 10 -39.5
v 30.5 8.6666669845581055 -39.5
v 30.5 7.3333334922790527 -39.5
v 30.5 10 -40
v 30.5 10 -39.75
v 30.5 8.6666669845581055 -40
v 30.5 7.3333334922790527 -40
v 30 10 -40
v 30.25 10 -40
v 30 8.6666669845581055 -40
v 30 7.3333334922790527 -40
v 30 10 -39.75
f 269 265 272 266 271 268 270 267
f 269 267 279 278 273 277 274 276 275 265
f 270 268 283 282 280 281 273 278 279 267
f 271 266 287 286 284 285 280 282 283 268
f 272 265 275 276 274 288 284 286 287 266
f 288 274 277 273 281 280 285 284
g Columns
v 30 6 -30
v 30 6 -30.5
v 30.5 6 -30
v 30.5 6 -30.5
v 30.25 6 -30
v 30.5 6 -30.25
v 30.25 6 -30.5
v 30 6 -30.25
v 30.5 10 -30
v 30 10 -30
v 30 7.3333334922790527 -30
v 30 8.6666669845581055 -30
v 30.25 10 -30
v 30.5 8.6666669845581055 -30
v 30.5 7.3333334922790527 -30
v 30.5 10 -30.5
v 30.5 10 -30.25
v 30.5 8.6666669845581055 -30.5
v 30.5 7.3333334922790527 -30.5
v 30 10 -30.5
v 30.25 10 -30.5
v 30 8.6666669845581055 -30.5
v 30 7.3333334922790527 -30.5
v 30 10 -30.25
f 293 289 296 290 295 292 294 291
f 293 291 303 302 297 301 298 300 299 289
f 294 292 307 306 304 305 297 302 303 291
f 295 290 311 310 308 309 304 306 307 292
f 296 289 299 300 298 312 308 310 311 290
f 312 298 301 297 305 304 309 308
g Columns
v 30 6 -20
v 30 6 -20.5
v 30.5 6 -20
v 30.5 6 -20.5
v 30.25 6 -20
v 30.5 6 -20.25
v 30.25 6 -20.5
v 30 6 -20.25
v 30.5 10 -20
v 30 10 -20
v 30 7.3333334922790527 -20
v 30 8.6666669845581055 -20
v 30.25 10 -20
v 30.5 8.6666669845581055 -20
v 30.5 7.3333334922790527 -20
v 30.5 10 -20.5
v 30.5 10 -20.25
v 30.5 8.6666669845581055 -20.5
v 30.5 7.3333334922790527 -20.5
v 30 10 -20.5
v 30.25 10 -20.5
v 30 8.6666669845581055 -20.5
v 30 7.3333334922790527 -20.5
v 30 10 -20.25
f 317 313 320 314 319 316 318 315
f 317 315 327 326 321 325 322 324 323 313
f 318 316 331 330 328 329 321 326 327 315
f 319 314 335 334 332 333 328 330 331 316
f 320 313 323 324 322 336 332 334 335 314
f 336 322 325 321 329 328 333 332
g Columns
v 20 6 -39.5
v 20 6 -40
v 20.5 6 -39.5
v 20.5 6 -40
v 20.25 6 -39.5
v 20.5 6 -39.75
v 20.25 6 -40
v 20 6 -39.75
v 20.5 10 -39.5
v 20 10 -39.5
v 20 7.3333334922790527 -39.5
v 20 8.6666669845581055 -39.5
v 20.25 10 -39.5
v 20.5 8.6666669845581055 -39.5
v 20.5 7.3333334922790527 -39.5
v 20.5 10 -40
v 20.5 10 -39.75
v 20.5 8.6666669845581055 -40
v 20.5 7.3333334922790527 -40
v 20 10 -40
v 20.25 10 -40
v 20 8.6666669845581055 -40
v 20 7.3333334922790527 -40
v 20 10 -39.75
f 341 337 344 338 343 340 342 339
f 341 339 351 350 345 349 346 348 347 337
f 342 340 355 354 352 353 345 350 351 339
f 343 338 359 358 356 357 352 354 355 340
f 344 337 347 348 346 360 356 358 359 338
f 360 346 349 345 353 352 357 356
g Columns
v 20 6 -30
v 20 6 -30.5
v 20.5 6 -30
v 20.5 6 -30.5
v 20.25 6 -30
v 20.5 6 -30.25
v 20.25 6 -30.5
v 20 6 -30.25
v 20.5 10 -30
v 20 10 -30
v 20 7.3333334922790527 -30
v 20 8.6666669845581055 -30
v 20.25 10 -30
v 20.5 8.6666669845581055 -30
v 20.5 7.3333334922790527 -30
v 20.5 10 -30.5
v 20.5 10 -30.25
v 20.5 8.6666669845581055 -30.5
v 20.5 7.3333334922790527 -30.5
v 20 10 -30.5
v 20.25 10 -30.5
v 20 8.6666669845581055 -30.5
v 20 7.3333334922790527 -30.5
v 20 10 -30.25
f 365 361 368 362 367 364 366 363
f 365 363 375 374 369 373 370 372 371 361
f 366 364 379 378 376 377 369 374 375 363
f 367 362 383 382 380 381 376 378 379 364
f 368 361 371 372 370 384 380 382 383 362
f 384 370 373 369 377 376 381 380
g Columns
v 20 6 -20
v 20 6 -20.5
v 20.5 6 -20
v 20.5 6 -20.5
v 20.25 6 -20
v 20.5 6 -20.25
v 20.25 6 -20.5
v 20 6 -20.25
v 20.5 10 -20
v 20 10 -20
v 20 7.3333334922790527 -20
v 20 8.6666669845581055 -20
v 20.25 10 -20
v 20.5 8.6666669845581055 -20
v 20.5 7.3333334922790527 -20
v 20.5 10 -20.5
v 20.5 10 -20.25
v 20.5 8.6666669845581055 -20.5
v 20.5 7.3333334922790527 -20.5
v 20 10 -20.5
v 20.25 10 -20.5
v 20 8.6666669845581055 -20.5
v 20 7.3333334922790527 -20.5
v 20 10 -20.25
f 389 385 392 386 391 388 390 387
f 389 387 399 398 393 397 394 396 395 385
f 390 388 403 402 400 401 393 398 399 387
f 391 386 407 406 404 405 400 402 403 388
f 392 385 395 396 394 408 404 406 407 386
f 408 394 397 393 401 400 405 404
g Columns
v 10 6 -39.5
v 10 6 -40
v 10.5 6 -39.5
v 10.5 6 -40
v 10.25 6 -39.5
v 10.5 6 -39.75
v 10.25 6 -40
v 10 6 -39.75
v 10.5 10 -39.5
v 10 10 -39.5
v 10 7.3333334922790527 -39.5
v 10 8.6666669845581055 -39.5
v 10.25 10 -39.5
v 10.5 8.6666669845581055 -39.5
v 10.5 7.3333334922790527 -39.5
v 10.5 10 -40
v 10.5 10 -39.75
v 10.5 8.6666669845581055 -40
v 10.5 7.3333334922790527 -40
v 10 10 -40
v 10.25 10 -40
v 10 8.6666669845581055 -40
v 10 7.3333334922790527 -40
v 10 10 -39.75
f 413 409 416 410 415 412 414 411
f 413 411 423 422 417 421 418 420 419 409
f 414 412 427 426 424 425 417 422 423 411
f 415 410 431 430 428 429 424 426 427 412
f 416 409 419 420 418 432 428 430 431 410
f 432 418 421 417 425 424 429 428
g Columns
v 10 6 -30
v 10 6 -30.5
v 10.5 6 -30
v 10.5 6 -30.5
v 10.25 6 -30
v 10.5 6 -30.25
v 10.25 6 -30.5
v 10 6 -30.25
v 10.5 10 -30
v 10 10 -30
v 10 7.3333334922790527 -30
v 10 8.6666669845581055 -30
v 10.25 10 -30
v 10.5 8.6666669845581055 -30
v 10.5 7.3333334922790527 -30
v 10.5 10 -30.5
v 10.5 10 -30.25
v 10.5 8.6666669845581055 -30.5
v 10.5 7.3333334922790527 -30.5
v 10 10 -30.5
v 10.25 10 -30.5
v 10 8.6666669845581055 -30.5
v 10 7.3333334922790527 -30.5
v 10 10 -30.25
f 437 433 440 434 439 436 438 435
f 437 435 447 446 441 445 442 444 443 433
f 438 436 451 450 448 449 441 446 447 435
f 439 434 455 454 452 453 448 450 451 436
f 440 433 443 444 442 456 452 454 455 434
f 456 442 445 441 449 448 453 452
g Columns
v 10 6 -20
v 10 6 -20.5
v 10.5 6 -20
v 10.5 6 -20.5
v 10.25 6 -20
v 10.5 6 -20.25
v 10.25 6 -20.5
v 10 6 -20.25
v 10.5 10 -20
v 10 10 -20
v 10 7.3333334922790527 -20
v 10 8.6666669845581055 -20
v 10.25 10 -20
v 10.5 8.6666669845581055 -20
v 10.5 7.3333334922790527 -20
v 10.5 10 -20.5
v 10.5 10 -20.25
v 10.5 8.6666669845581055 -20.5
v 10.5 7.3333334922790527 -20.5
v 10 10 -20.5
v 10.25 10 -20.5
v 10 8.6666669845581055 -20.5
v 10 7.3333334922790527 -20.5
v 10 10 -20.25
f 461 457 464 458 463 460 462 459
f 461 459 471 470 465 469 466 468 467 457
f 462 460 475 474 472 473 465 470 471 459
f 463 458 479 478 476 477 472 474 475 460
f 464 457 467 468 466 480 476 478 479 458
f 480 466 469 465 473 472 477 476
