# Rhino

g Core
v 50 6 -30
v 50 10 -30
v 40 6 -30
v 40 10 -30
v 45 6 -30
v 45 10 -30
v 50 6 -40
v 50 10 -40
v 50 6 -35
v 50 10 -35
v 40 6 -40
v 40 6 -35
v 45 6 -40
v 40 10 -40
v 40 10 -35
v 45 10 -40
f 2 6 4 3 5 1
f 8 10 2 1 9 7
f 5 3 12 11 13 7 9 1
f 15 4 6 2 10 8 16 14
f 4 15 14 11 12 3
f 14 16 8 7 13 11
g Core
v 50 10 -30
v 50 14 -30
v 40 10 -30
v 40 14 -30
v 45 10 -30
v 45 14 -30
v 50 10 -40
v 50 14 -40
v 50 10 -35
v 50 14 -35
v 40 10 -40
v 40 10 -35
v 45 10 -40
v 40 14 -40
v 40 14 -35
v 45 14 -40
f 18 22 20 19 21 17
f 24 26 18 17 25 23
f 21 19 28 27 29 23 25 17
f 31 20 22 18 26 24 32 30
f 20 31 30 27 28 19
f 30 32 24 23 29 27
g Core
v 50 14 -30
v 50 18 -30
v 40 14 -30
v 40 18 -30
v 45 14 -30
v 45 18 -30
v 50 14 -40
v 50 18 -40
v 50 14 -35
v 50 18 -35
v 40 14 -40
v 40 14 -35
v 45 14 -40
v 40 18 -40
v 40 18 -35
v 45 18 -40
f 34 38 36 35 37 33
f 40 42 34 33 41 39
f 37 35 44 43 45 39 41 33
f 47 36 38 34 42 40 48 46
f 36 47 46 43 44 35
f 46 48 40 39 45 43
g Core
v 50 18 -30
v 50 22 -30
v 40 18 -30
v 40 22 -30
v 45 18 -30
v 45 22 -30
v 50 18 -40
v 50 22 -40
v 50 18 -35
v 50 22 -35
v 40 18 -40
v 40 18 -35
v 45 18 -40
v 40 22 -40
v 40 22 -35
v 45 22 -40
f 50 54 52 51 53 49
f 56 58 50 49 57 55
f 53 51 60 59 61 55 57 49
f 63 52 54 50 58 56 64 62
f 52 63 62 59 60 51
f 62 64 56 55 61 59
g Core
v 50 22 -30
v 50 26 -30
v 40 22 -30
v 40 26 -30
v 45 22 -30
v 45 26 -30
v 50 22 -40
v 50 26 -40
v 50 22 -35
v 50 26 -35
v 40 22 -40
v 40 22 -35
v 45 22 -40
v 40 26 -40
v 40 26 -35
v 45 26 -40
f 66 70 68 67 69 65
f 72 74 66 65 73 71
f 69 67 76 75 77 71 73 65
f 79 68 70 66 74 72 80 78
f 68 79 78 75 76 67
f 78 80 72 71 77 75
g Core
v 50 26 -30
v 50 30 -30
v 40 26 -30
v 40 30 -30
v 45 26 -30
v 45 30 -30
v 50 26 -40
v 50 30 -40
v 50 26 -35
v 50 30 -35
v 40 26 -40
v 40 26 -35
v 45 26 -40
v 40 30 -40
v 40 30 -35
v 45 30 -40
f 82 86 84 83 85 81
f 88 90 82 81 89 87
f 85 83 92 91 93 87 89 81
f 95 84 86 82 90 88 96 94
f 84 95 94 91 92 83
f 94 96 88 87 93 91
g Core
v 50 30 -30
v 50 34 -30
v 40 30 -30
v 40 34 -30
v 45 30 -30
v 45 34 -30
v 50 30 -40
v 50 34 -40
v 50 30 -35
v 50 34 -35
v 40 30 -40
v 40 30 -35
v 45 30 -40
v 40 34 -40
v 40 34 -35
v 45 34 -40
f 98 102 100 99 101 97
f 104 106 98 97 105 103
f 101 99 108 107 109 103 105 97
f 111 100 102 98 106 104 112 110
f 100 111 110 107 108 99
f 110 112 104 103 109 107
g Core
v 50 34 -30
v 50 38 -30
v 40 34 -30
v 40 38 -30
v 45 34 -30
v 45 38 -30
v 50 34 -40
v 50 38 -40
v 50 34 -35
v 50 38 -35
v 40 34 -40
v 40 34 -35
v 45 34 -40
v 40 38 -40
v 40 38 -35
v 45 38 -40
f 114 118 116 115 117 113
f 120 122 114 113 121 119
f 117 115 124 123 125 119 121 113
f 127 116 118 114 122 120 128 126
f 116 127 126 123 124 115
f 126 128 120 119 125 123
g Core
v 50 38 -30
v 50 42 -30
v 40 38 -30
v 40 42 -30
v 45 38 -30
v 45 42 -30
v 50 38 -40
v 50 42 -40
v 50 38 -35
v 50 42 -35
v 40 38 -40
v 40 38 -35
v 45 38 -40
v 40 42 -40
v 40 42 -35
v 45 42 -40
f 130 134 132 131 133 129
f 136 138 130 129 137 135
f 133 131 140 139 141 135 137 129
f 143 132 134 130 138 136 144 142
f 132 143 142 139 140 131
f 142 144 136 135 141 139
