# Rhino

g Ground
v 80 0 -50
v 80 0 -60
v 90 0 -50
v 90 0 -60
v 85 0 -50
v 90 0 -55
v 85 0 -60
v 80 0 -55
v 90 6 -50
v 80 6 -50
v 85 6 -50
v 90 6 -60
v 90 6 -55
v 80 6 -60
v 85 6 -60
v 80 6 -55
f 5 1 8 2 7 4 6 3
f 9 11 10 1 5 3
f 12 13 9 3 6 4
f 14 15 12 4 7 2
f 10 16 14 2 8 1
f 16 10 11 9 13 12 15 14
g Ground
v 80 0 -40
v 80 0 -50
v 90 0 -40
v 90 0 -50
v 85 0 -40
v 90 0 -45
v 85 0 -50
v 80 0 -45
v 90 6 -40
v 80 6 -40
v 85 6 -40
v 90 6 -50
v 90 6 -45
v 80 6 -50
v 85 6 -50
v 80 6 -45
f 21 17 24 18 23 20 22 19
f 25 27 26 17 21 19
f 28 29 25 19 22 20
f 30 31 28 20 23 18
f 26 32 30 18 24 17
f 32 26 27 25 29 28 31 30
g Ground
v 80 0 -30
v 80 0 -40
v 90 0 -30
v 90 0 -40
v 85 0 -30
v 90 0 -35
v 85 0 -40
v 80 0 -35
v 90 6 -30
v 80 6 -30
v 85 6 -30
v 90 6 -40
v 90 6 -35
v 80 6 -40
v 85 6 -40
v 80 6 -35
f 37 33 40 34 39 36 38 35
f 41 43 42 33 37 35
f 44 45 41 35 38 36
f 46 47 44 36 39 34
f 42 48 46 34 40 33
f 48 42 43 41 45 44 47 46
g Ground
v 80 0 -20
v 80 0 -30
v 90 0 -20
v 90 0 -30
v 85 0 -20
v 90 0 -25
v 85 0 -30
v 80 0 -25
v 90 6 -20
v 80 6 -20
v 85 6 -20
v 90 6 -30
v 90 6 -25
v 80 6 -30
v 85 6 -30
v 80 6 -25
f 53 49 56 50 55 52 54 51
f 57 59 58 49 53 51
f 60 61 57 51 54 52
f 62 63 60 52 55 50
f 58 64 62 50 56 49
f 64 58 59 57 61 60 63 62
g Ground
v 80 0 -10
v 80 0 -20
v 90 0 -10
v 90 0 -20
v 85 0 -10
v 90 0 -15
v 85 0 -20
v 80 0 -15
v 90 6 -10
v 80 6 -10
v 85 6 -10
v 90 6 -20
v 90 6 -15
v 80 6 -20
v 85 6 -20
v 80 6 -15
f 69 65 72 66 71 68 70 67
f 73 75 74 65 69 67
f 76 77 73 67 70 68
f 78 79 76 68 71 66
f 74 80 78 66 72 65
f 80 74 75 73 77 76 79 78
g Ground
v 80 0 0
v 80 0 -10
v 90 0 0
v 90 0 -10
v 85 0 0
v 90 0 -5
v 85 0 -10
v 80 0 -5
v 90 6 0
v 80 6 0
v 85 6 0
v 90 6 -10
v 90 6 -5
v 80 6 -10
v 85 6 -10
v 80 6 -5
f 85 81 88 82 87 84 86 83
f 89 91 90 81 85 83
f 92 93 89 83 86 84
f 94 95 92 84 87 82
f 90 96 94 82 88 81
f 96 90 91 89 93 92 95 94
g Ground
v 70 0 -50
v 70 0 -60
v 80 0 -50
v 80 0 -60
v 75 0 -50
v 80 0 -55
v 75 0 -60
v 70 0 -55
v 80 6 -50
v 70 6 -50
v 75 6 -50
v 80 6 -60
v 80 6 -55
v 70 6 -60
v 75 6 -60
v 70 6 -55
f 101 97 104 98 103 100 102 99
f 105 107 106 97 101 99
f 108 109 105 99 102 100
f 110 111 108 100 103 98
f 106 112 110 98 104 97
f 112 106 107 105 109 108 111 110
g Ground
v 70 0 -40
v 70 0 -50
v 80 0 -40
v 80 0 -50
v 75 0 -40
v 80 0 -45
v 75 0 -50
v 70 0 -45
v 80 6 -40
v 70 6 -40
v 75 6 -40
v 80 6 -50
v 80 6 -45
v 70 6 -50
v 75 6 -50
v 70 6 -45
f 117 113 120 114 119 116 118 115
f 121 123 122 113 117 115
f 124 125 121 115 118 116
f 126 127 124 116 119 114
f 122 128 126 114 120 113
f 128 122 123 121 125 124 127 126
g Ground
v 70 0 -30
v 70 0 -40
v 80 0 -30
v 80 0 -40
v 75 0 -30
v 80 0 -35
v 75 0 -40
v 70 0 -35
v 80 6 -30
v 70 6 -30
v 75 6 -30
v 80 6 -40
v 80 6 -35
v 70 6 -40
v 75 6 -40
v 70 6 -35
f 133 129 136 130 135 132 134 131
f 137 139 138 129 133 131
f 140 141 137 131 134 132
f 142 143 140 132 135 130
f 138 144 142 130 136 129
f 144 138 139 137 141 140 143 142
g Ground
v 70 0 -20
v 70 0 -30
v 80 0 -20
v 80 0 -30
v 75 0 -20
v 80 0 -25
v 75 0 -30
v 70 0 -25
v 80 6 -20
v 70 6 -20
v 75 6 -20
v 80 6 -30
v 80 6 -25
v 70 6 -30
v 75 6 -30
v 70 6 -25
f 149 145 152 146 151 148 150 147
f 153 155 154 145 149 147
f 156 157 153 147 150 148
f 158 159 156 148 151 146
f 154 160 158 146 152 145
f 160 154 155 153 157 156 159 158
g Ground
v 70 0 -10
v 70 0 -20
v 80 0 -10
v 80 0 -20
v 75 0 -10
v 80 0 -15
v 75 0 -20
v 70 0 -15
v 80 6 -10
v 70 6 -10
v 75 6 -10
v 80 6 -20
v 80 6 -15
v 70 6 -20
v 75 6 -20
v 70 6 -15
f 165 161 168 162 167 164 166 163
f 169 171 170 161 165 163
f 172 173 169 163 166 164
f 174 175 172 164 167 162
f 170 176 174 162 168 161
f 176 170 171 169 173 172 175 174
g Ground
v 70 0 0
v 70 0 -10
v 80 0 0
v 80 0 -10
v 75 0 0
v 80 0 -5
v 75 0 -10
v 70 0 -5
v 80 6 0
v 70 6 0
v 75 6 0
v 80 6 -10
v 80 6 -5
v 70 6 -10
v 75 6 -10
v 70 6 -5
f 181 177 184 178 183 180 182 179
f 185 187 186 177 181 179
f 188 189 185 179 182 180
f 190 191 188 180 183 178
f 186 192 190 178 184 177
f 192 186 187 185 189 188 191 190
g Ground
v 60 0 -50
v 60 0 -60
v 70 0 -50
v 70 0 -60
v 65 0 -50
v 70 0 -55
v 65 0 -60
v 60 0 -55
v 70 6 -50
v 60 6 -50
v 65 6 -50
v 70 6 -60
v 70 6 -55
v 60 6 -60
v 65 6 -60
v 60 6 -55
f 197 193 200 194 199 196 198 195
f 201 203 202 193 197 195
f 204 205 201 195 198 196
f 206 207 204 196 199 194
f 202 208 206 194 200 193
f 208 202 203 201 205 204 207 206
g Ground
v 60 0 -40
v 60 0 -50
v 70 0 -40
v 70 0 -50
v 65 0 -40
v 70 0 -45
v 65 0 -50
v 60 0 -45
v 70 6 -40
v 60 6 -40
v 65 6 -40
v 70 6 -50
v 70 6 -45
v 60 6 -50
v 65 6 -50
v 60 6 -45
f 213 209 216 210 215 212 214 211
f 217 219 218 209 213 211
f 220 221 217 211 214 212
f 222 223 220 212 215 210
f 218 224 222 210 216 209
f 224 218 219 217 221 220 223 222
g Ground
v 60 0 -30
v 60 0 -40
v 70 0 -30
v 70 0 -40
v 65 0 -30
v 70 0 -35
v 65 0 -40
v 60 0 -35
v 70 6 -30
v 60 6 -30
v 65 6 -30
v 70 6 -40
v 70 6 -35
v 60 6 -40
v 65 6 -40
v 60 6 -35
f 229 225 232 226 231 228 230 227
f 233 235 234 225 229 227
f 236 237 233 227 230 228
f 238 239 236 228 231 226
f 234 240 238 226 232 225
f 240 234 235 233 237 236 239 238
g Ground
v 60 0 -20
v 60 0 -30
v 70 0 -20
v 70 0 -30
v 65 0 -20
v 70 0 -25
v 65 0 -30
v 60 0 -25
v 70 6 -20
v 60 6 -20
v 65 6 -20
v 70 6 -30
v 70 6 -25
v 60 6 -30
v 65 6 -30
v 60 6 -25
f 245 241 248 242 247 244 246 243
f 249 251 250 241 245 243
f 252 253 249 243 246 244
f 254 255 252 244 247 242
f 250 256 254 242 248 241
f 256 250 251 249 253 252 255 254
g Ground
v 60 0 -10
v 60 0 -20
v 70 0 -10
v 70 0 -20
v 65 0 -10
v 70 0 -15
v 65 0 -20
v 60 0 -15
v 70 6 -10
v 60 6 -10
v 65 6 -10
v 70 6 -20
v 70 6 -15
v 60 6 -20
v 65 6 -20
v 60 6 -15
f 261 257 264 258 263 260 262 259
f 265 267 266 257 261 259
f 268 269 265 259 262 260
f 270 271 268 260 263 258
f 266 272 270 258 264 257
f 272 266 267 265 269 268 271 270
g Ground
v 60 0 0
v 60 0 -10
v 70 0 0
v 70 0 -10
v 65 0 0
v 70 0 -5
v 65 0 -10
v 60 0 -5
v 70 6 0
v 60 6 0
v 65 6 0
v 70 6 -10
v 70 6 -5
v 60 6 -10
v 65 6 -10
v 60 6 -5
f 277 273 280 274 279 276 278 275
f 281 283 282 273 277 275
f 284 285 281 275 278 276
f 286 287 284 276 279 274
f 282 288 286 274 280 273
f 288 282 283 281 285 284 287 286
g Ground
v 50 0 -50
v 50 0 -60
v 60 0 -50
v 60 0 -60
v 55 0 -50
v 60 0 -55
v 55 0 -60
v 50 0 -55
v 60 6 -50
v 50 6 -50
v 55 6 -50
v 60 6 -60
v 60 6 -55
v 50 6 -60
v 55 6 -60
v 50 6 -55
f 293 289 296 290 295 292 294 291
f 297 299 298 289 293 291
f 300 301 297 291 294 292
f 302 303 300 292 295 290
f 298 304 302 290 296 289
f 304 298 299 297 301 300 303 302
g Ground
v 50 0 -40
v 50 0 -50
v 60 0 -40
v 60 0 -50
v 55 0 -40
v 60 0 -45
v 55 0 -50
v 50 0 -45
v 60 6 -40
v 50 6 -40
v 55 6 -40
v 60 6 -50
v 60 6 -45
v 50 6 -50
v 55 6 -50
v 50 6 -45
f 309 305 312 306 311 308 310 307
f 313 315 314 305 309 307
f 316 317 313 307 310 308
f 318 319 316 308 311 306
f 314 320 318 306 312 305
f 320 314 315 313 317 316 319 318
g Ground
v 50 0 -30
v 50 0 -40
v 60 0 -30
v 60 0 -40
v 55 0 -30
v 60 0 -35
v 55 0 -40
v 50 0 -35
v 60 6 -30
v 50 6 -30
v 55 6 -30
v 60 6 -40
v 60 6 -35
v 50 6 -40
v 55 6 -40
v 50 6 -35
f 325 321 328 322 327 324 326 323
f 329 331 330 321 325 323
f 332 333 329 323 326 324
f 334 335 332 324 327 322
f 330 336 334 322 328 321
f 336 330 331 329 333 332 335 334
g Ground
v 50 0 -20
v 50 0 -30
v 60 0 -20
v 60 0 -30
v 55 0 -20
v 60 0 -25
v 55 0 -30
v 50 0 -25
v 60 6 -20
v 50 6 -20
v 55 6 -20
v 60 6 -30
v 60 6 -25
v 50 6 -30
v 55 6 -30
v 50 6 -25
f 341 337 344 338 343 340 342 339
f 345 347 346 337 341 339
f 348 349 345 339 342 340
f 350 351 348 340 343 338
f 346 352 350 338 344 337
f 352 346 347 345 349 348 351 350
g Ground
v 50 0 -10
v 50 0 -20
v 60 0 -10
v 60 0 -20
v 55 0 -10
v 60 0 -15
v 55 0 -20
v 50 0 -15
v 60 6 -10
v 50 6 -10
v 55 6 -10
v 60 6 -20
v 60 6 -15
v 50 6 -20
v 55 6 -20
v 50 6 -15
f 357 353 360 354 359 356 358 355
f 361 363 362 353 357 355
f 364 365 361 355 358 356
f 366 367 364 356 359 354
f 362 368 366 354 360 353
f 368 362 363 361 365 364 367 366
g Ground
v 50 0 0
v 50 0 -10
v 60 0 0
v 60 0 -10
v 55 0 0
v 60 0 -5
v 55 0 -10
v 50 0 -5
v 60 6 0
v 50 6 0
v 55 6 0
v 60 6 -10
v 60 6 -5
v 50 6 -10
v 55 6 -10
v 50 6 -5
f 373 369 376 370 375 372 374 371
f 377 379 378 369 373 371
f 380 381 377 371 374 372
f 382 383 380 372 375 370
f 378 384 382 370 376 369
f 384 378 379 377 381 380 383 382
g Ground
v 40 0 -50
v 40 0 -60
v 50 0 -50
v 50 0 -60
v 45 0 -50
v 50 0 -55
v 45 0 -60
v 40 0 -55
v 50 6 -50
v 40 6 -50
v 45 6 -50
v 50 6 -60
v 50 6 -55
v 40 6 -60
v 45 6 -60
v 40 6 -55
f 389 385 392 386 391 388 390 387
f 393 395 394 385 389 387
f 396 397 393 387 390 388
f 398 399 396 388 391 386
f 394 400 398 386 392 385
f 400 394 395 393 397 396 399 398
g Ground
v 30 0 -50
v 30 0 -60
v 40 0 -50
v 40 0 -60
v 35 0 -50
v 40 0 -55
v 35 0 -60
v 30 0 -55
v 40 6 -50
v 30 6 -50
v 35 6 -50
v 40 6 -60
v 40 6 -55
v 30 6 -60
v 35 6 -60
v 30 6 -55
f 405 401 408 402 407 404 406 403
f 409 411 410 401 405 403
f 412 413 409 403 406 404
f 414 415 412 404 407 402
f 410 416 414 402 408 401
f 416 410 411 409 413 412 415 414
g Ground
v 20 0 -50
v 20 0 -60
v 30 0 -50
v 30 0 -60
v 25 0 -50
v 30 0 -55
v 25 0 -60
v 20 0 -55
v 30 6 -50
v 20 6 -50
v 25 6 -50
v 30 6 -60
v 30 6 -55
v 20 6 -60
v 25 6 -60
v 20 6 -55
f 421 417 424 418 423 420 422 419
f 425 427 426 417 421 419
f 428 429 425 419 422 420
f 430 431 428 420 423 418
f 426 432 430 418 424 417
f 432 426 427 425 429 428 431 430
g Ground
v 10 0 -50
v 10 0 -60
v 20 0 -50
v 20 0 -60
v 15 0 -50
v 20 0 -55
v 15 0 -60
v 10 0 -55
v 20 6 -50
v 10 6 -50
v 15 6 -50
v 20 6 -60
v 20 6 -55
v 10 6 -60
v 15 6 -60
v 10 6 -55
f 437 433 440 434 439 436 438 435
f 441 443 442 433 437 435
f 444 445 441 435 438 436
f 446 447 444 436 439 434
f 442 448 446 434 440 433
f 448 442 443 441 445 444 447 446
g Ground
v 0 0 -50
v 0 0 -60
v 10 0 -50
v 10 0 -60
v 5 0 -50
v 10 0 -55
v 5 0 -60
v 0 0 -55
v 10 6 -50
v 0 6 -50
v 5 6 -50
v 10 6 -60
v 10 6 -55
v 0 6 -60
v 5 6 -60
v 0 6 -55
f 453 449 456 450 455 452 454 451
f 457 459 458 449 453 451
f 460 461 457 451 454 452
f 462 463 460 452 455 450
f 458 464 462 450 456 449
f 464 458 459 457 461 460 463 462
g Ground
v 40 0 -40
v 40 0 -50
v 50 0 -40
v 50 0 -50
v 45 0 -40
v 50 0 -45
v 45 0 -50
v 40 0 -45
v 50 6 -40
v 40 6 -40
v 45 6 -40
v 50 6 -50
v 50 6 -45
v 40 6 -50
v 45 6 -50
v 40 6 -45
f 469 465 472 466 471 468 470 467
f 473 475 474 465 469 467
f 476 477 473 467 470 468
f 478 479 476 468 471 466
f 474 480 478 466 472 465
f 480 474 475 473 477 476 479 478
g Ground
v 30 0 -40
v 30 0 -50
v 40 0 -40
v 40 0 -50
v 35 0 -40
v 40 0 -45
v 35 0 -50
v 30 0 -45
v 40 6 -40
v 30 6 -40
v 35 6 -40
v 40 6 -50
v 40 6 -45
v 30 6 -50
v 35 6 -50
v 30 6 -45
f 485 481 488 482 487 484 486 483
f 489 491 490 481 485 483
f 492 493 489 483 486 484
f 494 495 492 484 487 482
f 490 496 494 482 488 481
f 496 490 491 489 493 492 495 494
g Ground
v 20 0 -40
v 20 0 -50
v 30 0 -40
v 30 0 -50
v 25 0 -40
v 30 0 -45
v 25 0 -50
v 20 0 -45
v 30 6 -40
v 20 6 -40
v 25 6 -40
v 30 6 -50
v 30 6 -45
v 20 6 -50
v 25 6 -50
v 20 6 -45
f 501 497 504 498 503 500 502 499
f 505 507 506 497 501 499
f 508 509 505 499 502 500
f 510 511 508 500 503 498
f 506 512 510 498 504 497
f 512 506 507 505 509 508 511 510
g Ground
v 10 0 -40
v 10 0 -50
v 20 0 -40
v 20 0 -50
v 15 0 -40
v 20 0 -45
v 15 0 -50
v 10 0 -45
v 20 6 -40
v 10 6 -40
v 15 6 -40
v 20 6 -50
v 20 6 -45
v 10 6 -50
v 15 6 -50
v 10 6 -45
f 517 513 520 514 519 516 518 515
f 521 523 522 513 517 515
f 524 525 521 515 518 516
f 526 527 524 516 519 514
f 522 528 526 514 520 513
f 528 522 523 521 525 524 527 526
g Ground
v 0 0 -40
v 0 0 -50
v 10 0 -40
v 10 0 -50
v 5 0 -40
v 10 0 -45
v 5 0 -50
v 0 0 -45
v 10 6 -40
v 0 6 -40
v 5 6 -40
v 10 6 -50
v 10 6 -45
v 0 6 -50
v 5 6 -50
v 0 6 -45
f 533 529 536 530 535 532 534 531
f 537 539 538 529 533 531
f 540 541 537 531 534 532
f 542 543 540 532 535 530
f 538 544 542 530 536 529
f 544 538 539 537 541 540 543 542
g Ground
v 40 0 -30
v 40 0 -40
v 50 0 -30
v 50 0 -40
v 45 0 -30
v 50 0 -35
v 45 0 -40
v 40 0 -35
v 50 6 -30
v 40 6 -30
v 45 6 -30
v 50 6 -40
v 50 6 -35
v 40 6 -40
v 45 6 -40
v 40 6 -35
f 549 545 552 546 551 548 550 547
f 553 555 554 545 549 547
f 556 557 553 547 550 548
f 558 559 556 548 551 546
f 554 560 558 546 552 545
f 560 554 555 553 557 556 559 558
g Ground
v 30 0 -30
v 30 0 -40
v 40 0 -30
v 40 0 -40
v 35 0 -30
v 40 0 -35
v 35 0 -40
v 30 0 -35
v 40 6 -30
v 30 6 -30
v 35 6 -30
v 40 6 -40
v 40 6 -35
v 30 6 -40
v 35 6 -40
v 30 6 -35
f 565 561 568 562 567 564 566 563
f 569 571 570 561 565 563
f 572 573 569 563 566 564
f 574 575 572 564 567 562
f 570 576 574 562 568 561
f 576 570 571 569 573 572 575 574
g Ground
v 20 0 -30
v 20 0 -40
v 30 0 -30
v 30 0 -40
v 25 0 -30
v 30 0 -35
v 25 0 -40
v 20 0 -35
v 30 6 -30
v 20 6 -30
v 25 6 -30
v 30 6 -40
v 30 6 -35
v 20 6 -40
v 25 6 -40
v 20 6 -35
f 581 577 584 578 583 580 582 579
f 585 587 586 577 581 579
f 588 589 585 579 582 580
f 590 591 588 580 583 578
f 586 592 590 578 584 577
f 592 586 587 585 589 588 591 590
g Ground
v 10 0 -30
v 10 0 -40
v 20 0 -30
v 20 0 -40
v 15 0 -30
v 20 0 -35
v 15 0 -40
v 10 0 -35
v 20 6 -30
v 10 6 -30
v 15 6 -30
v 20 6 -40
v 20 6 -35
v 10 6 -40
v 15 6 -40
v 10 6 -35
f 597 593 600 594 599 596 598 595
f 601 603 602 593 597 595
f 604 605 601 595 598 596
f 606 607 604 596 599 594
f 602 608 606 594 600 593
f 608 602 603 601 605 604 607 606
g Ground
v 0 0 -30
v 0 0 -40
v 10 0 -30
v 10 0 -40
v 5 0 -30
v 10 0 -35
v 5 0 -40
v 0 0 -35
v 10 6 -30
v 0 6 -30
v 5 6 -30
v 10 6 -40
v 10 6 -35
v 0 6 -40
v 5 6 -40
v 0 6 -35
f 613 609 616 610 615 612 614 611
f 617 619 618 609 613 611
f 620 621 617 611 614 612
f 622 623 620 612 615 610
f 618 624 622 610 616 609
f 624 618 619 617 621 620 623 622
g Ground
v 40 0 -20
v 40 0 -30
v 50 0 -20
v 50 0 -30
v 45 0 -20
v 50 0 -25
v 45 0 -30
v 40 0 -25
v 50 6 -20
v 40 6 -20
v 45 6 -20
v 50 6 -30
v 50 6 -25
v 40 6 -30
v 45 6 -30
v 40 6 -25
f 629 625 632 626 631 628 630 627
f 633 635 634 625 629 627
f 636 637 633 627 630 628
f 638 639 636 628 631 626
f 634 640 638 626 632 625
f 640 634 635 633 637 636 639 638
g Ground
v 30 0 -20
v 30 0 -30
v 40 0 -20
v 40 0 -30
v 35 0 -20
v 40 0 -25
v 35 0 -30
v 30 0 -25
v 40 6 -20
v 30 6 -20
v 35 6 -20
v 40 6 -30
v 40 6 -25
v 30 6 -30
v 35 6 -30
v 30 6 -25
f 645 641 648 642 647 644 646 643
f 649 651 650 641 645 643
f 652 653 649 643 646 644
f 654 655 652 644 647 642
f 650 656 654 642 648 641
f 656 650 651 649 653 652 655 654
g Ground
v 20 0 -20
v 20 0 -30
v 30 0 -20
v 30 0 -30
v 25 0 -20
v 30 0 -25
v 25 0 -30
v 20 0 -25
v 30 6 -20
v 20 6 -20
v 25 6 -20
v 30 6 -30
v 30 6 -25
v 20 6 -30
v 25 6 -30
v 20 6 -25
f 661 657 664 658 663 660 662 659
f 665 667 666 657 661 659
f 668 669 665 659 662 660
f 670 671 668 660 663 658
f 666 672 670 658 664 657
f 672 666 667 665 669 668 671 670
g Ground
v 10 0 -20
v 10 0 -30
v 20 0 -20
v 20 0 -30
v 15 0 -20
v 20 0 -25
v 15 0 -30
v 10 0 -25
v 20 6 -20
v 10 6 -20
v 15 6 -20
v 20 6 -30
v 20 6 -25
v 10 6 -30
v 15 6 -30
v 10 6 -25
f 677 673 680 674 679 676 678 675
f 681 683 682 673 677 675
f 684 685 681 675 678 676
f 686 687 684 676 679 674
f 682 688 686 674 680 673
f 688 682 683 681 685 684 687 686
g Ground
v 0 0 -20
v 0 0 -30
v 10 0 -20
v 10 0 -30
v 5 0 -20
v 10 0 -25
v 5 0 -30
v 0 0 -25
v 10 6 -20
v 0 6 -20
v 5 6 -20
v 10 6 -30
v 10 6 -25
v 0 6 -30
v 5 6 -30
v 0 6 -25
f 693 689 696 690 695 692 694 691
f 697 699 698 689 693 691
f 700 701 697 691 694 692
f 702 703 700 692 695 690
f 698 704 702 690 696 689
f 704 698 699 697 701 700 703 702
g Ground
v 40 0 -10
v 40 0 -20
v 50 0 -10
v 50 0 -20
v 45 0 -10
v 50 0 -15
v 45 0 -20
v 40 0 -15
v 50 6 -10
v 40 6 -10
v 45 6 -10
v 50 6 -20
v 50 6 -15
v 40 6 -20
v 45 6 -20
v 40 6 -15
f 709 705 712 706 711 708 710 707
f 713 715 714 705 709 707
f 716 717 713 707 710 708
f 718 719 716 708 711 706
f 714 720 718 706 712 705
f 720 714 715 713 717 716 719 718
g Ground
v 30 0 -10
v 30 0 -20
v 40 0 -10
v 40 0 -20
v 35 0 -10
v 40 0 -15
v 35 0 -20
v 30 0 -15
v 40 6 -10
v 30 6 -10
v 35 6 -10
v 40 6 -20
v 40 6 -15
v 30 6 -20
v 35 6 -20
v 30 6 -15
f 725 721 728 722 727 724 726 723
f 729 731 730 721 725 723
f 732 733 729 723 726 724
f 734 735 732 724 727 722
f 730 736 734 722 728 721
f 736 730 731 729 733 732 735 734
g Ground
v 20 0 -10
v 20 0 -20
v 30 0 -10
v 30 0 -20
v 25 0 -10
v 30 0 -15
v 25 0 -20
v 20 0 -15
v 30 6 -10
v 20 6 -10
v 25 6 -10
v 30 6 -20
v 30 6 -15
v 20 6 -20
v 25 6 -20
v 20 6 -15
f 741 737 744 738 743 740 742 739
f 745 747 746 737 741 739
f 748 749 745 739 742 740
f 750 751 748 740 743 738
f 746 752 750 738 744 737
f 752 746 747 745 749 748 751 750
g Ground
v 10 0 -10
v 10 0 -20
v 20 0 -10
v 20 0 -20
v 15 0 -10
v 20 0 -15
v 15 0 -20
v 10 0 -15
v 20 6 -10
v 10 6 -10
v 15 6 -10
v 20 6 -20
v 20 6 -15
v 10 6 -20
v 15 6 -20
v 10 6 -15
f 757 753 760 754 759 756 758 755
f 761 763 762 753 757 755
f 764 765 761 755 758 756
f 766 767 764 756 759 754
f 762 768 766 754 760 753
f 768 762 763 761 765 764 767 766
g Ground
v 0 0 -10
v 0 0 -20
v 10 0 -10
v 10 0 -20
v 5 0 -10
v 10 0 -15
v 5 0 -20
v 0 0 -15
v 10 6 -10
v 0 6 -10
v 5 6 -10
v 10 6 -20
v 10 6 -15
v 0 6 -20
v 5 6 -20
v 0 6 -15
f 773 769 776 770 775 772 774 771
f 777 779 778 769 773 771
f 780 781 777 771 774 772
f 782 783 780 772 775 770
f 778 784 782 770 776 769
f 784 778 779 777 781 780 783 782
g Ground
v 40 0 0
v 40 0 -10
v 50 0 0
v 50 0 -10
v 45 0 0
v 50 0 -5
v 45 0 -10
v 40 0 -5
v 50 6 0
v 40 6 0
v 45 6 0
v 50 6 -10
v 50 6 -5
v 40 6 -10
v 45 6 -10
v 40 6 -5
f 789 785 792 786 791 788 790 787
f 793 795 794 785 789 787
f 796 797 793 787 790 788
f 798 799 796 788 791 786
f 794 800 798 786 792 785
f 800 794 795 793 797 796 799 798
g Ground
v 30 0 0
v 30 0 -10
v 40 0 0
v 40 0 -10
v 35 0 0
v 40 0 -5
v 35 0 -10
v 30 0 -5
v 40 6 0
v 30 6 0
v 35 6 0
v 40 6 -10
v 40 6 -5
v 30 6 -10
v 35 6 -10
v 30 6 -5
f 805 801 808 802 807 804 806 803
f 809 811 810 801 805 803
f 812 813 809 803 806 804
f 814 815 812 804 807 802
f 810 816 814 802 808 801
f 816 810 811 809 813 812 815 814
g Ground
v 20 0 0
v 20 0 -10
v 30 0 0
v 30 0 -10
v 25 0 0
v 30 0 -5
v 25 0 -10
v 20 0 -5
v 30 6 0
v 20 6 0
v 25 6 0
v 30 6 -10
v 30 6 -5
v 20 6 -10
v 25 6 -10
v 20 6 -5
f 821 817 824 818 823 820 822 819
f 825 827 826 817 821 819
f 828 829 825 819 822 820
f 830 831 828 820 823 818
f 826 832 830 818 824 817
f 832 826 827 825 829 828 831 830
g Ground
v 10 0 0
v 10 0 -10
v 20 0 0
v 20 0 -10
v 15 0 0
v 20 0 -5
v 15 0 -10
v 10 0 -5
v 20 6 0
v 10 6 0
v 15 6 0
v 20 6 -10
v 20 6 -5
v 10 6 -10
v 15 6 -10
v 10 6 -5
f 837 833 840 834 839 836 838 835
f 841 843 842 833 837 835
f 844 845 841 835 838 836
f 846 847 844 836 839 834
f 842 848 846 834 840 833
f 848 842 843 841 845 844 847 846
g Ground
v 0 0 0
v 0 0 -10
v 10 0 0
v 10 0 -10
v 5 0 0
v 10 0 -5
v 5 0 -10
v 0 0 -5
v 10 6 0
v 0 6 0
v 5 6 0
v 10 6 -10
v 10 6 -5
v 0 6 -10
v 5 6 -10
v 0 6 -5
f 853 849 856 850 855 852 854 851
f 857 859 858 849 853 851
f 860 861 857 851 854 852
f 862 863 860 852 855 850
f 858 864 862 850 856 849
f 864 858 859 857 861 860 863 862
