# Rhino

g Offices
v 60 10 -30
v 60 14 -30
v 50 10 -30
v 50 14 -30
v 55 10 -30
v 55 14 -30
v 60 10 -40
v 60 14 -40
v 60 10 -35
v 60 14 -35
v 50 10 -40
v 50 10 -35
v 55 10 -40
v 50 14 -40
v 50 14 -35
v 55 14 -40
f 2 6 4 3 5 1
f 8 10 2 1 9 7
f 5 3 12 11 13 7 9 1
f 15 4 6 2 10 8 16 14
f 4 15 14 11 12 3
f 14 16 8 7 13 11
g Offices
v 40 10 -30
v 40 14 -30
v 30 10 -30
v 30 14 -30
v 35 10 -30
v 35 14 -30
v 30 10 -40
v 30 14 -40
v 30 10 -35
v 30 14 -35
v 40 10 -40
v 40 10 -35
v 35 10 -40
v 40 14 -40
v 40 14 -35
v 35 14 -40
f 18 22 20 19 21 17
f 20 26 24 23 25 19
f 21 19 25 23 29 27 28 17
f 30 31 18 17 28 27
f 26 20 22 18 31 30 32 24
f 24 32 30 27 29 23
g Offices
v 30 10 -30
v 30 14 -30
v 20 10 -30
v 20 14 -30
v 25 10 -30
v 25 14 -30
v 20 10 -40
v 20 14 -40
v 20 10 -35
v 20 14 -35
v 30 10 -40
v 30 10 -35
v 25 10 -40
v 30 14 -40
v 30 14 -35
v 25 14 -40
f 34 38 36 35 37 33
f 36 42 40 39 41 35
f 37 35 41 39 45 43 44 33
f 46 47 34 33 44 43
f 42 36 38 34 47 46 48 40
f 40 48 46 43 45 39
g Offices
v 20 10 -30
v 20 14 -30
v 10 10 -30
v 10 14 -30
v 15 10 -30
v 15 14 -30
v 10 10 -40
v 10 14 -40
v 10 10 -35
v 10 14 -35
v 20 10 -40
v 20 10 -35
v 15 10 -40
v 20 14 -40
v 20 14 -35
v 15 14 -40
f 50 54 52 51 53 49
f 52 58 56 55 57 51
f 53 51 57 55 61 59 60 49
f 62 63 50 49 60 59
f 58 52 54 50 63 62 64 56
f 56 64 62 59 61 55
g Offices
v 80 10 -30
v 80 14 -30
v 70 10 -30
v 70 14 -30
v 75 10 -30
v 75 14 -30
v 70 10 -40
v 70 14 -40
v 70 10 -35
v 70 14 -35
v 80 10 -40
v 80 10 -35
v 75 10 -40
v 80 14 -40
v 80 14 -35
v 75 14 -40
f 66 70 68 67 69 65
f 68 74 72 71 73 67
f 69 67 73 71 77 75 76 65
f 78 79 66 65 76 75
f 74 68 70 66 79 78 80 72
f 72 80 78 75 77 71
g Offices
v 70 10 -30
v 70 14 -30
v 60 10 -30
v 60 14 -30
v 65 10 -30
v 65 14 -30
v 60 10 -40
v 60 14 -40
v 60 10 -35
v 60 14 -35
v 70 10 -40
v 70 10 -35
v 65 10 -40
v 70 14 -40
v 70 14 -35
v 65 14 -40
f 82 86 84 83 85 81
f 84 90 88 87 89 83
f 85 83 89 87 93 91 92 81
f 94 95 82 81 92 91
f 90 84 86 82 95 94 96 88
f 88 96 94 91 93 87
g Offices
v 40 10 -20
v 40 14 -20
v 30 10 -20
v 30 14 -20
v 35 10 -20
v 35 14 -20
v 30 10 -30
v 30 14 -30
v 30 10 -25
v 30 14 -25
v 40 10 -30
v 40 10 -25
v 35 10 -30
v 40 14 -30
v 40 14 -25
v 35 14 -30
f 98 102 100 99 101 97
f 100 106 104 103 105 99
f 101 99 105 103 109 107 108 97
f 110 111 98 97 108 107
f 106 100 102 98 111 110 112 104
f 104 112 110 107 109 103
g Offices
v 30 10 -20
v 30 14 -20
v 20 10 -20
v 20 14 -20
v 25 10 -20
v 25 14 -20
v 20 10 -30
v 20 14 -30
v 20 10 -25
v 20 14 -25
v 30 10 -30
v 30 10 -25
v 25 10 -30
v 30 14 -30
v 30 14 -25
v 25 14 -30
f 114 118 116 115 117 113
f 116 122 120 119 121 115
f 117 115 121 119 125 123 124 113
f 126 127 114 113 124 123
f 122 116 118 114 127 126 128 120
f 120 128 126 123 125 119
g Offices
v 20 10 -20
v 20 14 -20
v 10 10 -20
v 10 14 -20
v 15 10 -20
v 15 14 -20
v 10 10 -30
v 10 14 -30
v 10 10 -25
v 10 14 -25
v 20 10 -30
v 20 10 -25
v 15 10 -30
v 20 14 -30
v 20 14 -25
v 15 14 -30
f 130 134 132 131 133 129
f 132 138 136 135 137 131
f 133 131 137 135 141 139 140 129
f 142 143 130 129 140 139
f 138 132 134 130 143 142 144 136
f 136 144 142 139 141 135
g Offices
v 80 10 -20
v 80 14 -20
v 70 10 -20
v 70 14 -20
v 75 10 -20
v 75 14 -20
v 70 10 -30
v 70 14 -30
v 70 10 -25
v 70 14 -25
v 80 10 -30
v 80 10 -25
v 75 10 -30
v 80 14 -30
v 80 14 -25
v 75 14 -30
f 146 150 148 147 149 145
f 148 154 152 151 153 147
f 149 147 153 151 157 155 156 145
f 158 159 146 145 156 155
f 154 148 150 146 159 158 160 152
f 152 160 158 155 157 151
g Offices
v 70 10 -20
v 70 14 -20
v 60 10 -20
v 60 14 -20
v 65 10 -20
v 65 14 -20
v 60 10 -30
v 60 14 -30
v 60 10 -25
v 60 14 -25
v 70 10 -30
v 70 10 -25
v 65 10 -30
v 70 14 -30
v 70 14 -25
v 65 14 -30
f 162 166 164 163 165 161
f 164 170 168 167 169 163
f 165 163 169 167 173 171 172 161
f 174 175 162 161 172 171
f 170 164 166 162 175 174 176 168
f 168 176 174 171 173 167
g Offices
v 50 10 -20
v 50 14 -20
v 40 10 -20
v 40 14 -20
v 45 10 -20
v 45 14 -20
v 50 10 -30
v 50 14 -30
v 50 10 -25
v 50 14 -25
v 40 10 -30
v 40 10 -25
v 45 10 -30
v 40 14 -30
v 40 14 -25
v 45 14 -30
f 178 182 180 179 181 177
f 184 186 178 177 185 183
f 181 179 188 187 189 183 185 177
f 191 180 182 178 186 184 192 190
f 180 191 190 187 188 179
f 190 192 184 183 189 187
g Offices
v 60 10 -20
v 60 14 -20
v 50 10 -20
v 50 14 -20
v 55 10 -20
v 55 14 -20
v 60 10 -30
v 60 14 -30
v 60 10 -25
v 60 14 -25
v 50 10 -30
v 50 10 -25
v 55 10 -30
v 50 14 -30
v 50 14 -25
v 55 14 -30
f 194 198 196 195 197 193
f 200 202 194 193 201 199
f 197 195 204 203 205 199 201 193
f 207 196 198 194 202 200 208 206
f 196 207 206 203 204 195
f 206 208 200 199 205 203
g Offices
v 60 14 -30
v 60 18 -30
v 50 14 -30
v 50 18 -30
v 55 14 -30
v 55 18 -30
v 60 14 -40
v 60 18 -40
v 60 14 -35
v 60 18 -35
v 50 14 -40
v 50 14 -35
v 55 14 -40
v 50 18 -40
v 50 18 -35
v 55 18 -40
f 210 214 212 211 213 209
f 216 218 210 209 217 215
f 213 211 220 219 221 215 217 209
f 223 212 214 210 218 216 224 222
f 212 223 222 219 220 211
f 222 224 216 215 221 219
g Offices
v 40 14 -30
v 40 18 -30
v 30 14 -30
v 30 18 -30
v 35 14 -30
v 35 18 -30
v 30 14 -40
v 30 18 -40
v 30 14 -35
v 30 18 -35
v 40 14 -40
v 40 14 -35
v 35 14 -40
v 40 18 -40
v 40 18 -35
v 35 18 -40
f 226 230 228 227 229 225
f 228 234 232 231 233 227
f 229 227 233 231 237 235 236 225
f 238 239 226 225 236 235
f 234 228 230 226 239 238 240 232
f 232 240 238 235 237 231
g Offices
v 30 14 -30
v 30 18 -30
v 20 14 -30
v 20 18 -30
v 25 14 -30
v 25 18 -30
v 20 14 -40
v 20 18 -40
v 20 14 -35
v 20 18 -35
v 30 14 -40
v 30 14 -35
v 25 14 -40
v 30 18 -40
v 30 18 -35
v 25 18 -40
f 242 246 244 243 245 241
f 244 250 248 247 249 243
f 245 243 249 247 253 251 252 241
f 254 255 242 241 252 251
f 250 244 246 242 255 254 256 248
f 248 256 254 251 253 247
g Offices
v 20 14 -30
v 20 18 -30
v 10 14 -30
v 10 18 -30
v 15 14 -30
v 15 18 -30
v 10 14 -40
v 10 18 -40
v 10 14 -35
v 10 18 -35
v 20 14 -40
v 20 14 -35
v 15 14 -40
v 20 18 -40
v 20 18 -35
v 15 18 -40
f 258 262 260 259 261 257
f 260 266 264 263 265 259
f 261 259 265 263 269 267 268 257
f 270 271 258 257 268 267
f 266 260 262 258 271 270 272 264
f 264 272 270 267 269 263
g Offices
v 80 14 -30
v 80 18 -30
v 70 14 -30
v 70 18 -30
v 75 14 -30
v 75 18 -30
v 70 14 -40
v 70 18 -40
v 70 14 -35
v 70 18 -35
v 80 14 -40
v 80 14 -35
v 75 14 -40
v 80 18 -40
v 80 18 -35
v 75 18 -40
f 274 278 276 275 277 273
f 276 282 280 279 281 275
f 277 275 281 279 285 283 284 273
f 286 287 274 273 284 283
f 282 276 278 274 287 286 288 280
f 280 288 286 283 285 279
g Offices
v 70 14 -30
v 70 18 -30
v 60 14 -30
v 60 18 -30
v 65 14 -30
v 65 18 -30
v 60 14 -40
v 60 18 -40
v 60 14 -35
v 60 18 -35
v 70 14 -40
v 70 14 -35
v 65 14 -40
v 70 18 -40
v 70 18 -35
v 65 18 -40
f 290 294 292 291 293 289
f 292 298 296 295 297 291
f 293 291 297 295 301 299 300 289
f 302 303 290 289 300 299
f 298 292 294 290 303 302 304 296
f 296 304 302 299 301 295
g Offices
v 40 14 -20
v 40 18 -20
v 30 14 -20
v 30 18 -20
v 35 14 -20
v 35 18 -20
v 30 14 -30
v 30 18 -30
v 30 14 -25
v 30 18 -25
v 40 14 -30
v 40 14 -25
v 35 14 -30
v 40 18 -30
v 40 18 -25
v 35 18 -30
f 306 310 308 307 309 305
f 308 314 312 311 313 307
f 309 307 313 311 317 315 316 305
f 318 319 306 305 316 315
f 314 308 310 306 319 318 320 312
f 312 320 318 315 317 311
g Offices
v 30 14 -20
v 30 18 -20
v 20 14 -20
v 20 18 -20
v 25 14 -20
v 25 18 -20
v 20 14 -30
v 20 18 -30
v 20 14 -25
v 20 18 -25
v 30 14 -30
v 30 14 -25
v 25 14 -30
v 30 18 -30
v 30 18 -25
v 25 18 -30
f 322 326 324 323 325 321
f 324 330 328 327 329 323
f 325 323 329 327 333 331 332 321
f 334 335 322 321 332 331
f 330 324 326 322 335 334 336 328
f 328 336 334 331 333 327
g Offices
v 20 14 -20
v 20 18 -20
v 10 14 -20
v 10 18 -20
v 15 14 -20
v 15 18 -20
v 10 14 -30
v 10 18 -30
v 10 14 -25
v 10 18 -25
v 20 14 -30
v 20 14 -25
v 15 14 -30
v 20 18 -30
v 20 18 -25
v 15 18 -30
f 338 342 340 339 341 337
f 340 346 344 343 345 339
f 341 339 345 343 349 347 348 337
f 350 351 338 337 348 347
f 346 340 342 338 351 350 352 344
f 344 352 350 347 349 343
g Offices
v 80 14 -20
v 80 18 -20
v 70 14 -20
v 70 18 -20
v 75 14 -20
v 75 18 -20
v 70 14 -30
v 70 18 -30
v 70 14 -25
v 70 18 -25
v 80 14 -30
v 80 14 -25
v 75 14 -30
v 80 18 -30
v 80 18 -25
v 75 18 -30
f 354 358 356 355 357 353
f 356 362 360 359 361 355
f 357 355 361 359 365 363 364 353
f 366 367 354 353 364 363
f 362 356 358 354 367 366 368 360
f 360 368 366 363 365 359
g Offices
v 70 14 -20
v 70 18 -20
v 60 14 -20
v 60 18 -20
v 65 14 -20
v 65 18 -20
v 60 14 -30
v 60 18 -30
v 60 14 -25
v 60 18 -25
v 70 14 -30
v 70 14 -25
v 65 14 -30
v 70 18 -30
v 70 18 -25
v 65 18 -30
f 370 374 372 371 373 369
f 372 378 376 375 377 371
f 373 371 377 375 381 379 380 369
f 382 383 370 369 380 379
f 378 372 374 370 383 382 384 376
f 376 384 382 379 381 375
g Offices
v 50 14 -20
v 50 18 -20
v 40 14 -20
v 40 18 -20
v 45 14 -20
v 45 18 -20
v 50 14 -30
v 50 18 -30
v 50 14 -25
v 50 18 -25
v 40 14 -30
v 40 14 -25
v 45 14 -30
v 40 18 -30
v 40 18 -25
v 45 18 -30
f 386 390 388 387 389 385
f 392 394 386 385 393 391
f 389 387 396 395 397 391 393 385
f 399 388 390 386 394 392 400 398
f 388 399 398 395 396 387
f 398 400 392 391 397 395
g Offices
v 60 14 -20
v 60 18 -20
v 50 14 -20
v 50 18 -20
v 55 14 -20
v 55 18 -20
v 60 14 -30
v 60 18 -30
v 60 14 -25
v 60 18 -25
v 50 14 -30
v 50 14 -25
v 55 14 -30
v 50 18 -30
v 50 18 -25
v 55 18 -30
f 402 406 404 403 405 401
f 408 410 402 401 409 407
f 405 403 412 411 413 407 409 401
f 415 404 406 402 410 408 416 414
f 404 415 414 411 412 403
f 414 416 408 407 413 411
g Offices
v 60 18 -30
v 60 22 -30
v 50 18 -30
v 50 22 -30
v 55 18 -30
v 55 22 -30
v 60 18 -40
v 60 22 -40
v 60 18 -35
v 60 22 -35
v 50 18 -40
v 50 18 -35
v 55 18 -40
v 50 22 -40
v 50 22 -35
v 55 22 -40
f 418 422 420 419 421 417
f 424 426 418 417 425 423
f 421 419 428 427 429 423 425 417
f 431 420 422 418 426 424 432 430
f 420 431 430 427 428 419
f 430 432 424 423 429 427
g Offices
v 40 18 -30
v 40 22 -30
v 30 18 -30
v 30 22 -30
v 35 18 -30
v 35 22 -30
v 30 18 -40
v 30 22 -40
v 30 18 -35
v 30 22 -35
v 40 18 -40
v 40 18 -35
v 35 18 -40
v 40 22 -40
v 40 22 -35
v 35 22 -40
f 434 438 436 435 437 433
f 436 442 440 439 441 435
f 437 435 441 439 445 443 444 433
f 446 447 434 433 444 443
f 442 436 438 434 447 446 448 440
f 440 448 446 443 445 439
g Offices
v 30 18 -30
v 30 22 -30
v 20 18 -30
v 20 22 -30
v 25 18 -30
v 25 22 -30
v 20 18 -40
v 20 22 -40
v 20 18 -35
v 20 22 -35
v 30 18 -40
v 30 18 -35
v 25 18 -40
v 30 22 -40
v 30 22 -35
v 25 22 -40
f 450 454 452 451 453 449
f 452 458 456 455 457 451
f 453 451 457 455 461 459 460 449
f 462 463 450 449 460 459
f 458 452 454 450 463 462 464 456
f 456 464 462 459 461 455
g Offices
v 20 18 -30
v 20 22 -30
v 10 18 -30
v 10 22 -30
v 15 18 -30
v 15 22 -30
v 10 18 -40
v 10 22 -40
v 10 18 -35
v 10 22 -35
v 20 18 -40
v 20 18 -35
v 15 18 -40
v 20 22 -40
v 20 22 -35
v 15 22 -40
f 466 470 468 467 469 465
f 468 474 472 471 473 467
f 469 467 473 471 477 475 476 465
f 478 479 466 465 476 475
f 474 468 470 466 479 478 480 472
f 472 480 478 475 477 471
g Offices
v 80 18 -30
v 80 22 -30
v 70 18 -30
v 70 22 -30
v 75 18 -30
v 75 22 -30
v 70 18 -40
v 70 22 -40
v 70 18 -35
v 70 22 -35
v 80 18 -40
v 80 18 -35
v 75 18 -40
v 80 22 -40
v 80 22 -35
v 75 22 -40
f 482 486 484 483 485 481
f 484 490 488 487 489 483
f 485 483 489 487 493 491 492 481
f 494 495 482 481 492 491
f 490 484 486 482 495 494 496 488
f 488 496 494 491 493 487
g Offices
v 70 18 -30
v 70 22 -30
v 60 18 -30
v 60 22 -30
v 65 18 -30
v 65 22 -30
v 60 18 -40
v 60 22 -40
v 60 18 -35
v 60 22 -35
v 70 18 -40
v 70 18 -35
v 65 18 -40
v 70 22 -40
v 70 22 -35
v 65 22 -40
f 498 502 500 499 501 497
f 500 506 504 503 505 499
f 501 499 505 503 509 507 508 497
f 510 511 498 497 508 507
f 506 500 502 498 511 510 512 504
f 504 512 510 507 509 503
g Offices
v 40 18 -20
v 40 22 -20
v 30 18 -20
v 30 22 -20
v 35 18 -20
v 35 22 -20
v 30 18 -30
v 30 22 -30
v 30 18 -25
v 30 22 -25
v 40 18 -30
v 40 18 -25
v 35 18 -30
v 40 22 -30
v 40 22 -25
v 35 22 -30
f 514 518 516 515 517 513
f 516 522 520 519 521 515
f 517 515 521 519 525 523 524 513
f 526 527 514 513 524 523
f 522 516 518 514 527 526 528 520
f 520 528 526 523 525 519
g Offices
v 30 18 -20
v 30 22 -20
v 20 18 -20
v 20 22 -20
v 25 18 -20
v 25 22 -20
v 20 18 -30
v 20 22 -30
v 20 18 -25
v 20 22 -25
v 30 18 -30
v 30 18 -25
v 25 18 -30
v 30 22 -30
v 30 22 -25
v 25 22 -30
f 530 534 532 531 533 529
f 532 538 536 535 537 531
f 533 531 537 535 541 539 540 529
f 542 543 530 529 540 539
f 538 532 534 530 543 542 544 536
f 536 544 542 539 541 535
g Offices
v 20 18 -20
v 20 22 -20
v 10 18 -20
v 10 22 -20
v 15 18 -20
v 15 22 -20
v 10 18 -30
v 10 22 -30
v 10 18 -25
v 10 22 -25
v 20 18 -30
v 20 18 -25
v 15 18 -30
v 20 22 -30
v 20 22 -25
v 15 22 -30
f 546 550 548 547 549 545
f 548 554 552 551 553 547
f 549 547 553 551 557 555 556 545
f 558 559 546 545 556 555
f 554 548 550 546 559 558 560 552
f 552 560 558 555 557 551
g Offices
v 80 18 -20
v 80 22 -20
v 70 18 -20
v 70 22 -20
v 75 18 -20
v 75 22 -20
v 70 18 -30
v 70 22 -30
v 70 18 -25
v 70 22 -25
v 80 18 -30
v 80 18 -25
v 75 18 -30
v 80 22 -30
v 80 22 -25
v 75 22 -30
f 562 566 564 563 565 561
f 564 570 568 567 569 563
f 565 563 569 567 573 571 572 561
f 574 575 562 561 572 571
f 570 564 566 562 575 574 576 568
f 568 576 574 571 573 567
g Offices
v 70 18 -20
v 70 22 -20
v 60 18 -20
v 60 22 -20
v 65 18 -20
v 65 22 -20
v 60 18 -30
v 60 22 -30
v 60 18 -25
v 60 22 -25
v 70 18 -30
v 70 18 -25
v 65 18 -30
v 70 22 -30
v 70 22 -25
v 65 22 -30
f 578 582 580 579 581 577
f 580 586 584 583 585 579
f 581 579 585 583 589 587 588 577
f 590 591 578 577 588 587
f 586 580 582 578 591 590 592 584
f 584 592 590 587 589 583
g Offices
v 50 18 -20
v 50 22 -20
v 40 18 -20
v 40 22 -20
v 45 18 -20
v 45 22 -20
v 50 18 -30
v 50 22 -30
v 50 18 -25
v 50 22 -25
v 40 18 -30
v 40 18 -25
v 45 18 -30
v 40 22 -30
v 40 22 -25
v 45 22 -30
f 594 598 596 595 597 593
f 600 602 594 593 601 599
f 597 595 604 603 605 599 601 593
f 607 596 598 594 602 600 608 606
f 596 607 606 603 604 595
f 606 608 600 599 605 603
g Offices
v 60 18 -20
v 60 22 -20
v 50 18 -20
v 50 22 -20
v 55 18 -20
v 55 22 -20
v 60 18 -30
v 60 22 -30
v 60 18 -25
v 60 22 -25
v 50 18 -30
v 50 18 -25
v 55 18 -30
v 50 22 -30
v 50 22 -25
v 55 22 -30
f 610 614 612 611 613 609
f 616 618 610 609 617 615
f 613 611 620 619 621 615 617 609
f 623 612 614 610 618 616 624 622
f 612 623 622 619 620 611
f 622 624 616 615 621 619
g Offices
v 60 22 -30
v 60 26 -30
v 50 22 -30
v 50 26 -30
v 55 22 -30
v 55 26 -30
v 60 22 -40
v 60 26 -40
v 60 22 -35
v 60 26 -35
v 50 22 -40
v 50 22 -35
v 55 22 -40
v 50 26 -40
v 50 26 -35
v 55 26 -40
f 626 630 628 627 629 625
f 632 634 626 625 633 631
f 629 627 636 635 637 631 633 625
f 639 628 630 626 634 632 640 638
f 628 639 638 635 636 627
f 638 640 632 631 637 635
g Offices
v 40 22 -30
v 40 26 -30
v 30 22 -30
v 30 26 -30
v 35 22 -30
v 35 26 -30
v 30 22 -40
v 30 26 -40
v 30 22 -35
v 30 26 -35
v 40 22 -40
v 40 22 -35
v 35 22 -40
v 40 26 -40
v 40 26 -35
v 35 26 -40
f 642 646 644 643 645 641
f 644 650 648 647 649 643
f 645 643 649 647 653 651 652 641
f 654 655 642 641 652 651
f 650 644 646 642 655 654 656 648
f 648 656 654 651 653 647
g Offices
v 30 22 -30
v 30 26 -30
v 20 22 -30
v 20 26 -30
v 25 22 -30
v 25 26 -30
v 20 22 -40
v 20 26 -40
v 20 22 -35
v 20 26 -35
v 30 22 -40
v 30 22 -35
v 25 22 -40
v 30 26 -40
v 30 26 -35
v 25 26 -40
f 658 662 660 659 661 657
f 660 666 664 663 665 659
f 661 659 665 663 669 667 668 657
f 670 671 658 657 668 667
f 666 660 662 658 671 670 672 664
f 664 672 670 667 669 663
g Offices
v 20 22 -30
v 20 26 -30
v 10 22 -30
v 10 26 -30
v 15 22 -30
v 15 26 -30
v 10 22 -40
v 10 26 -40
v 10 22 -35
v 10 26 -35
v 20 22 -40
v 20 22 -35
v 15 22 -40
v 20 26 -40
v 20 26 -35
v 15 26 -40
f 674 678 676 675 677 673
f 676 682 680 679 681 675
f 677 675 681 679 685 683 684 673
f 686 687 674 673 684 683
f 682 676 678 674 687 686 688 680
f 680 688 686 683 685 679
g Offices
v 80 22 -30
v 80 26 -30
v 70 22 -30
v 70 26 -30
v 75 22 -30
v 75 26 -30
v 70 22 -40
v 70 26 -40
v 70 22 -35
v 70 26 -35
v 80 22 -40
v 80 22 -35
v 75 22 -40
v 80 26 -40
v 80 26 -35
v 75 26 -40
f 690 694 692 691 693 689
f 692 698 696 695 697 691
f 693 691 697 695 701 699 700 689
f 702 703 690 689 700 699
f 698 692 694 690 703 702 704 696
f 696 704 702 699 701 695
g Offices
v 70 22 -30
v 70 26 -30
v 60 22 -30
v 60 26 -30
v 65 22 -30
v 65 26 -30
v 60 22 -40
v 60 26 -40
v 60 22 -35
v 60 26 -35
v 70 22 -40
v 70 22 -35
v 65 22 -40
v 70 26 -40
v 70 26 -35
v 65 26 -40
f 706 710 708 707 709 705
f 708 714 712 711 713 707
f 709 707 713 711 717 715 716 705
f 718 719 706 705 716 715
f 714 708 710 706 719 718 720 712
f 712 720 718 715 717 711
g Offices
v 40 22 -20
v 40 26 -20
v 30 22 -20
v 30 26 -20
v 35 22 -20
v 35 26 -20
v 30 22 -30
v 30 26 -30
v 30 22 -25
v 30 26 -25
v 40 22 -30
v 40 22 -25
v 35 22 -30
v 40 26 -30
v 40 26 -25
v 35 26 -30
f 722 726 724 723 725 721
f 724 730 728 727 729 723
f 725 723 729 727 733 731 732 721
f 734 735 722 721 732 731
f 730 724 726 722 735 734 736 728
f 728 736 734 731 733 727
g Offices
v 30 22 -20
v 30 26 -20
v 20 22 -20
v 20 26 -20
v 25 22 -20
v 25 26 -20
v 20 22 -30
v 20 26 -30
v 20 22 -25
v 20 26 -25
v 30 22 -30
v 30 22 -25
v 25 22 -30
v 30 26 -30
v 30 26 -25
v 25 26 -30
f 738 742 740 739 741 737
f 740 746 744 743 745 739
f 741 739 745 743 749 747 748 737
f 750 751 738 737 748 747
f 746 740 742 738 751 750 752 744
f 744 752 750 747 749 743
g Offices
v 20 22 -20
v 20 26 -20
v 10 22 -20
v 10 26 -20
v 15 22 -20
v 15 26 -20
v 10 22 -30
v 10 26 -30
v 10 22 -25
v 10 26 -25
v 20 22 -30
v 20 22 -25
v 15 22 -30
v 20 26 -30
v 20 26 -25
v 15 26 -30
f 754 758 756 755 757 753
f 756 762 760 759 761 755
f 757 755 761 759 765 763 764 753
f 766 767 754 753 764 763
f 762 756 758 754 767 766 768 760
f 760 768 766 763 765 759
g Offices
v 80 22 -20
v 80 26 -20
v 70 22 -20
v 70 26 -20
v 75 22 -20
v 75 26 -20
v 70 22 -30
v 70 26 -30
v 70 22 -25
v 70 26 -25
v 80 22 -30
v 80 22 -25
v 75 22 -30
v 80 26 -30
v 80 26 -25
v 75 26 -30
f 770 774 772 771 773 769
f 772 778 776 775 777 771
f 773 771 777 775 781 779 780 769
f 782 783 770 769 780 779
f 778 772 774 770 783 782 784 776
f 776 784 782 779 781 775
g Offices
v 70 22 -20
v 70 26 -20
v 60 22 -20
v 60 26 -20
v 65 22 -20
v 65 26 -20
v 60 22 -30
v 60 26 -30
v 60 22 -25
v 60 26 -25
v 70 22 -30
v 70 22 -25
v 65 22 -30
v 70 26 -30
v 70 26 -25
v 65 26 -30
f 786 790 788 787 789 785
f 788 794 792 791 793 787
f 789 787 793 791 797 795 796 785
f 798 799 786 785 796 795
f 794 788 790 786 799 798 800 792
f 792 800 798 795 797 791
g Offices
v 50 22 -20
v 50 26 -20
v 40 22 -20
v 40 26 -20
v 45 22 -20
v 45 26 -20
v 50 22 -30
v 50 26 -30
v 50 22 -25
v 50 26 -25
v 40 22 -30
v 40 22 -25
v 45 22 -30
v 40 26 -30
v 40 26 -25
v 45 26 -30
f 802 806 804 803 805 801
f 808 810 802 801 809 807
f 805 803 812 811 813 807 809 801
f 815 804 806 802 810 808 816 814
f 804 815 814 811 812 803
f 814 816 808 807 813 811
g Offices
v 60 22 -20
v 60 26 -20
v 50 22 -20
v 50 26 -20
v 55 22 -20
v 55 26 -20
v 60 22 -30
v 60 26 -30
v 60 22 -25
v 60 26 -25
v 50 22 -30
v 50 22 -25
v 55 22 -30
v 50 26 -30
v 50 26 -25
v 55 26 -30
f 818 822 820 819 821 817
f 824 826 818 817 825 823
f 821 819 828 827 829 823 825 817
f 831 820 822 818 826 824 832 830
f 820 831 830 827 828 819
f 830 832 824 823 829 827
g Offices
v 60 26 -30
v 60 30 -30
v 50 26 -30
v 50 30 -30
v 55 26 -30
v 55 30 -30
v 60 26 -40
v 60 30 -40
v 60 26 -35
v 60 30 -35
v 50 26 -40
v 50 26 -35
v 55 26 -40
v 50 30 -40
v 50 30 -35
v 55 30 -40
f 834 838 836 835 837 833
f 840 842 834 833 841 839
f 837 835 844 843 845 839 841 833
f 847 836 838 834 842 840 848 846
f 836 847 846 843 844 835
f 846 848 840 839 845 843
g Offices
v 40 26 -30
v 40 30 -30
v 30 26 -30
v 30 30 -30
v 35 26 -30
v 35 30 -30
v 30 26 -40
v 30 30 -40
v 30 26 -35
v 30 30 -35
v 40 26 -40
v 40 26 -35
v 35 26 -40
v 40 30 -40
v 40 30 -35
v 35 30 -40
f 850 854 852 851 853 849
f 852 858 856 855 857 851
f 853 851 857 855 861 859 860 849
f 862 863 850 849 860 859
f 858 852 854 850 863 862 864 856
f 856 864 862 859 861 855
g Offices
v 30 26 -30
v 30 30 -30
v 20 26 -30
v 20 30 -30
v 25 26 -30
v 25 30 -30
v 20 26 -40
v 20 30 -40
v 20 26 -35
v 20 30 -35
v 30 26 -40
v 30 26 -35
v 25 26 -40
v 30 30 -40
v 30 30 -35
v 25 30 -40
f 866 870 868 867 869 865
f 868 874 872 871 873 867
f 869 867 873 871 877 875 876 865
f 878 879 866 865 876 875
f 874 868 870 866 879 878 880 872
f 872 880 878 875 877 871
g Offices
v 20 26 -30
v 20 30 -30
v 10 26 -30
v 10 30 -30
v 15 26 -30
v 15 30 -30
v 10 26 -40
v 10 30 -40
v 10 26 -35
v 10 30 -35
v 20 26 -40
v 20 26 -35
v 15 26 -40
v 20 30 -40
v 20 30 -35
v 15 30 -40
f 882 886 884 883 885 881
f 884 890 888 887 889 883
f 885 883 889 887 893 891 892 881
f 894 895 882 881 892 891
f 890 884 886 882 895 894 896 888
f 888 896 894 891 893 887
g Offices
v 80 26 -30
v 80 30 -30
v 70 26 -30
v 70 30 -30
v 75 26 -30
v 75 30 -30
v 70 26 -40
v 70 30 -40
v 70 26 -35
v 70 30 -35
v 80 26 -40
v 80 26 -35
v 75 26 -40
v 80 30 -40
v 80 30 -35
v 75 30 -40
f 898 902 900 899 901 897
f 900 906 904 903 905 899
f 901 899 905 903 909 907 908 897
f 910 911 898 897 908 907
f 906 900 902 898 911 910 912 904
f 904 912 910 907 909 903
g Offices
v 70 26 -30
v 70 30 -30
v 60 26 -30
v 60 30 -30
v 65 26 -30
v 65 30 -30
v 60 26 -40
v 60 30 -40
v 60 26 -35
v 60 30 -35
v 70 26 -40
v 70 26 -35
v 65 26 -40
v 70 30 -40
v 70 30 -35
v 65 30 -40
f 914 918 916 915 917 913
f 916 922 920 919 921 915
f 917 915 921 919 925 923 924 913
f 926 927 914 913 924 923
f 922 916 918 914 927 926 928 920
f 920 928 926 923 925 919
g Offices
v 40 26 -20
v 40 30 -20
v 30 26 -20
v 30 30 -20
v 35 26 -20
v 35 30 -20
v 30 26 -30
v 30 30 -30
v 30 26 -25
v 30 30 -25
v 40 26 -30
v 40 26 -25
v 35 26 -30
v 40 30 -30
v 40 30 -25
v 35 30 -30
f 930 934 932 931 933 929
f 932 938 936 935 937 931
f 933 931 937 935 941 939 940 929
f 942 943 930 929 940 939
f 938 932 934 930 943 942 944 936
f 936 944 942 939 941 935
g Offices
v 30 26 -20
v 30 30 -20
v 20 26 -20
v 20 30 -20
v 25 26 -20
v 25 30 -20
v 20 26 -30
v 20 30 -30
v 20 26 -25
v 20 30 -25
v 30 26 -30
v 30 26 -25
v 25 26 -30
v 30 30 -30
v 30 30 -25
v 25 30 -30
f 946 950 948 947 949 945
f 948 954 952 951 953 947
f 949 947 953 951 957 955 956 945
f 958 959 946 945 956 955
f 954 948 950 946 959 958 960 952
f 952 960 958 955 957 951
g Offices
v 20 26 -20
v 20 30 -20
v 10 26 -20
v 10 30 -20
v 15 26 -20
v 15 30 -20
v 10 26 -30
v 10 30 -30
v 10 26 -25
v 10 30 -25
v 20 26 -30
v 20 26 -25
v 15 26 -30
v 20 30 -30
v 20 30 -25
v 15 30 -30
f 962 966 964 963 965 961
f 964 970 968 967 969 963
f 965 963 969 967 973 971 972 961
f 974 975 962 961 972 971
f 970 964 966 962 975 974 976 968
f 968 976 974 971 973 967
g Offices
v 80 26 -20
v 80 30 -20
v 70 26 -20
v 70 30 -20
v 75 26 -20
v 75 30 -20
v 70 26 -30
v 70 30 -30
v 70 26 -25
v 70 30 -25
v 80 26 -30
v 80 26 -25
v 75 26 -30
v 80 30 -30
v 80 30 -25
v 75 30 -30
f 978 982 980 979 981 977
f 980 986 984 983 985 979
f 981 979 985 983 989 987 988 977
f 990 991 978 977 988 987
f 986 980 982 978 991 990 992 984
f 984 992 990 987 989 983
g Offices
v 70 26 -20
v 70 30 -20
v 60 26 -20
v 60 30 -20
v 65 26 -20
v 65 30 -20
v 60 26 -30
v 60 30 -30
v 60 26 -25
v 60 30 -25
v 70 26 -30
v 70 26 -25
v 65 26 -30
v 70 30 -30
v 70 30 -25
v 65 30 -30
f 994 998 996 995 997 993
f 996 1002 1000 999 1001 995
f 997 995 1001 999 1005 1003 1004 993
f 1006 1007 994 993 1004 1003
f 1002 996 998 994 1007 1006 1008 1000
f 1000 1008 1006 1003 1005 999
g Offices
v 50 26 -20
v 50 30 -20
v 40 26 -20
v 40 30 -20
v 45 26 -20
v 45 30 -20
v 50 26 -30
v 50 30 -30
v 50 26 -25
v 50 30 -25
v 40 26 -30
v 40 26 -25
v 45 26 -30
v 40 30 -30
v 40 30 -25
v 45 30 -30
f 1010 1014 1012 1011 1013 1009
f 1016 1018 1010 1009 1017 1015
f 1013 1011 1020 1019 1021 1015 1017 1009
f 1023 1012 1014 1010 1018 1016 1024 1022
f 1012 1023 1022 1019 1020 1011
f 1022 1024 1016 1015 1021 1019
g Offices
v 60 26 -20
v 60 30 -20
v 50 26 -20
v 50 30 -20
v 55 26 -20
v 55 30 -20
v 60 26 -30
v 60 30 -30
v 60 26 -25
v 60 30 -25
v 50 26 -30
v 50 26 -25
v 55 26 -30
v 50 30 -30
v 50 30 -25
v 55 30 -30
f 1026 1030 1028 1027 1029 1025
f 1032 1034 1026 1025 1033 1031
f 1029 1027 1036 1035 1037 1031 1033 1025
f 1039 1028 1030 1026 1034 1032 1040 1038
f 1028 1039 1038 1035 1036 1027
f 1038 1040 1032 1031 1037 1035
g Offices
v 60 30 -30
v 60 34 -30
v 50 30 -30
v 50 34 -30
v 55 30 -30
v 55 34 -30
v 60 30 -40
v 60 34 -40
v 60 30 -35
v 60 34 -35
v 50 30 -40
v 50 30 -35
v 55 30 -40
v 50 34 -40
v 50 34 -35
v 55 34 -40
f 1042 1046 1044 1043 1045 1041
f 1048 1050 1042 1041 1049 1047
f 1045 1043 1052 1051 1053 1047 1049 1041
f 1055 1044 1046 1042 1050 1048 1056 1054
f 1044 1055 1054 1051 1052 1043
f 1054 1056 1048 1047 1053 1051
g Offices
v 40 30 -30
v 40 34 -30
v 30 30 -30
v 30 34 -30
v 35 30 -30
v 35 34 -30
v 30 30 -40
v 30 34 -40
v 30 30 -35
v 30 34 -35
v 40 30 -40
v 40 30 -35
v 35 30 -40
v 40 34 -40
v 40 34 -35
v 35 34 -40
f 1058 1062 1060 1059 1061 1057
f 1060 1066 1064 1063 1065 1059
f 1061 1059 1065 1063 1069 1067 1068 1057
f 1070 1071 1058 1057 1068 1067
f 1066 1060 1062 1058 1071 1070 1072 1064
f 1064 1072 1070 1067 1069 1063
g Offices
v 30 30 -30
v 30 34 -30
v 20 30 -30
v 20 34 -30
v 25 30 -30
v 25 34 -30
v 20 30 -40
v 20 34 -40
v 20 30 -35
v 20 34 -35
v 30 30 -40
v 30 30 -35
v 25 30 -40
v 30 34 -40
v 30 34 -35
v 25 34 -40
f 1074 1078 1076 1075 1077 1073
f 1076 1082 1080 1079 1081 1075
f 1077 1075 1081 1079 1085 1083 1084 1073
f 1086 1087 1074 1073 1084 1083
f 1082 1076 1078 1074 1087 1086 1088 1080
f 1080 1088 1086 1083 1085 1079
g Offices
v 20 30 -30
v 20 34 -30
v 10 30 -30
v 10 34 -30
v 15 30 -30
v 15 34 -30
v 10 30 -40
v 10 34 -40
v 10 30 -35
v 10 34 -35
v 20 30 -40
v 20 30 -35
v 15 30 -40
v 20 34 -40
v 20 34 -35
v 15 34 -40
f 1090 1094 1092 1091 1093 1089
f 1092 1098 1096 1095 1097 1091
f 1093 1091 1097 1095 1101 1099 1100 1089
f 1102 1103 1090 1089 1100 1099
f 1098 1092 1094 1090 1103 1102 1104 1096
f 1096 1104 1102 1099 1101 1095
g Offices
v 80 30 -30
v 80 34 -30
v 70 30 -30
v 70 34 -30
v 75 30 -30
v 75 34 -30
v 70 30 -40
v 70 34 -40
v 70 30 -35
v 70 34 -35
v 80 30 -40
v 80 30 -35
v 75 30 -40
v 80 34 -40
v 80 34 -35
v 75 34 -40
f 1106 1110 1108 1107 1109 1105
f 1108 1114 1112 1111 1113 1107
f 1109 1107 1113 1111 1117 1115 1116 1105
f 1118 1119 1106 1105 1116 1115
f 1114 1108 1110 1106 1119 1118 1120 1112
f 1112 1120 1118 1115 1117 1111
g Offices
v 70 30 -30
v 70 34 -30
v 60 30 -30
v 60 34 -30
v 65 30 -30
v 65 34 -30
v 60 30 -40
v 60 34 -40
v 60 30 -35
v 60 34 -35
v 70 30 -40
v 70 30 -35
v 65 30 -40
v 70 34 -40
v 70 34 -35
v 65 34 -40
f 1122 1126 1124 1123 1125 1121
f 1124 1130 1128 1127 1129 1123
f 1125 1123 1129 1127 1133 1131 1132 1121
f 1134 1135 1122 1121 1132 1131
f 1130 1124 1126 1122 1135 1134 1136 1128
f 1128 1136 1134 1131 1133 1127
g Offices
v 40 30 -20
v 40 34 -20
v 30 30 -20
v 30 34 -20
v 35 30 -20
v 35 34 -20
v 30 30 -30
v 30 34 -30
v 30 30 -25
v 30 34 -25
v 40 30 -30
v 40 30 -25
v 35 30 -30
v 40 34 -30
v 40 34 -25
v 35 34 -30
f 1138 1142 1140 1139 1141 1137
f 1140 1146 1144 1143 1145 1139
f 1141 1139 1145 1143 1149 1147 1148 1137
f 1150 1151 1138 1137 1148 1147
f 1146 1140 1142 1138 1151 1150 1152 1144
f 1144 1152 1150 1147 1149 1143
g Offices
v 30 30 -20
v 30 34 -20
v 20 30 -20
v 20 34 -20
v 25 30 -20
v 25 34 -20
v 20 30 -30
v 20 34 -30
v 20 30 -25
v 20 34 -25
v 30 30 -30
v 30 30 -25
v 25 30 -30
v 30 34 -30
v 30 34 -25
v 25 34 -30
f 1154 1158 1156 1155 1157 1153
f 1156 1162 1160 1159 1161 1155
f 1157 1155 1161 1159 1165 1163 1164 1153
f 1166 1167 1154 1153 1164 1163
f 1162 1156 1158 1154 1167 1166 1168 1160
f 1160 1168 1166 1163 1165 1159
g Offices
v 20 30 -20
v 20 34 -20
v 10 30 -20
v 10 34 -20
v 15 30 -20
v 15 34 -20
v 10 30 -30
v 10 34 -30
v 10 30 -25
v 10 34 -25
v 20 30 -30
v 20 30 -25
v 15 30 -30
v 20 34 -30
v 20 34 -25
v 15 34 -30
f 1170 1174 1172 1171 1173 1169
f 1172 1178 1176 1175 1177 1171
f 1173 1171 1177 1175 1181 1179 1180 1169
f 1182 1183 1170 1169 1180 1179
f 1178 1172 1174 1170 1183 1182 1184 1176
f 1176 1184 1182 1179 1181 1175
g Offices
v 80 30 -20
v 80 34 -20
v 70 30 -20
v 70 34 -20
v 75 30 -20
v 75 34 -20
v 70 30 -30
v 70 34 -30
v 70 30 -25
v 70 34 -25
v 80 30 -30
v 80 30 -25
v 75 30 -30
v 80 34 -30
v 80 34 -25
v 75 34 -30
f 1186 1190 1188 1187 1189 1185
f 1188 1194 1192 1191 1193 1187
f 1189 1187 1193 1191 1197 1195 1196 1185
f 1198 1199 1186 1185 1196 1195
f 1194 1188 1190 1186 1199 1198 1200 1192
f 1192 1200 1198 1195 1197 1191
g Offices
v 70 30 -20
v 70 34 -20
v 60 30 -20
v 60 34 -20
v 65 30 -20
v 65 34 -20
v 60 30 -30
v 60 34 -30
v 60 30 -25
v 60 34 -25
v 70 30 -30
v 70 30 -25
v 65 30 -30
v 70 34 -30
v 70 34 -25
v 65 34 -30
f 1202 1206 1204 1203 1205 1201
f 1204 1210 1208 1207 1209 1203
f 1205 1203 1209 1207 1213 1211 1212 1201
f 1214 1215 1202 1201 1212 1211
f 1210 1204 1206 1202 1215 1214 1216 1208
f 1208 1216 1214 1211 1213 1207
g Offices
v 50 30 -20
v 50 34 -20
v 40 30 -20
v 40 34 -20
v 45 30 -20
v 45 34 -20
v 50 30 -30
v 50 34 -30
v 50 30 -25
v 50 34 -25
v 40 30 -30
v 40 30 -25
v 45 30 -30
v 40 34 -30
v 40 34 -25
v 45 34 -30
f 1218 1222 1220 1219 1221 1217
f 1224 1226 1218 1217 1225 1223
f 1221 1219 1228 1227 1229 1223 1225 1217
f 1231 1220 1222 1218 1226 1224 1232 1230
f 1220 1231 1230 1227 1228 1219
f 1230 1232 1224 1223 1229 1227
g Offices
v 60 30 -20
v 60 34 -20
v 50 30 -20
v 50 34 -20
v 55 30 -20
v 55 34 -20
v 60 30 -30
v 60 34 -30
v 60 30 -25
v 60 34 -25
v 50 30 -30
v 50 30 -25
v 55 30 -30
v 50 34 -30
v 50 34 -25
v 55 34 -30
f 1234 1238 1236 1235 1237 1233
f 1240 1242 1234 1233 1241 1239
f 1237 1235 1244 1243 1245 1239 1241 1233
f 1247 1236 1238 1234 1242 1240 1248 1246
f 1236 1247 1246 1243 1244 1235
f 1246 1248 1240 1239 1245 1243
g Offices
v 60 34 -30
v 60 38 -30
v 50 34 -30
v 50 38 -30
v 55 34 -30
v 55 38 -30
v 60 34 -40
v 60 38 -40
v 60 34 -35
v 60 38 -35
v 50 34 -40
v 50 34 -35
v 55 34 -40
v 50 38 -40
v 50 38 -35
v 55 38 -40
f 1250 1254 1252 1251 1253 1249
f 1256 1258 1250 1249 1257 1255
f 1253 1251 1260 1259 1261 1255 1257 1249
f 1263 1252 1254 1250 1258 1256 1264 1262
f 1252 1263 1262 1259 1260 1251
f 1262 1264 1256 1255 1261 1259
g Offices
v 40 34 -30
v 40 38 -30
v 30 34 -30
v 30 38 -30
v 35 34 -30
v 35 38 -30
v 30 34 -40
v 30 38 -40
v 30 34 -35
v 30 38 -35
v 40 34 -40
v 40 34 -35
v 35 34 -40
v 40 38 -40
v 40 38 -35
v 35 38 -40
f 1266 1270 1268 1267 1269 1265
f 1268 1274 1272 1271 1273 1267
f 1269 1267 1273 1271 1277 1275 1276 1265
f 1278 1279 1266 1265 1276 1275
f 1274 1268 1270 1266 1279 1278 1280 1272
f 1272 1280 1278 1275 1277 1271
g Offices
v 30 34 -30
v 30 38 -30
v 20 34 -30
v 20 38 -30
v 25 34 -30
v 25 38 -30
v 20 34 -40
v 20 38 -40
v 20 34 -35
v 20 38 -35
v 30 34 -40
v 30 34 -35
v 25 34 -40
v 30 38 -40
v 30 38 -35
v 25 38 -40
f 1282 1286 1284 1283 1285 1281
f 1284 1290 1288 1287 1289 1283
f 1285 1283 1289 1287 1293 1291 1292 1281
f 1294 1295 1282 1281 1292 1291
f 1290 1284 1286 1282 1295 1294 1296 1288
f 1288 1296 1294 1291 1293 1287
g Offices
v 20 34 -30
v 20 38 -30
v 10 34 -30
v 10 38 -30
v 15 34 -30
v 15 38 -30
v 10 34 -40
v 10 38 -40
v 10 34 -35
v 10 38 -35
v 20 34 -40
v 20 34 -35
v 15 34 -40
v 20 38 -40
v 20 38 -35
v 15 38 -40
f 1298 1302 1300 1299 1301 1297
f 1300 1306 1304 1303 1305 1299
f 1301 1299 1305 1303 1309 1307 1308 1297
f 1310 1311 1298 1297 1308 1307
f 1306 1300 1302 1298 1311 1310 1312 1304
f 1304 1312 1310 1307 1309 1303
g Offices
v 80 34 -30
v 80 38 -30
v 70 34 -30
v 70 38 -30
v 75 34 -30
v 75 38 -30
v 70 34 -40
v 70 38 -40
v 70 34 -35
v 70 38 -35
v 80 34 -40
v 80 34 -35
v 75 34 -40
v 80 38 -40
v 80 38 -35
v 75 38 -40
f 1314 1318 1316 1315 1317 1313
f 1316 1322 1320 1319 1321 1315
f 1317 1315 1321 1319 1325 1323 1324 1313
f 1326 1327 1314 1313 1324 1323
f 1322 1316 1318 1314 1327 1326 1328 1320
f 1320 1328 1326 1323 1325 1319
g Offices
v 70 34 -30
v 70 38 -30
v 60 34 -30
v 60 38 -30
v 65 34 -30
v 65 38 -30
v 60 34 -40
v 60 38 -40
v 60 34 -35
v 60 38 -35
v 70 34 -40
v 70 34 -35
v 65 34 -40
v 70 38 -40
v 70 38 -35
v 65 38 -40
f 1330 1334 1332 1331 1333 1329
f 1332 1338 1336 1335 1337 1331
f 1333 1331 1337 1335 1341 1339 1340 1329
f 1342 1343 1330 1329 1340 1339
f 1338 1332 1334 1330 1343 1342 1344 1336
f 1336 1344 1342 1339 1341 1335
g Offices
v 40 34 -20
v 40 38 -20
v 30 34 -20
v 30 38 -20
v 35 34 -20
v 35 38 -20
v 30 34 -30
v 30 38 -30
v 30 34 -25
v 30 38 -25
v 40 34 -30
v 40 34 -25
v 35 34 -30
v 40 38 -30
v 40 38 -25
v 35 38 -30
f 1346 1350 1348 1347 1349 1345
f 1348 1354 1352 1351 1353 1347
f 1349 1347 1353 1351 1357 1355 1356 1345
f 1358 1359 1346 1345 1356 1355
f 1354 1348 1350 1346 1359 1358 1360 1352
f 1352 1360 1358 1355 1357 1351
g Offices
v 30 34 -20
v 30 38 -20
v 20 34 -20
v 20 38 -20
v 25 34 -20
v 25 38 -20
v 20 34 -30
v 20 38 -30
v 20 34 -25
v 20 38 -25
v 30 34 -30
v 30 34 -25
v 25 34 -30
v 30 38 -30
v 30 38 -25
v 25 38 -30
f 1362 1366 1364 1363 1365 1361
f 1364 1370 1368 1367 1369 1363
f 1365 1363 1369 1367 1373 1371 1372 1361
f 1374 1375 1362 1361 1372 1371
f 1370 1364 1366 1362 1375 1374 1376 1368
f 1368 1376 1374 1371 1373 1367
g Offices
v 20 34 -20
v 20 38 -20
v 10 34 -20
v 10 38 -20
v 15 34 -20
v 15 38 -20
v 10 34 -30
v 10 38 -30
v 10 34 -25
v 10 38 -25
v 20 34 -30
v 20 34 -25
v 15 34 -30
v 20 38 -30
v 20 38 -25
v 15 38 -30
f 1378 1382 1380 1379 1381 1377
f 1380 1386 1384 1383 1385 1379
f 1381 1379 1385 1383 1389 1387 1388 1377
f 1390 1391 1378 1377 1388 1387
f 1386 1380 1382 1378 1391 1390 1392 1384
f 1384 1392 1390 1387 1389 1383
g Offices
v 80 34 -20
v 80 38 -20
v 70 34 -20
v 70 38 -20
v 75 34 -20
v 75 38 -20
v 70 34 -30
v 70 38 -30
v 70 34 -25
v 70 38 -25
v 80 34 -30
v 80 34 -25
v 75 34 -30
v 80 38 -30
v 80 38 -25
v 75 38 -30
f 1394 1398 1396 1395 1397 1393
f 1396 1402 1400 1399 1401 1395
f 1397 1395 1401 1399 1405 1403 1404 1393
f 1406 1407 1394 1393 1404 1403
f 1402 1396 1398 1394 1407 1406 1408 1400
f 1400 1408 1406 1403 1405 1399
g Offices
v 70 34 -20
v 70 38 -20
v 60 34 -20
v 60 38 -20
v 65 34 -20
v 65 38 -20
v 60 34 -30
v 60 38 -30
v 60 34 -25
v 60 38 -25
v 70 34 -30
v 70 34 -25
v 65 34 -30
v 70 38 -30
v 70 38 -25
v 65 38 -30
f 1410 1414 1412 1411 1413 1409
f 1412 1418 1416 1415 1417 1411
f 1413 1411 1417 1415 1421 1419 1420 1409
f 1422 1423 1410 1409 1420 1419
f 1418 1412 1414 1410 1423 1422 1424 1416
f 1416 1424 1422 1419 1421 1415
g Offices
v 50 34 -20
v 50 38 -20
v 40 34 -20
v 40 38 -20
v 45 34 -20
v 45 38 -20
v 50 34 -30
v 50 38 -30
v 50 34 -25
v 50 38 -25
v 40 34 -30
v 40 34 -25
v 45 34 -30
v 40 38 -30
v 40 38 -25
v 45 38 -30
f 1426 1430 1428 1427 1429 1425
f 1432 1434 1426 1425 1433 1431
f 1429 1427 1436 1435 1437 1431 1433 1425
f 1439 1428 1430 1426 1434 1432 1440 1438
f 1428 1439 1438 1435 1436 1427
f 1438 1440 1432 1431 1437 1435
g Offices
v 60 34 -20
v 60 38 -20
v 50 34 -20
v 50 38 -20
v 55 34 -20
v 55 38 -20
v 60 34 -30
v 60 38 -30
v 60 34 -25
v 60 38 -25
v 50 34 -30
v 50 34 -25
v 55 34 -30
v 50 38 -30
v 50 38 -25
v 55 38 -30
f 1442 1446 1444 1443 1445 1441
f 1448 1450 1442 1441 1449 1447
f 1445 1443 1452 1451 1453 1447 1449 1441
f 1455 1444 1446 1442 1450 1448 1456 1454
f 1444 1455 1454 1451 1452 1443
f 1454 1456 1448 1447 1453 1451
g Offices
v 40 38 -30
v 40 42 -30
v 30 38 -30
v 30 42 -30
v 35 38 -30
v 35 42 -30
v 30 38 -40
v 30 42 -40
v 30 38 -35
v 30 42 -35
v 40 38 -40
v 40 38 -35
v 35 38 -40
v 40 42 -40
v 40 42 -35
v 35 42 -40
f 1458 1462 1460 1459 1461 1457
f 1460 1466 1464 1463 1465 1459
f 1461 1459 1465 1463 1469 1467 1468 1457
f 1470 1471 1458 1457 1468 1467
f 1466 1460 1462 1458 1471 1470 1472 1464
f 1464 1472 1470 1467 1469 1463
g Offices
v 30 38 -30
v 30 42 -30
v 20 38 -30
v 20 42 -30
v 25 38 -30
v 25 42 -30
v 20 38 -40
v 20 42 -40
v 20 38 -35
v 20 42 -35
v 30 38 -40
v 30 38 -35
v 25 38 -40
v 30 42 -40
v 30 42 -35
v 25 42 -40
f 1474 1478 1476 1475 1477 1473
f 1476 1482 1480 1479 1481 1475
f 1477 1475 1481 1479 1485 1483 1484 1473
f 1486 1487 1474 1473 1484 1483
f 1482 1476 1478 1474 1487 1486 1488 1480
f 1480 1488 1486 1483 1485 1479
g Offices
v 20 38 -30
v 20 42 -30
v 10 38 -30
v 10 42 -30
v 15 38 -30
v 15 42 -30
v 10 38 -40
v 10 42 -40
v 10 38 -35
v 10 42 -35
v 20 38 -40
v 20 38 -35
v 15 38 -40
v 20 42 -40
v 20 42 -35
v 15 42 -40
f 1490 1494 1492 1491 1493 1489
f 1492 1498 1496 1495 1497 1491
f 1493 1491 1497 1495 1501 1499 1500 1489
f 1502 1503 1490 1489 1500 1499
f 1498 1492 1494 1490 1503 1502 1504 1496
f 1496 1504 1502 1499 1501 1495
g Offices
v 80 38 -30
v 80 42 -30
v 70 38 -30
v 70 42 -30
v 75 38 -30
v 75 42 -30
v 70 38 -40
v 70 42 -40
v 70 38 -35
v 70 42 -35
v 80 38 -40
v 80 38 -35
v 75 38 -40
v 80 42 -40
v 80 42 -35
v 75 42 -40
f 1506 1510 1508 1507 1509 1505
f 1508 1514 1512 1511 1513 1507
f 1509 1507 1513 1511 1517 1515 1516 1505
f 1518 1519 1506 1505 1516 1515
f 1514 1508 1510 1506 1519 1518 1520 1512
f 1512 1520 1518 1515 1517 1511
g Offices
v 70 38 -30
v 70 42 -30
v 60 38 -30
v 60 42 -30
v 65 38 -30
v 65 42 -30
v 60 38 -40
v 60 42 -40
v 60 38 -35
v 60 42 -35
v 70 38 -40
v 70 38 -35
v 65 38 -40
v 70 42 -40
v 70 42 -35
v 65 42 -40
f 1522 1526 1524 1523 1525 1521
f 1524 1530 1528 1527 1529 1523
f 1525 1523 1529 1527 1533 1531 1532 1521
f 1534 1535 1522 1521 1532 1531
f 1530 1524 1526 1522 1535 1534 1536 1528
f 1528 1536 1534 1531 1533 1527
g Offices
v 40 38 -20
v 40 42 -20
v 30 38 -20
v 30 42 -20
v 35 38 -20
v 35 42 -20
v 30 38 -30
v 30 42 -30
v 30 38 -25
v 30 42 -25
v 40 38 -30
v 40 38 -25
v 35 38 -30
v 40 42 -30
v 40 42 -25
v 35 42 -30
f 1538 1542 1540 1539 1541 1537
f 1540 1546 1544 1543 1545 1539
f 1541 1539 1545 1543 1549 1547 1548 1537
f 1550 1551 1538 1537 1548 1547
f 1546 1540 1542 1538 1551 1550 1552 1544
f 1544 1552 1550 1547 1549 1543
g Offices
v 30 38 -20
v 30 42 -20
v 20 38 -20
v 20 42 -20
v 25 38 -20
v 25 42 -20
v 20 38 -30
v 20 42 -30
v 20 38 -25
v 20 42 -25
v 30 38 -30
v 30 38 -25
v 25 38 -30
v 30 42 -30
v 30 42 -25
v 25 42 -30
f 1554 1558 1556 1555 1557 1553
f 1556 1562 1560 1559 1561 1555
f 1557 1555 1561 1559 1565 1563 1564 1553
f 1566 1567 1554 1553 1564 1563
f 1562 1556 1558 1554 1567 1566 1568 1560
f 1560 1568 1566 1563 1565 1559
g Offices
v 20 38 -20
v 20 42 -20
v 10 38 -20
v 10 42 -20
v 15 38 -20
v 15 42 -20
v 10 38 -30
v 10 42 -30
v 10 38 -25
v 10 42 -25
v 20 38 -30
v 20 38 -25
v 15 38 -30
v 20 42 -30
v 20 42 -25
v 15 42 -30
f 1570 1574 1572 1571 1573 1569
f 1572 1578 1576 1575 1577 1571
f 1573 1571 1577 1575 1581 1579 1580 1569
f 1582 1583 1570 1569 1580 1579
f 1578 1572 1574 1570 1583 1582 1584 1576
f 1576 1584 1582 1579 1581 1575
g Offices
v 80 38 -20
v 80 42 -20
v 70 38 -20
v 70 42 -20
v 75 38 -20
v 75 42 -20
v 70 38 -30
v 70 42 -30
v 70 38 -25
v 70 42 -25
v 80 38 -30
v 80 38 -25
v 75 38 -30
v 80 42 -30
v 80 42 -25
v 75 42 -30
f 1586 1590 1588 1587 1589 1585
f 1588 1594 1592 1591 1593 1587
f 1589 1587 1593 1591 1597 1595 1596 1585
f 1598 1599 1586 1585 1596 1595
f 1594 1588 1590 1586 1599 1598 1600 1592
f 1592 1600 1598 1595 1597 1591
g Offices
v 70 38 -20
v 70 42 -20
v 60 38 -20
v 60 42 -20
v 65 38 -20
v 65 42 -20
v 60 38 -30
v 60 42 -30
v 60 38 -25
v 60 42 -25
v 70 38 -30
v 70 38 -25
v 65 38 -30
v 70 42 -30
v 70 42 -25
v 65 42 -30
f 1602 1606 1604 1603 1605 1601
f 1604 1610 1608 1607 1609 1603
f 1605 1603 1609 1607 1613 1611 1612 1601
f 1614 1615 1602 1601 1612 1611
f 1610 1604 1606 1602 1615 1614 1616 1608
f 1608 1616 1614 1611 1613 1607
g Offices
v 50 38 -20
v 50 42 -20
v 40 38 -20
v 40 42 -20
v 45 38 -20
v 45 42 -20
v 50 38 -30
v 50 42 -30
v 50 38 -25
v 50 42 -25
v 40 38 -30
v 40 38 -25
v 45 38 -30
v 40 42 -30
v 40 42 -25
v 45 42 -30
f 1618 1622 1620 1619 1621 1617
f 1624 1626 1618 1617 1625 1623
f 1621 1619 1628 1627 1629 1623 1625 1617
f 1631 1620 1622 1618 1626 1624 1632 1630
f 1620 1631 1630 1627 1628 1619
f 1630 1632 1624 1623 1629 1627
g Offices
v 60 38 -20
v 60 42 -20
v 50 38 -20
v 50 42 -20
v 55 38 -20
v 55 42 -20
v 60 38 -30
v 60 42 -30
v 60 38 -25
v 60 42 -25
v 50 38 -30
v 50 38 -25
v 55 38 -30
v 50 42 -30
v 50 42 -25
v 55 42 -30
f 1634 1638 1636 1635 1637 1633
f 1640 1642 1634 1633 1641 1639
f 1637 1635 1644 1643 1645 1639 1641 1633
f 1647 1636 1638 1634 1642 1640 1648 1646
f 1636 1647 1646 1643 1644 1635
f 1646 1648 1640 1639 1645 1643
g Offices
v 60 38 -30
v 60 42 -30
v 50 38 -30
v 50 42 -30
v 55 38 -30
v 55 42 -30
v 60 38 -40
v 60 42 -40
v 60 38 -35
v 60 42 -35
v 50 38 -40
v 50 38 -35
v 55 38 -40
v 50 42 -40
v 50 42 -35
v 55 42 -40
f 1650 1654 1652 1651 1653 1649
f 1656 1658 1650 1649 1657 1655
f 1653 1651 1660 1659 1661 1655 1657 1649
f 1663 1652 1654 1650 1658 1656 1664 1662
f 1652 1663 1662 1659 1660 1651
f 1662 1664 1656 1655 1661 1659
