# Rhino

g Lobby_1
v 20 0 -8
v 20 0 -2.5
v 20 0 3
v 25 0 3
v 30 0 3
v 30 0 0.5
v 30 0 -2
v 27.5 0 -2
v 25 0 -2
v 25 0 -5
v 25 0 -8
v 22.5 0 -8
v 20 3.5 3
v 20 3.5 -8
v 20 3.5 -2.5
v 30 3.5 3
v 25 3.5 3
v 30 3.5 -2
v 30 3.5 0.5
v 25 3.5 -2
v 27.5 3.5 -2
v 25 3.5 -8
v 25 3.5 -5
v 22.5 3.5 -8
f 4 3 2 1 12 11 10 9 8 7 6 5
f 13 15 14 1 2 3
f 16 17 13 3 4 5
f 18 19 16 5 6 7
f 20 21 18 7 8 9
f 22 23 20 9 10 11
f 14 24 22 11 12 1
f 15 13 17 16 19 18 21 20 23 22 24 14
g Corridor_1
v 4 0 0
v 4 0 -2
v 20 0 0
v 20 0 -2
v 9.3333330154418945 0 0
v 14.666666984558105 0 0
v 14.666666984558105 0 -2
v 9.3333330154418945 0 -2
v 20 3.5 0
v 4 3.5 0
v 4 1.75 0
v 20 1.75 0
v 12 1.75 0
v 8 1.75 0
v 12 0.875 0
v 8 0.875 0
v 12 2.625 0
v 8 2.625 0
v 9.3333330154418945 3.5 0
v 14.666666984558105 3.5 0
v 16 1.75 0
v 16 2.625 0
v 16 0.875 0
v 20 3.5 -2
v 20 1.75 -2
v 4 3.5 -2
v 4 1.75 -2
v 12 1.75 -2
v 16 1.75 -2
v 12 0.875 -2
v 16 0.875 -2
v 12 2.625 -2
v 16 2.625 -2
v 14.666666984558105 3.5 -2
v 9.3333330154418945 3.5 -2
v 8 1.75 -2
v 8 2.625 -2
v 8 0.875 -2
f 25 26 32 31 28 27 30 29
f 44 43 34 35 25 29 30 27 36 33
f 36 27 28 49 48 33
f 59 58 48 49 28 31 32 26 51 50
f 51 26 25 35 34 50
f 34 43 44 33 48 58 59 50
g Corridor_2
v 30 0 0
v 30 0 -2
v 61 0 0
v 61 0 -2
v 37.75 0 0
v 45.5 0 0
v 53.25 0 0
v 53.25 0 -2
v 45.5 0 -2
v 37.75 0 -2
v 61 3.5 0
v 45.5 3.5 0
v 30 3.5 0
v 30 1.75 0
v 37.75 3.5 0
v 37.75 1.75 0
v 33.875 1.75 0
v 37.75 0.875 0
v 33.875 0.875 0
v 37.75 2.625 0
v 33.875 2.625 0
v 53.25 3.5 0
v 61 1.75 0
v 53.25 1.75 0
v 53.25 2.625 0
v 57.125 1.75 0
v 57.125 2.625 0
v 53.25 0.875 0
v 57.125 0.875 0
v 61 3.5 -2
v 61 1.75 -2
v 30 3.5 -2
v 45.5 3.5 -2
v 53.25 3.5 -2
v 53.25 1.75 -2
v 57.125 1.75 -2
v 53.25 0.875 -2
v 57.125 0.875 -2
v 53.25 2.625 -2
v 57.125 2.625 -2
v 37.75 3.5 -2
v 30 1.75 -2
v 37.75 1.75 -2
v 37.75 2.625 -2
v 33.875 1.75 -2
v 33.875 2.625 -2
v 37.75 0.875 -2
v 33.875 0.875 -2
f 67 63 64 72 71 70 66 65 69 68
f 84 74 77 75 76 63 67 68 69 65 85 73
f 85 65 66 93 92 73
f 103 95 96 92 93 66 70 71 72 64 104 94
f 104 64 63 76 75 94
f 103 94 75 77 74 84 73 92 96 95
g Bathroom_1
v 8 0 -2
v 8 0 -8
v 12 0 -2
v 12 0 -8
v 10 0 -2
v 12 0 -5
v 10 0 -8
v 8 0 -5
v 12 3.5 -2
v 8 3.5 -2
v 8 1.75 -2
v 10 3.5 -2
v 12 1.75 -2
v 12 3.5 -8
v 12 3.5 -5
v 12 1.75 -8
v 8 3.5 -8
v 10 3.5 -8
v 8 1.75 -8
v 8 3.5 -5
f 115 111 118 112 117 114 116 113
f 115 113 123 119 122 120 121 111
f 116 114 126 124 125 119 123 113
f 117 112 129 127 128 124 126 114
f 118 111 121 120 130 127 129 112
f 130 120 122 119 125 124 128 127
g Bathroom_3
v 58 0 -2
v 58 0 -8
v 61 0 -2
v 61 0 -8
v 59.5 0 -2
v 61 0 -5
v 59.5 0 -8
v 58 0 -5
v 61 3.5 -2
v 58 3.5 -2
v 58 1.75 -2
v 59.5 3.5 -2
v 61 1.75 -2
v 61 3.5 -8
v 61 3.5 -5
v 61 1.75 -8
v 58 3.5 -8
v 59.5 3.5 -8
v 58 1.75 -8
v 58 3.5 -5
f 135 131 138 132 137 134 136 133
f 135 133 143 139 142 140 141 131
f 136 134 146 144 145 139 143 133
f 137 132 149 147 148 144 146 134
f 138 131 141 140 150 147 149 132
f 150 140 142 139 145 144 148 147
g Bathroom_2
v 44 0 -2
v 44 0 -8
v 52 0 -2
v 52 0 -8
v 48 0 -2
v 52 0 -5
v 48 0 -8
v 44 0 -5
v 52 3.5 -2
v 44 3.5 -2
v 48 3.5 -2
v 52 3.5 -8
v 52 3.5 -5
v 44 3.5 -8
v 48 3.5 -8
v 44 3.5 -5
f 155 151 158 152 157 154 156 153
f 159 161 160 151 155 153
f 162 163 159 153 156 154
f 164 165 162 154 157 152
f 160 166 164 152 158 151
f 166 160 161 159 163 162 165 164
g Office_1
v 4 0 6
v 4 0 0
v 12 0 6
v 12 0 0
v 8 0 6
v 12 0 3
v 8 0 0
v 4 0 3
v 12 3.5 6
v 4 3.5 6
v 8 3.5 6
v 12 3.5 0
v 12 3.5 3
v 4 3.5 0
v 8 3.5 0
v 4 3.5 3
f 171 167 174 168 173 170 172 169
f 175 177 176 167 171 169
f 178 179 175 169 172 170
f 180 181 178 170 173 168
f 176 182 180 168 174 167
f 182 176 177 175 179 178 181 180
g Office_2
v 4 0 -2
v 4 0 -8
v 8 0 -2
v 8 0 -8
v 6 0 -2
v 8 0 -5
v 6 0 -8
v 4 0 -5
v 8 3.5 -2
v 4 3.5 -2
v 4 1.75 -2
v 6 3.5 -2
v 8 1.75 -2
v 8 3.5 -8
v 8 3.5 -5
v 8 1.75 -8
v 4 3.5 -8
v 6 3.5 -8
v 4 1.75 -8
v 4 3.5 -5
f 187 183 190 184 189 186 188 185
f 187 185 195 191 194 192 193 183
f 188 186 198 196 197 191 195 185
f 189 184 201 199 200 196 198 186
f 190 183 193 192 202 199 201 184
f 202 192 194 191 197 196 200 199
g Office_3
v 12 0 -2
v 12 0 -8
v 20 0 -2
v 20 0 -8
v 16 0 -2
v 20 0 -5
v 16 0 -8
v 12 0 -5
v 20 3.5 -2
v 12 3.5 -2
v 16 3.5 -2
v 20 3.5 -8
v 20 3.5 -5
v 12 3.5 -8
v 16 3.5 -8
v 12 3.5 -5
f 207 203 210 204 209 206 208 205
f 211 213 212 203 207 205
f 214 215 211 205 208 206
f 216 217 214 206 209 204
f 212 218 216 204 210 203
f 218 212 213 211 215 214 217 216
g Office_4
v 30 0 -2
v 30 0 -8
v 38 0 -2
v 38 0 -8
v 34 0 -2
v 38 0 -5
v 34 0 -8
v 30 0 -5
v 38 3.5 -2
v 30 3.5 -2
v 34 3.5 -2
v 38 3.5 -8
v 38 3.5 -5
v 30 3.5 -8
v 34 3.5 -8
v 30 3.5 -5
f 223 219 226 220 225 222 224 221
f 227 229 228 219 223 221
f 230 231 227 221 224 222
f 232 233 230 222 225 220
f 228 234 232 220 226 219
f 234 228 229 227 231 230 233 232
g Stair_1
v 0 0 0
v 0 0 -8
v 4 0 0
v 4 0 -8
v 2 0 0
v 4 0 -4
v 2 0 -8
v 0 0 -4
v 4 3.5 0
v 0 3.5 0
v 0 1.75 0
v 2 3.5 0
v 4 1.75 0
v 4 3.5 -8
v 4 3.5 -4
v 4 1.75 -8
v 0 3.5 -8
v 2 3.5 -8
v 0 1.75 -8
v 0 3.5 -4
f 239 235 242 236 241 238 240 237
f 239 237 247 243 246 244 245 235
f 240 238 250 248 249 243 247 237
f 241 236 253 251 252 248 250 238
f 242 235 245 244 254 251 253 236
f 254 244 246 243 249 248 252 251
g Stair_2
v 25 0 -2
v 25 0 -8
v 30 0 -2
v 30 0 -8
v 27.5 0 -2
v 30 0 -5
v 27.5 0 -8
v 25 0 -5
v 30 3.5 -2
v 25 3.5 -2
v 27.5 3.5 -2
v 30 3.5 -8
v 30 3.5 -5
v 25 3.5 -8
v 27.5 3.5 -8
v 25 3.5 -5
f 259 255 262 256 261 258 260 257
f 263 265 264 255 259 257
f 266 267 263 257 260 258
f 268 269 266 258 261 256
f 264 270 268 256 262 255
f 270 264 265 263 267 266 269 268
g Stair_3
v 61 0 0
v 61 0 -8
v 65 0 0
v 65 0 -8
v 63 0 0
v 65 0 -4
v 63 0 -8
v 61 0 -4
v 65 3.5 0
v 61 3.5 0
v 61 1.75 0
v 63 3.5 0
v 65 1.75 0
v 65 3.5 -8
v 65 3.5 -4
v 65 1.75 -8
v 61 3.5 -8
v 63 3.5 -8
v 61 1.75 -8
v 61 3.5 -4
f 275 271 278 272 277 274 276 273
f 275 273 283 279 282 280 281 271
f 276 274 286 284 285 279 283 273
f 277 272 289 287 288 284 286 274
f 278 271 281 280 290 287 289 272
f 290 280 282 279 285 284 288 287
g Classroom_1
v 30 0 5
v 30 0 0
v 37 0 5
v 37 0 0
v 33.5 0 5
v 37 0 2.5
v 33.5 0 0
v 30 0 2.5
v 37 3.5 5
v 30 3.5 5
v 33.5 3.5 5
v 37 3.5 0
v 37 3.5 2.5
v 30 3.5 0
v 33.5 3.5 0
v 30 3.5 2.5
f 295 291 298 292 297 294 296 293
f 299 301 300 291 295 293
f 302 303 299 293 296 294
f 304 305 302 294 297 292
f 300 306 304 292 298 291
f 306 300 301 299 303 302 305 304
g Classroom_2
v 37 0 5
v 37 0 0
v 44 0 5
v 44 0 0
v 40.5 0 5
v 44 0 2.5
v 40.5 0 0
v 37 0 2.5
v 44 3.5 5
v 37 3.5 5
v 40.5 3.5 5
v 44 3.5 0
v 44 3.5 2.5
v 37 3.5 0
v 40.5 3.5 0
v 37 3.5 2.5
f 311 307 314 308 313 310 312 309
f 315 317 316 307 311 309
f 318 319 315 309 312 310
f 320 321 318 310 313 308
f 316 322 320 308 314 307
f 322 316 317 315 319 318 321 320
g Classroom_3
v 44 0 5
v 44 0 0
v 51 0 5
v 51 0 0
v 47.5 0 5
v 51 0 2.5
v 47.5 0 0
v 44 0 2.5
v 51 3.5 5
v 44 3.5 5
v 47.5 3.5 5
v 51 3.5 0
v 51 3.5 2.5
v 44 3.5 0
v 47.5 3.5 0
v 44 3.5 2.5
f 327 323 330 324 329 326 328 325
f 331 333 332 323 327 325
f 334 335 331 325 328 326
f 336 337 334 326 329 324
f 332 338 336 324 330 323
f 338 332 333 331 335 334 337 336
g Classroom_4
v 51 0 5
v 51 0 0
v 58 0 5
v 58 0 0
v 54.5 0 5
v 58 0 2.5
v 54.5 0 0
v 51 0 2.5
v 58 3.5 5
v 51 3.5 5
v 54.5 3.5 5
v 58 3.5 0
v 58 3.5 2.5
v 51 3.5 0
v 54.5 3.5 0
v 51 3.5 2.5
f 343 339 346 340 345 342 344 341
f 347 349 348 339 343 341
f 350 351 347 341 344 342
f 352 353 350 342 345 340
f 348 354 352 340 346 339
f 354 348 349 347 351 350 353 352
g Classroom_5
v 58 0 5
v 58 0 0
v 65 0 5
v 65 0 0
v 61.5 0 5
v 65 0 2.5
v 61.5 0 0
v 58 0 2.5
v 65 3.5 5
v 58 3.5 5
v 61.5 3.5 5
v 65 3.5 0
v 65 3.5 2.5
v 58 3.5 0
v 61.5 3.5 0
v 58 3.5 2.5
f 359 355 362 356 361 358 360 357
f 363 365 364 355 359 357
f 366 367 363 357 360 358
f 368 369 366 358 361 356
f 364 370 368 356 362 355
f 370 364 365 363 367 366 369 368
