# Rhino

mtllib Layout_Apertures.mtl
usemtl Default
v 24.399999618530273 2.0999999046325684 3
v 24.399999618530273 0 3
v 25.600000381469727 2.0999999046325684 3
v 25.600000381469727 0 3
vt 0 0
vt 0 1
vt 1 0
vt 1 1
vn 0 0 -1
vn 0 0 -1
vn 0 0 -1
vn 0 0 -1
f 4/4/4 2/2/2 1/1/1 3/3/3
usemtl Default
v 28.299999237060547 2.0999999046325684 -2
v 28.299999237060547 0 -2
v 29.5 2.0999999046325684 -2
v 29.5 0 -2
vt 0 0
vt 0 1
vt 1 0
vt 1 1
vn 0 0 -1
vn 0 0 -1
vn 0 0 -1
vn 0 0 -1
f 8/8/8 6/6/6 5/5/5 7/7/7
usemtl Default
v 59.049999237060547 0 -2
v 59.049999237060547 2 -2
v 59.950000762939453 0 -2
v 59.950000762939453 2 -2
vt 0 0
vt 0 1
vt 1 0
vt 1 1
vn 0 0 1
vn 0 0 1
vn 0 0 1
vn 0 0 1
f 12/12/12 10/10/10 9/9/9 11/11/11
usemtl Default
v 30.200000762939453 2.0999999046325684 -2
v 30.200000762939453 0 -2
v 31.399999618530273 2.0999999046325684 -2
v 31.399999618530273 0 -2
vt 0 0
vt 0 1
vt 1 0
vt 1 1
vn 0 0 -1
vn 0 0 -1
vn 0 0 -1
vn 0 0 -1
f 16/16/16 14/14/14 13/13/13 15/15/15
usemtl Default
v 58.200000762939453 2.0999999046325684 0
v 58.200000762939453 0 0
v 59.400001525878906 2.0999999046325684 0
v 59.400001525878906 0 0
vt 0 0
vt 0 1
vt 1 0
vt 1 1
vn 0 0 -1
vn 0 0 -1
vn 0 0 -1
vn 0 0 -1
f 20/20/20 18/18/18 17/17/17 19/19/19
usemtl Default
v 51.200000762939453 2.0999999046325684 0
v 51.200000762939453 0 0
v 52.400001525878906 2.0999999046325684 0
v 52.400001525878906 0 0
vt 0 0
vt 0 1
vt 1 0
vt 1 1
vn 0 0 -1
vn 0 0 -1
vn 0 0 -1
vn 0 0 -1
f 24/24/24 22/22/22 21/21/21 23/23/23
usemtl Default
v 44.200000762939453 2.0999999046325684 0
v 44.200000762939453 0 0
v 45.400001525878906 2.0999999046325684 0
v 45.400001525878906 0 0
vt 0 0
vt 0 1
vt 1 0
vt 1 1
vn 0 0 -1
vn 0 0 -1
vn 0 0 -1
vn 0 0 -1
f 28/28/28 26/26/26 25/25/25 27/27/27
usemtl Default
v 37.200000762939453 2.0999999046325684 0
v 37.200000762939453 0 0
v 38.400001525878906 2.0999999046325684 0
v 38.400001525878906 0 0
vt 0 0
vt 0 1
vt 1 0
vt 1 1
vn 0 0 -1
vn 0 0 -1
vn 0 0 -1
vn 0 0 -1
f 32/32/32 30/30/30 29/29/29 31/31/31
usemtl Default
v 30.200000762939453 2.0999999046325684 0
v 30.200000762939453 0 0
v 31.399999618530273 2.0999999046325684 0
v 31.399999618530273 0 0
vt 0 0
vt 0 1
vt 1 0
vt 1 1
vn 0 0 -1
vn 0 0 -1
vn 0 0 -1
vn 0 0 -1
f 36/36/36 34/34/34 33/33/33 35/35/35
usemtl Default
v 47.549999237060547 0 -2
v 47.549999237060547 2 -2
v 48.450000762939453 0 -2
v 48.450000762939453 2 -2
vt 0 0
vt 0 1
vt 1 0
vt 1 1
vn 0 0 1
vn 0 0 1
vn 0 0 1
vn 0 0 1
f 40/40/40 38/38/38 37/37/37 39/39/39
usemtl Default
v 9.5500001907348633 0 -2
v 9.5500001907348633 2 -2
v 10.449999809265137 0 -2
v 10.449999809265137 2 -2
vt 0 0
vt 0 1
vt 1 0
vt 1 1
vn 0 0 1
vn 0 0 1
vn 0 0 1
vn 0 0 1
f 44/44/44 42/42/42 41/41/41 43/43/43
usemtl Default
v 4 0 -1
v 4 0 -1.6000000238418579
v 4 1.0499999523162842 -1.6000000238418579
v 4 2.0999999046325684 -1.6000000238418579
v 4 2.0999999046325684 -0.40000000596046448
v 4 1.0499999523162842 -0.40000000596046448
v 4 0 -0.40000000596046448
vt 0.5 0.0098039219155907631
vt 0.99019604921340942 0.0098039219155907631
vt 0.99019604921340942 0.5
vt 0.99019604921340942 0.99019604921340942
vt 0.0098039219155907631 0.99019604921340942
vt 0.0098039219155907631 0.5
vt 0.0098039219155907631 0.0098039219155907631
vn 1 0 0
vn 1 0 0
vn 1 0 0
vn 1 0 0
vn 1 0 0
vn 1 0 0
vn 1 0 0
f 45/45/45 50/50/50 51/51/51
f 49/49/49 50/50/50 47/47/47 48/48/48
f 47/47/47 45/45/45 46/46/46
f 45/45/45 47/47/47 50/50/50
usemtl Default
v 61 0 -1
v 61 0 -1.6000000238418579
v 61 1.0499999523162842 -1.6000000238418579
v 61 2.0999999046325684 -1.6000000238418579
v 61 2.0999999046325684 -0.40000000596046448
v 61 1.0499999523162842 -0.40000000596046448
v 61 0 -0.40000000596046448
vt 0.5 0.0098039219155907631
vt 0.99019604921340942 0.0098039219155907631
vt 0.99019604921340942 0.5
vt 0.99019604921340942 0.99019604921340942
vt 0.0098039219155907631 0.99019604921340942
vt 0.0098039219155907631 0.5
vt 0.0098039219155907631 0.0098039219155907631
vn 1 0 0
vn 1 0 0
vn 1 0 0
vn 1 0 0
vn 1 0 0
vn 1 0 0
vn 1 0 0
f 52/52/52 57/57/57 58/58/58
f 56/56/56 57/57/57 54/54/54 55/55/55
f 54/54/54 52/52/52 53/53/53
f 52/52/52 54/54/54 57/57/57
usemtl Default
v 18.899999618530273 0 -2
v 18.899999618530273 2 -2
v 19.799999237060547 0 -2
v 19.799999237060547 2 -2
vt 0 0
vt 0 1
vt 1 0
vt 1 1
vn 0 0 1
vn 0 0 1
vn 0 0 1
vn 0 0 1
f 62/62/62 60/60/60 59/59/59 61/61/61
usemtl Default
v 10.899999618530273 0 0
v 10.899999618530273 2 0
v 11.800000190734863 0 0
v 11.800000190734863 2 0
vt 0 0
vt 0 1
vt 1 0
vt 1 1
vn 0 0 1
vn 0 0 1
vn 0 0 1
vn 0 0 1
f 66/66/66 64/64/64 63/63/63 65/65/65
usemtl Default
v 6.9000000953674316 0 -2
v 6.9000000953674316 2 -2
v 7.8000001907348633 0 -2
v 7.8000001907348633 2 -2
vt 0 0
vt 0 1
vt 1 0
vt 1 1
vn 0 0 1
vn 0 0 1
vn 0 0 1
vn 0 0 1
f 70/70/70 68/68/68 67/67/67 69/69/69
