# Rhino

mtllib Layout.mtl
usemtl Default
v 20 0 -8
v 20 0 -2.5
v 20 0 3
v 25 0 3
v 30 0 3
v 30 0 0.5
v 30 0 -2
v 27.5 0 -2
v 25 0 -2
v 25 0 -5
v 25 0 -8
v 22.5 0 -8
v 20 0 3
v 20 3.5 3
v 20 0 -8
v 20 3.5 -8
v 20 0 -2.5
v 20 3.5 -2.5
v 30 0 3
v 30 3.5 3
v 20 0 3
v 20 3.5 3
v 25 0 3
v 25 3.5 3
v 30 0 -2
v 30 3.5 -2
v 30 0 3
v 30 3.5 3
v 30 0 0.5
v 30 3.5 0.5
v 25 0 -2
v 25 3.5 -2
v 30 0 -2
v 30 3.5 -2
v 27.5 0 -2
v 27.5 3.5 -2
v 25 0 -8
v 25 3.5 -8
v 25 0 -2
v 25 3.5 -2
v 25 0 -5
v 25 3.5 -5
v 20 0 -8
v 20 3.5 -8
v 25 0 -8
v 25 3.5 -8
v 22.5 0 -8
v 22.5 3.5 -8
v 20 3.5 -8
v 20 3.5 -2.5
v 20 3.5 3
v 25 3.5 3
v 30 3.5 3
v 30 3.5 0.5
v 30 3.5 -2
v 27.5 3.5 -2
v 25 3.5 -2
v 25 3.5 -5
v 25 3.5 -8
v 22.5 3.5 -8
vt 0.58263027667999268 0.45909088850021362
vt 0.58263027667999268 0.23181818425655365
vt 0.58263027667999268 0.0045454548671841621
vt 0.78852379322052002 0.0045454548671841621
vt 0.99441725015640259 0.0045454548671841621
vt 0.99441725015640259 0.10785123705863953
vt 0.99441725015640259 0.21115702390670776
vt 0.89147055149078369 0.21115702390670776
vt 0.78852379322052002 0.21115702390670776
vt 0.78852379322052002 0.33512395620346069
vt 0.78852379322052002 0.45909088850021362
vt 0.68557703495025635 0.45909088850021362
vt 0.28779134154319763 0.42148759961128235
vt 0.14462809264659882 0.42148759961128235
vt 0.28779134154319763 0.87456822395324707
vt 0.14462809264659882 0.87456822395324707
vt 0.28779134154319763 0.64802789688110352
vt 0.14462809264659882 0.64802789688110352
vt 0.14316324889659882 0.42148759961128235
vt 0 0.42148759961128235
vt 0.14316324889659882 0.83471071720123291
vt 0 0.83471071720123291
vt 0.14316324889659882 0.62809920310974121
vt 0 0.62809920310974121
vt 0.43241944909095764 0.62809920310974121
vt 0.28925618529319763 0.62809920310974121
vt 0.43241944909095764 0.83471071720123291
vt 0.28925618529319763 0.83471071720123291
vt 0.43241944909095764 0.73140496015548706
vt 0.28925618529319763 0.73140496015548706
vt 0.57704752683639526 0.42148759961128235
vt 0.43388429284095764 0.42148759961128235
vt 0.57704752683639526 0.62663435935974121
vt 0.43388429284095764 0.62663435935974121
vt 0.57704752683639526 0.52406096458435059
vt 0.43388429284095764 0.52406096458435059
vt 0.57704752683639526 0.62809920310974121
vt 0.43388429284095764 0.62809920310974121
vt 0.57704752683639526 0.87456822395324707
vt 0.43388429284095764 0.87456822395324707
vt 0.57704752683639526 0.75133371353149414
vt 0.43388429284095764 0.75133371353149414
vt 0.43241944909095764 0.42148759961128235
vt 0.28925618529319763 0.42148759961128235
vt 0.43241944909095764 0.62663435935974121
vt 0.28925618529319763 0.62663435935974121
vt 0.43241944909095764 0.52406096458435059
vt 0.28925618529319763 0.52406096458435059
vt 0.0045454679057002068 0.0041178702376782894
vt 0.23181818425655365 0.0041178702376782894
vt 0.45909091830253601 0.0041178702376782894
vt 0.45909091830253601 0.21001137793064117
vt 0.45909091830253601 0.41590487957000732
vt 0.35578513145446777 0.41590487957000732
vt 0.25247934460639954 0.41590487957000732
vt 0.25247934460639954 0.31295815110206604
vt 0.25247934460639954 0.21001137793064117
vt 0.12851239740848541 0.21001137793064117
vt 0.0045454679057002068 0.21001137793064117
vt 0.0045454679057002068 0.1070646345615387
vn 0 -1 0
vn 0 -1 0
vn 0 -1 0
vn 0 -1 0
vn 0 -1 0
vn 0 -1 0
vn 0 -1 0
vn 0 -1 0
vn 0 -1 0
vn 0 -1 0
vn 0 -1 0
vn 0 -1 0
vn -1 0 0
vn -1 0 0
vn -1 0 0
vn -1 0 0
vn -1 0 0
vn -1 0 0
vn 0 0 1
vn 0 0 1
vn 0 0 1
vn 0 0 1
vn 0 0 1
vn 0 0 1
vn 1 0 0
vn 1 0 0
vn 1 0 0
vn 1 0 0
vn 1 0 0
vn 1 0 0
vn 0 0 -1
vn 0 0 -1
vn 0 0 -1
vn 0 0 -1
vn 0 0 -1
vn 0 0 -1
vn 1 0 0
vn 1 0 0
vn 1 0 0
vn 1 0 0
vn 1 0 0
vn 1 0 0
vn 0 0 -1
vn 0 0 -1
vn 0 0 -1
vn 0 0 -1
vn 0 0 -1
vn 0 0 -1
vn 0 1 0
vn 0 1 0
vn 0 1 0
vn 0 1 0
vn 0 1 0
vn 0 1 0
vn 0 1 0
vn 0 1 0
vn 0 1 0
vn 0 1 0
vn 0 1 0
vn 0 1 0
f 4/4/4 3/3/3 2/2/2 9/9/9
f 8/8/8 4/4/4 9/9/9
f 1/1/1 12/12/12 2/2/2
f 2/2/2 12/12/12 10/10/10
f 10/10/10 9/9/9 2/2/2
f 8/8/8 6/6/6 4/4/4
f 7/7/7 6/6/6 8/8/8
f 12/12/12 11/11/11 10/10/10
f 6/6/6 5/5/5 4/4/4
f 14/14/14 18/18/18 17/17/17 13/13/13
f 15/15/15 17/17/17 18/18/18 16/16/16
f 20/20/20 24/24/24 23/23/23 19/19/19
f 21/21/21 23/23/23 24/24/24 22/22/22
f 26/26/26 30/30/30 29/29/29 25/25/25
f 27/27/27 29/29/29 30/30/30 28/28/28
f 32/32/32 36/36/36 35/35/35 31/31/31
f 33/33/33 35/35/35 36/36/36 34/34/34
f 38/38/38 42/42/42 41/41/41 37/37/37
f 39/39/39 41/41/41 42/42/42 40/40/40
f 44/44/44 48/48/48 47/47/47 43/43/43
f 45/45/45 47/47/47 48/48/48 46/46/46
f 52/52/52 57/57/57 50/50/50 51/51/51
f 56/56/56 57/57/57 52/52/52
f 49/49/49 50/50/50 60/60/60
f 50/50/50 58/58/58 60/60/60
f 58/58/58 50/50/50 57/57/57
f 56/56/56 52/52/52 54/54/54
f 55/55/55 56/56/56 54/54/54
f 60/60/60 58/58/58 59/59/59
f 54/54/54 52/52/52 53/53/53
usemtl Default
v 4 0 0
v 4 0 -2
v 20 0 0
v 20 0 -2
v 9.3333330154418945 0 0
v 14.666666984558105 0 0
v 14.666666984558105 0 -2
v 9.3333330154418945 0 -2
v 20 0 0
v 20 3.5 0
v 4 0 0
v 4 3.5 0
v 14.666666984558105 0 0
v 9.3333330154418945 0 0
v 4 1.75 0
v 20 1.75 0
v 12 1.75 0
v 8 1.75 0
v 12 0.875 0
v 8 0.875 0
v 12 2.625 0
v 8 2.625 0
v 9.3333330154418945 3.5 0
v 14.666666984558105 3.5 0
v 16 1.75 0
v 16 2.625 0
v 16 0.875 0
v 20 0 -2
v 20 3.5 -2
v 20 0 0
v 20 3.5 0
v 20 1.75 0
v 20 1.75 -2
v 4 0 -2
v 4 3.5 -2
v 20 0 -2
v 20 3.5 -2
v 9.3333330154418945 0 -2
v 14.666666984558105 0 -2
v 20 1.75 -2
v 4 1.75 -2
v 12 1.75 -2
v 16 1.75 -2
v 12 0.875 -2
v 16 0.875 -2
v 12 2.625 -2
v 16 2.625 -2
v 14.666666984558105 3.5 -2
v 9.3333330154418945 3.5 -2
v 8 1.75 -2
v 8 2.625 -2
v 8 0.875 -2
v 4 0 0
v 4 3.5 0
v 4 0 -2
v 4 3.5 -2
v 4 1.75 0
v 4 1.75 -2
v 4 3.5 0
v 4 3.5 -2
v 20 3.5 0
v 20 3.5 -2
v 9.3333330154418945 3.5 0
v 14.666666984558105 3.5 0
v 14.666666984558105 3.5 -2
v 9.3333330154418945 3.5 -2
vt 0.90478515625 0
vt 0.78125 0
vt 0.90478515625 0.99853515625
vt 0.78125 0.99853515625
vt 0.90478515625 0.3328450620174408
vt 0.90478515625 0.66569012403488159
vt 0.78125 0.66569012403488159
vt 0.78125 0.3328450620174408
vt 0.65478515625 0
vt 0.4375 0
vt 0.65478515625 0.99853515625
vt 0.4375 0.99853515625
vt 0.65478515625 0.3328450620174408
vt 0.65478515625 0.66569012403488159
vt 0.546142578125 0.99853515625
vt 0.546142578125 0
vt 0.546142578125 0.499267578125
vt 0.546142578125 0.7489013671875
vt 0.6004638671875 0.499267578125
vt 0.6004638671875 0.7489013671875
vt 0.4918212890625 0.499267578125
vt 0.4918212890625 0.7489013671875
vt 0.4375 0.66569012403488159
vt 0.4375 0.3328450620174408
vt 0.546142578125 0.2496337890625
vt 0.4918212890625 0.2496337890625
vt 0.6004638671875 0.2496337890625
vt 0.21728515625 0.5
vt 0 0.5
vt 0.21728515625 0.625
vt 0 0.625
vt 0.108642578125 0.625
vt 0.108642578125 0.5
vt 0.43603515625 0
vt 0.21875 0
vt 0.43603515625 0.99853515625
vt 0.21875 0.99853515625
vt 0.43603515625 0.3328450620174408
vt 0.43603515625 0.66569012403488159
vt 0.327392578125 0.99853515625
vt 0.327392578125 0
vt 0.327392578125 0.499267578125
vt 0.327392578125 0.7489013671875
vt 0.3817138671875 0.499267578125
vt 0.3817138671875 0.7489013671875
vt 0.2730712890625 0.499267578125
vt 0.2730712890625 0.7489013671875
vt 0.21875 0.66569012403488159
vt 0.21875 0.3328450620174408
vt 0.327392578125 0.2496337890625
vt 0.2730712890625 0.2496337890625
vt 0.3817138671875 0.2496337890625
vt 0.21728515625 0
vt 0 0
vt 0.21728515625 0.125
vt 0 0.125
vt 0.108642578125 0
vt 0.108642578125 0.125
vt 0.77978515625 0
vt 0.65625 0
vt 0.77978515625 0.99853515625
vt 0.65625 0.99853515625
vt 0.77978515625 0.3328450620174408
vt 0.77978515625 0.66569012403488159
vt 0.65625 0.66569012403488159
vt 0.65625 0.3328450620174408
vn 0 -1 0
vn 0 -1 0
vn 0 -1 0
vn 0 -1 0
vn 0 -1 0
vn 0 -1 0
vn 0 -1 0
vn 0 -1 0
vn 0 0 1
vn 0 0 1
vn 0 0 1
vn 0 0 1
vn 0 0 1
vn 0 0 1
vn 0 0 1
vn 0 0 1
vn 0 0 1
vn 0 0 1
vn 0 0 1
vn 0 0 1
vn 0 0 1
vn 0 0 1
vn 0 0 1
vn 0 0 1
vn 0 0 1
vn 0 0 1
vn 0 0 1
vn 1 0 0
vn 1 0 0
vn 1 0 0
vn 1 0 0
vn 1 0 0
vn 1 0 0
vn 0 0 -1
vn 0 0 -1
vn 0 0 -1
vn 0 0 -1
vn 0 0 -1
vn 0 0 -1
vn 0 0 -1
vn 0 0 -1
vn 0 0 -1
vn 0 0 -1
vn 0 0 -1
vn 0 0 -1
vn 0 0 -1
vn 0 0 -1
vn 0 0 -1
vn 0 0 -1
vn 0 0 -1
vn 0 0 -1
vn 0 0 -1
vn -1 0 0
vn -1 0 0
vn -1 0 0
vn -1 0 0
vn -1 0 0
vn -1 0 0
vn 0 1 0
vn 0 1 0
vn 0 1 0
vn 0 1 0
vn 0 1 0
vn 0 1 0
vn 0 1 0
vn 0 1 0
f 61/61/61 62/62/62 68/68/68 65/65/65
f 65/65/65 68/68/68 67/67/67 66/66/66
f 66/66/66 67/67/67 64/64/64 63/63/63
f 82/82/82 78/78/78 77/77/77 81/81/81
f 81/81/81 77/77/77 85/85/85 86/86/86
f 77/77/77 79/79/79 87/87/87 85/85/85
f 78/78/78 80/80/80 79/79/79 77/77/77
f 76/76/76 87/87/87 69/69/69
f 73/73/73 69/69/69 87/87/87
f 87/87/87 79/79/79 73/73/73
f 73/73/73 79/79/79 80/80/80 74/74/74
f 86/86/86 76/76/76 70/70/70
f 81/81/81 86/86/86 84/84/84
f 70/70/70 84/84/84 86/86/86
f 76/76/76 86/86/86 85/85/85
f 85/85/85 87/87/87 76/76/76
f 71/71/71 74/74/74 80/80/80
f 71/71/71 80/80/80 75/75/75
f 78/78/78 75/75/75 80/80/80
f 83/83/83 82/82/82 81/81/81 84/84/84
f 72/72/72 75/75/75 82/82/82
f 83/83/83 72/72/72 82/82/82
f 82/82/82 75/75/75 78/78/78
f 93/93/93 92/92/92 90/90/90 88/88/88
f 89/89/89 91/91/91 92/92/92 93/93/93
f 107/107/107 103/103/103 102/102/102 106/106/106
f 106/106/106 102/102/102 110/110/110 111/111/111
f 102/102/102 104/104/104 112/112/112 110/110/110
f 103/103/103 105/105/105 104/104/104 102/102/102
f 101/101/101 112/112/112 94/94/94
f 98/98/98 94/94/94 112/112/112
f 112/112/112 104/104/104 98/98/98
f 98/98/98 104/104/104 105/105/105 99/99/99
f 111/111/111 101/101/101 95/95/95
f 106/106/106 111/111/111 109/109/109
f 95/95/95 109/109/109 111/111/111
f 101/101/101 111/111/111 110/110/110
f 110/110/110 112/112/112 101/101/101
f 96/96/96 99/99/99 105/105/105
f 96/96/96 105/105/105 100/100/100
f 103/103/103 100/100/100 105/105/105
f 108/108/108 107/107/107 106/106/106 109/109/109
f 97/97/97 100/100/100 107/107/107
f 108/108/108 97/97/97 107/107/107
f 107/107/107 100/100/100 103/103/103
f 117/117/117 118/118/118 115/115/115 113/113/113
f 114/114/114 116/116/116 118/118/118 117/117/117
f 119/119/119 123/123/123 126/126/126 120/120/120
f 123/123/123 124/124/124 125/125/125 126/126/126
f 124/124/124 121/121/121 122/122/122 125/125/125
usemtl Default
v 30 0 0
v 30 0 -2
v 61 0 0
v 61 0 -2
v 37.75 0 0
v 45.5 0 0
v 53.25 0 0
v 53.25 0 -2
v 45.5 0 -2
v 37.75 0 -2
v 61 0 0
v 61 3.5 0
v 45.5 0 0
v 45.5 3.5 0
v 30 0 0
v 30 3.5 0
v 53.25 0 0
v 37.75 0 0
v 30 1.75 0
v 37.75 3.5 0
v 37.75 1.75 0
v 33.875 1.75 0
v 37.75 0.875 0
v 33.875 0.875 0
v 37.75 2.625 0
v 33.875 2.625 0
v 53.25 3.5 0
v 61 1.75 0
v 53.25 1.75 0
v 53.25 2.625 0
v 57.125 1.75 0
v 57.125 2.625 0
v 53.25 0.875 0
v 57.125 0.875 0
v 61 0 -2
v 61 3.5 -2
v 61 0 0
v 61 3.5 0
v 61 1.75 0
v 61 1.75 -2
v 30 0 -2
v 30 3.5 -2
v 45.5 0 -2
v 45.5 3.5 -2
v 61 0 -2
v 61 3.5 -2
v 37.75 0 -2
v 53.25 0 -2
v 61 1.75 -2
v 53.25 3.5 -2
v 53.25 1.75 -2
v 57.125 1.75 -2
v 53.25 0.875 -2
v 57.125 0.875 -2
v 53.25 2.625 -2
v 57.125 2.625 -2
v 37.75 3.5 -2
v 30 1.75 -2
v 37.75 1.75 -2
v 37.75 2.625 -2
v 33.875 1.75 -2
v 33.875 2.625 -2
v 37.75 0.875 -2
v 33.875 0.875 -2
v 30 0 0
v 30 3.5 0
v 30 0 -2
v 30 3.5 -2
v 30 1.75 0
v 30 1.75 -2
v 30 3.5 0
v 30 3.5 -2
v 61 3.5 0
v 61 3.5 -2
v 37.75 3.5 0
v 45.5 3.5 0
v 53.25 3.5 0
v 53.25 3.5 -2
v 45.5 3.5 -2
v 37.75 3.5 -2
vt 0.10144927352666855 0.44927537441253662
vt 0.10144927352666855 0.50724637508392334
vt 0.99853515625 0.44927537441253662
vt 0.99853515625 0.50724637508392334
vt 0.32572075724601746 0.44927537441253662
vt 0.54999220371246338 0.44927537441253662
vt 0.77426367998123169 0.44927537441253662
vt 0.77426367998123169 0.50724637508392334
vt 0.54999220371246338 0.50724637508392334
vt 0.32572075724601746 0.50724637508392334
vt 0.10144927352666855 0.61264824867248535
vt 0.10144927352666855 0.71409749984741211
vt 0.54999220371246338 0.61264824867248535
vt 0.54999220371246338 0.71409749984741211
vt 0.99853515625 0.61264824867248535
vt 0.99853515625 0.71409749984741211
vt 0.32572075724601746 0.61264824867248535
vt 0.77426367998123169 0.61264824867248535
vt 0.99853515625 0.66337287425994873
vt 0.77426367998123169 0.71409749984741211
vt 0.77426367998123169 0.66337287425994873
vt 0.88639944791793823 0.66337287425994873
vt 0.77426367998123169 0.63801056146621704
vt 0.88639944791793823 0.63801056146621704
vt 0.77426367998123169 0.68873518705368042
vt 0.88639944791793823 0.68873518705368042
vt 0.32572075724601746 0.71409749984741211
vt 0.10144927352666855 0.66337287425994873
vt 0.32572075724601746 0.66337287425994873
vt 0.32572075724601746 0.68873518705368042
vt 0.21358500421047211 0.66337287425994873
vt 0.21358500421047211 0.68873518705368042
vt 0.32572075724601746 0.63801056146621704
vt 0.21358500421047211 0.63801056146621704
vt 0.55072462558746338 0
vt 0.55072462558746338 0.10144927352666855
vt 0.6086956262588501 0
vt 0.6086956262588501 0.10144927352666855
vt 0.6086956262588501 0.050724636763334274
vt 0.55072462558746338 0.050724636763334274
vt 0.099984429776668549 0
vt 0 0
vt 0.099984429776668549 0.44854295253753662
vt 0 0.44854295253753662
vt 0.099984429776668549 0.89708590507507324
vt 0 0.89708590507507324
vt 0.099984429776668549 0.22427147626876831
vt 0.099984429776668549 0.67281442880630493
vt 0.049992214888334274 0.89708590507507324
vt 0 0.67281442880630493
vt 0.049992214888334274 0.67281442880630493
vt 0.049992214888334274 0.7849501371383667
vt 0.074988320469856262 0.67281442880630493
vt 0.074988320469856262 0.7849501371383667
vt 0.024996107444167137 0.67281442880630493
vt 0.024996107444167137 0.7849501371383667
vt 0 0.22427147626876831
vt 0.049992214888334274 0
vt 0.049992214888334274 0.22427147626876831
vt 0.024996107444167137 0.22427147626876831
vt 0.049992214888334274 0.11213573813438416
vt 0.024996107444167137 0.11213573813438416
vt 0.074988320469856262 0.22427147626876831
vt 0.074988320469856262 0.11213573813438416
vt 0.10144927352666855 0
vt 0.10144927352666855 0.10144927352666855
vt 0.15942029654979706 0
vt 0.15942029654979706 0.10144927352666855
vt 0.10144927352666855 0.050724636763334274
vt 0.15942029654979706 0.050724636763334274
vt 0.10144927352666855 0.28590250015258789
vt 0.10144927352666855 0.343873530626297
vt 0.99853515625 0.28590250015258789
vt 0.99853515625 0.343873530626297
vt 0.32572075724601746 0.28590250015258789
vt 0.54999220371246338 0.28590250015258789
vt 0.77426367998123169 0.28590250015258789
vt 0.77426367998123169 0.343873530626297
vt 0.54999220371246338 0.343873530626297
vt 0.32572075724601746 0.343873530626297
vn 0 -1 0
vn 0 -1 0
vn 0 -1 0
vn 0 -1 0
vn 0 -1 0
vn 0 -1 0
vn 0 -1 0
vn 0 -1 0
vn 0 -1 0
vn 0 -1 0
vn 0 0 1
vn 0 0 1
vn 0 0 1
vn 0 0 1
vn 0 0 1
vn 0 0 1
vn 0 0 1
vn 0 0 1
vn 0 0 1
vn 0 0 1
vn 0 0 1
vn 0 0 1
vn 0 0 1
vn 0 0 1
vn 0 0 1
vn 0 0 1
vn 0 0 1
vn 0 0 1
vn 0 0 1
vn 0 0 1
vn 0 0 1
vn 0 0 1
vn 0 0 1
vn 0 0 1
vn 1 0 0
vn 1 0 0
vn 1 0 0
vn 1 0 0
vn 1 0 0
vn 1 0 0
vn 0 0 -1
vn 0 0 -1
vn 0 0 -1
vn 0 0 -1
vn 0 0 -1
vn 0 0 -1
vn 0 0 -1
vn 0 0 -1
vn 0 0 -1
vn 0 0 -1
vn 0 0 -1
vn 0 0 -1
vn 0 0 -1
vn 0 0 -1
vn 0 0 -1
vn 0 0 -1
vn 0 0 -1
vn 0 0 -1
vn 0 0 -1
vn 0 0 -1
vn 0 0 -1
vn 0 0 -1
vn 0 0 -1
vn 0 0 -1
vn -1 0 0
vn -1 0 0
vn -1 0 0
vn -1 0 0
vn -1 0 0
vn -1 0 0
vn 0 1 0
vn 0 1 0
vn 0 1 0
vn 0 1 0
vn 0 1 0
vn 0 1 0
vn 0 1 0
vn 0 1 0
vn 0 1 0
vn 0 1 0
f 131/131/131 127/127/127 128/128/128 136/136/136
f 136/136/136 135/135/135 132/132/132 131/131/131
f 129/129/129 133/133/133 134/134/134 130/130/130
f 133/133/133 132/132/132 135/135/135 134/134/134
f 156/156/156 155/155/155 157/157/157 158/158/158
f 155/155/155 159/159/159 160/160/160 157/157/157
f 152/152/152 148/148/148 147/147/147 151/151/151
f 148/148/148 150/150/150 149/149/149 147/147/147
f 154/154/154 160/160/160 137/137/137
f 143/143/143 137/137/137 160/160/160
f 160/160/160 154/154/154 157/157/157
f 159/159/159 139/139/139 143/143/143
f 155/155/155 139/139/139 159/159/159
f 160/160/160 159/159/159 143/143/143
f 138/138/138 158/158/158 154/154/154
f 157/157/157 154/154/154 158/158/158
f 153/153/153 158/158/158 138/138/138
f 155/155/155 156/156/156 140/140/140
f 156/156/156 153/153/153 140/140/140
f 158/158/158 153/153/153 156/156/156
f 139/139/139 155/155/155 147/147/147
f 149/149/149 139/139/139 147/147/147
f 150/150/150 144/144/144 149/149/149
f 155/155/155 140/140/140 147/147/147
f 145/145/145 150/150/150 148/148/148
f 144/144/144 150/150/150 141/141/141
f 141/141/141 150/150/150 145/145/145
f 146/146/146 151/151/151 140/140/140
f 147/147/147 140/140/140 151/151/151
f 152/152/152 151/151/151 146/146/146
f 142/142/142 145/145/145 152/152/152
f 146/146/146 142/142/142 152/152/152
f 152/152/152 145/145/145 148/148/148
f 144/144/144 139/139/139 149/149/149
f 166/166/166 165/165/165 163/163/163 161/161/161
f 162/162/162 164/164/164 165/165/165 166/166/166
f 186/186/186 185/185/185 187/187/187 188/188/188
f 185/185/185 189/189/189 190/190/190 187/187/187
f 182/182/182 178/178/178 177/177/177 181/181/181
f 178/178/178 180/180/180 179/179/179 177/177/177
f 184/184/184 190/190/190 167/167/167
f 173/173/173 167/167/167 190/190/190
f 190/190/190 184/184/184 187/187/187
f 189/189/189 169/169/169 173/173/173
f 185/185/185 169/169/169 189/189/189
f 190/190/190 189/189/189 173/173/173
f 168/168/168 188/188/188 184/184/184
f 187/187/187 184/184/184 188/188/188
f 183/183/183 188/188/188 168/168/168
f 185/185/185 186/186/186 170/170/170
f 186/186/186 183/183/183 170/170/170
f 188/188/188 183/183/183 186/186/186
f 169/169/169 185/185/185 177/177/177
f 179/179/179 169/169/169 177/177/177
f 180/180/180 174/174/174 179/179/179
f 185/185/185 170/170/170 177/177/177
f 175/175/175 180/180/180 178/178/178
f 174/174/174 180/180/180 171/171/171
f 171/171/171 180/180/180 175/175/175
f 176/176/176 181/181/181 170/170/170
f 177/177/177 170/170/170 181/181/181
f 182/182/182 181/181/181 176/176/176
f 172/172/172 175/175/175 182/182/182
f 176/176/176 172/172/172 182/182/182
f 182/182/182 175/175/175 178/178/178
f 174/174/174 169/169/169 179/179/179
f 195/195/195 196/196/196 193/193/193 191/191/191
f 192/192/192 194/194/194 196/196/196 195/195/195
f 201/201/201 206/206/206 198/198/198 197/197/197
f 206/206/206 201/201/201 202/202/202 205/205/205
f 199/199/199 200/200/200 204/204/204 203/203/203
f 203/203/203 204/204/204 205/205/205 202/202/202
usemtl Default
v 24.399999618530273 2.0999999046325684 3
v 24.399999618530273 0 3
v 25.600000381469727 2.0999999046325684 3
v 25.600000381469727 0 3
vt 0 0
vt 0 1
vt 1 0
vt 1 1
vn 0 0 -1
vn 0 0 -1
vn 0 0 -1
vn 0 0 -1
f 210/210/210 208/208/208 207/207/207 209/209/209
usemtl Default
v 28.299999237060547 2.0999999046325684 -2
v 28.299999237060547 0 -2
v 29.5 2.0999999046325684 -2
v 29.5 0 -2
vt 0 0
vt 0 1
vt 1 0
vt 1 1
vn 0 0 -1
vn 0 0 -1
vn 0 0 -1
vn 0 0 -1
f 214/214/214 212/212/212 211/211/211 213/213/213
usemtl Default
v 8 0 -2
v 8 0 -8
v 12 0 -2
v 12 0 -8
v 10 0 -2
v 12 0 -5
v 10 0 -8
v 8 0 -5
v 12 0 -2
v 12 3.5 -2
v 8 0 -2
v 8 3.5 -2
v 10 0 -2
v 8 1.75 -2
v 10 3.5 -2
v 12 1.75 -2
v 12 0 -8
v 12 3.5 -8
v 12 0 -2
v 12 3.5 -2
v 12 0 -5
v 12 1.75 -2
v 12 3.5 -5
v 12 1.75 -8
v 8 0 -8
v 8 3.5 -8
v 12 0 -8
v 12 3.5 -8
v 10 0 -8
v 12 1.75 -8
v 10 3.5 -8
v 8 1.75 -8
v 8 0 -2
v 8 3.5 -2
v 8 0 -8
v 8 3.5 -8
v 8 0 -5
v 8 1.75 -2
v 8 1.75 -8
v 8 3.5 -5
v 8 3.5 -2
v 8 3.5 -8
v 12 3.5 -2
v 12 3.5 -8
v 10 3.5 -2
v 12 3.5 -5
v 10 3.5 -8
v 8 3.5 -5
vt 0.3333333432674408 0.5
vt 0.3333333432674408 0.99853515625
vt 0.66520184278488159 0.5
vt 0.66520184278488159 0.99853515625
vt 0.499267578125 0.5
vt 0.66520184278488159 0.749267578125
vt 0.499267578125 0.99853515625
vt 0.3333333432674408 0.749267578125
vt 0.66666668653488159 0.5
vt 0.66666668653488159 0.79166668653488159
vt 0.99853515625 0.5
vt 0.99853515625 0.79166668653488159
vt 0.83260089159011841 0.5
vt 0.99853515625 0.64583331346511841
vt 0.83260089159011841 0.79166668653488159
vt 0.66666668653488159 0.64583331346511841
vt 0.625 0
vt 0.3333333432674408 0
vt 0.625 0.49853515625
vt 0.3333333432674408 0.49853515625
vt 0.625 0.249267578125
vt 0.4791666567325592 0.49853515625
vt 0.3333333432674408 0.249267578125
vt 0.4791666567325592 0
vt 0.66666668653488159 0
vt 0.66666668653488159 0.2916666567325592
vt 0.99853515625 0
vt 0.99853515625 0.2916666567325592
vt 0.83260089159011841 0
vt 0.99853515625 0.1458333283662796
vt 0.83260089159011841 0.2916666567325592
vt 0.66666668653488159 0.1458333283662796
vt 0.2916666567325592 0
vt 0 0
vt 0.2916666567325592 0.49853515625
vt 0 0.49853515625
vt 0.2916666567325592 0.249267578125
vt 0.1458333283662796 0
vt 0.1458333283662796 0.49853515625
vt 0 0.249267578125
vt 0 0.5
vt 0 0.99853515625
vt 0.3318684995174408 0.5
vt 0.3318684995174408 0.99853515625
vt 0.1659342497587204 0.5
vt 0.3318684995174408 0.749267578125
vt 0.1659342497587204 0.99853515625
vt 0 0.749267578125
vn 0 -1 0
vn 0 -1 0
vn 0 -1 0
vn 0 -1 0
vn 0 -1 0
vn 0 -1 0
vn 0 -1 0
vn 0 -1 0
vn 0 0 1
vn 0 0 1
vn 0 0 1
vn 0 0 1
vn 0 0 1
vn 0 0 1
vn 0 0 1
vn 0 0 1
vn 1 0 0
vn 1 0 0
vn 1 0 0
vn 1 0 0
vn 1 0 0
vn 1 0 0
vn 1 0 0
vn 1 0 0
vn 0 0 -1
vn 0 0 -1
vn 0 0 -1
vn 0 0 -1
vn 0 0 -1
vn 0 0 -1
vn 0 0 -1
vn 0 0 -1
vn -1 0 0
vn -1 0 0
vn -1 0 0
vn -1 0 0
vn -1 0 0
vn -1 0 0
vn -1 0 0
vn -1 0 0
vn 0 1 0
vn 0 1 0
vn 0 1 0
vn 0 1 0
vn 0 1 0
vn 0 1 0
vn 0 1 0
vn 0 1 0
f 222/222/222 219/219/219 215/215/215
f 222/222/222 216/216/216 221/221/221
f 220/220/220 219/219/219 222/222/222
f 222/222/222 221/221/221 220/220/220
f 220/220/220 221/221/221 218/218/218
f 217/217/217 219/219/219 220/220/220
f 230/230/230 227/227/227 223/223/223
f 230/230/230 224/224/224 229/229/229
f 228/228/228 227/227/227 230/230/230
f 230/230/230 229/229/229 228/228/228
f 228/228/228 229/229/229 226/226/226
f 225/225/225 227/227/227 228/228/228
f 238/238/238 235/235/235 231/231/231
f 238/238/238 232/232/232 237/237/237
f 236/236/236 235/235/235 238/238/238
f 238/238/238 237/237/237 236/236/236
f 236/236/236 237/237/237 234/234/234
f 233/233/233 235/235/235 236/236/236
f 246/246/246 243/243/243 239/239/239
f 246/246/246 240/240/240 245/245/245
f 244/244/244 243/243/243 246/246/246
f 246/246/246 245/245/245 244/244/244
f 244/244/244 245/245/245 242/242/242
f 241/241/241 243/243/243 244/244/244
f 252/252/252 251/251/251 247/247/247
f 252/252/252 248/248/248 254/254/254
f 253/253/253 251/251/251 252/252/252
f 252/252/252 254/254/254 253/253/253
f 253/253/253 254/254/254 250/250/250
f 249/249/249 251/251/251 253/253/253
f 262/262/262 255/255/255 259/259/259
f 262/262/262 261/261/261 256/256/256
f 260/260/260 262/262/262 259/259/259
f 262/262/262 260/260/260 261/261/261
f 260/260/260 258/258/258 261/261/261
f 257/257/257 260/260/260 259/259/259
usemtl Default
v 58 0 -2
v 58 0 -8
v 61 0 -2
v 61 0 -8
v 59.5 0 -2
v 61 0 -5
v 59.5 0 -8
v 58 0 -5
v 61 0 -2
v 61 3.5 -2
v 58 0 -2
v 58 3.5 -2
v 59.5 0 -2
v 58 1.75 -2
v 59.5 3.5 -2
v 61 1.75 -2
v 61 0 -8
v 61 3.5 -8
v 61 0 -2
v 61 3.5 -2
v 61 0 -5
v 61 1.75 -2
v 61 3.5 -5
v 61 1.75 -8
v 58 0 -8
v 58 3.5 -8
v 61 0 -8
v 61 3.5 -8
v 59.5 0 -8
v 61 1.75 -8
v 59.5 3.5 -8
v 58 1.75 -8
v 58 0 -2
v 58 3.5 -2
v 58 0 -8
v 58 3.5 -8
v 58 0 -5
v 58 1.75 -2
v 58 1.75 -8
v 58 3.5 -5
v 58 3.5 -2
v 58 3.5 -8
v 61 3.5 -2
v 61 3.5 -8
v 59.5 3.5 -2
v 61 3.5 -5
v 59.5 3.5 -8
v 58 3.5 -5
vt 0.5 0.25
vt 0 0.25
vt 0.5 0.49853515625
vt 0 0.49853515625
vt 0.5 0.374267578125
vt 0.25 0.49853515625
vt 0 0.374267578125
vt 0.25 0.25
vt 0.87353515625 0.5
vt 0.58333331346511841 0.5
vt 0.87353515625 0.75
vt 0.58333331346511841 0.75
vt 0.87353515625 0.625
vt 0.72843426465988159 0.75
vt 0.58333331346511841 0.625
vt 0.72843426465988159 0.5
vt 0.58186846971511841 0.5
vt 0.2916666567325592 0.5
vt 0.58186846971511841 0.99853515625
vt 0.2916666567325592 0.99853515625
vt 0.58186846971511841 0.749267578125
vt 0.436767578125 0.99853515625
vt 0.2916666567325592 0.749267578125
vt 0.436767578125 0.5
vt 0.87353515625 0
vt 0.58333331346511841 0
vt 0.87353515625 0.25
vt 0.58333331346511841 0.25
vt 0.87353515625 0.125
vt 0.72843426465988159 0.25
vt 0.58333331346511841 0.125
vt 0.72843426465988159 0
vt 0.2902018129825592 0.5
vt 0 0.5
vt 0.2902018129825592 0.99853515625
vt 0 0.99853515625
vt 0.2902018129825592 0.749267578125
vt 0.1451009064912796 0.5
vt 0.1451009064912796 0.99853515625
vt 0 0.749267578125
vt 0.5 0
vt 0 0
vt 0.5 0.24853515625
vt 0 0.24853515625
vt 0.5 0.124267578125
vt 0.25 0.24853515625
vt 0 0.124267578125
vt 0.25 0
vn 0 -1 0
vn 0 -1 0
vn 0 -1 0
vn 0 -1 0
vn 0 -1 0
vn 0 -1 0
vn 0 -1 0
vn 0 -1 0
vn 0 0 1
vn 0 0 1
vn 0 0 1
vn 0 0 1
vn 0 0 1
vn 0 0 1
vn 0 0 1
vn 0 0 1
vn 1 0 0
vn 1 0 0
vn 1 0 0
vn 1 0 0
vn 1 0 0
vn 1 0 0
vn 1 0 0
vn 1 0 0
vn 0 0 -1
vn 0 0 -1
vn 0 0 -1
vn 0 0 -1
vn 0 0 -1
vn 0 0 -1
vn 0 0 -1
vn 0 0 -1
vn -1 0 0
vn -1 0 0
vn -1 0 0
vn -1 0 0
vn -1 0 0
vn -1 0 0
vn -1 0 0
vn -1 0 0
vn 0 1 0
vn 0 1 0
vn 0 1 0
vn 0 1 0
vn 0 1 0
vn 0 1 0
vn 0 1 0
vn 0 1 0
f 270/270/270 267/267/267 263/263/263
f 270/270/270 264/264/264 269/269/269
f 268/268/268 267/267/267 270/270/270
f 270/270/270 269/269/269 268/268/268
f 268/268/268 269/269/269 266/266/266
f 265/265/265 267/267/267 268/268/268
f 278/278/278 275/275/275 271/271/271
f 278/278/278 272/272/272 277/277/277
f 276/276/276 275/275/275 278/278/278
f 278/278/278 277/277/277 276/276/276
f 276/276/276 277/277/277 274/274/274
f 273/273/273 275/275/275 276/276/276
f 286/286/286 283/283/283 279/279/279
f 286/286/286 280/280/280 285/285/285
f 284/284/284 283/283/283 286/286/286
f 286/286/286 285/285/285 284/284/284
f 284/284/284 285/285/285 282/282/282
f 281/281/281 283/283/283 284/284/284
f 294/294/294 291/291/291 287/287/287
f 294/294/294 288/288/288 293/293/293
f 292/292/292 291/291/291 294/294/294
f 294/294/294 293/293/293 292/292/292
f 292/292/292 293/293/293 290/290/290
f 289/289/289 291/291/291 292/292/292
f 300/300/300 299/299/299 295/295/295
f 300/300/300 296/296/296 302/302/302
f 301/301/301 299/299/299 300/300/300
f 300/300/300 302/302/302 301/301/301
f 301/301/301 302/302/302 298/298/298
f 297/297/297 299/299/299 301/301/301
f 310/310/310 303/303/303 307/307/307
f 310/310/310 309/309/309 304/304/304
f 308/308/308 310/310/310 307/307/307
f 310/310/310 308/308/308 309/309/309
f 308/308/308 306/306/306 309/309/309
f 305/305/305 308/308/308 307/307/307
usemtl Default
v 44 0 -2
v 44 0 -8
v 52 0 -2
v 52 0 -8
v 48 0 -2
v 52 0 -5
v 48 0 -8
v 44 0 -5
v 52 0 -2
v 52 3.5 -2
v 44 0 -2
v 44 3.5 -2
v 48 0 -2
v 48 3.5 -2
v 52 0 -8
v 52 3.5 -8
v 52 0 -2
v 52 3.5 -2
v 52 0 -5
v 52 3.5 -5
v 44 0 -8
v 44 3.5 -8
v 52 0 -8
v 52 3.5 -8
v 48 0 -8
v 48 3.5 -8
v 44 0 -2
v 44 3.5 -2
v 44 0 -8
v 44 3.5 -8
v 44 0 -5
v 44 3.5 -5
v 44 3.5 -2
v 44 3.5 -8
v 52 3.5 -2
v 52 3.5 -8
v 48 3.5 -2
v 52 3.5 -5
v 48 3.5 -8
v 44 3.5 -5
vt 0.99853515625 0
vt 0.66666668653488159 0
vt 0.99853515625 0.4444444477558136
vt 0.66666668653488159 0.4444444477558136
vt 0.99853515625 0.2222222238779068
vt 0.83260089159011841 0.4444444477558136
vt 0.66666668653488159 0.2222222238779068
vt 0.83260089159011841 0
vt 0 0.1944444477558136
vt 0 0.3874240517616272
vt 0.4444444477558136 0.1944444477558136
vt 0.4444444477558136 0.3874240517616272
vt 0.2222222238779068 0.1944444477558136
vt 0.2222222238779068 0.3874240517616272
vt 0 0.6111111044883728
vt 0 0.80555558204650879
vt 0.3318684995174408 0.6111111044883728
vt 0.3318684995174408 0.80555558204650879
vt 0.1659342497587204 0.6111111044883728
vt 0.1659342497587204 0.80555558204650879
vt 0 0
vt 0 0.1929796040058136
vt 0.4444444477558136 0
vt 0.4444444477558136 0.1929796040058136
vt 0.2222222238779068 0
vt 0.2222222238779068 0.1929796040058136
vt 0 0.3888888955116272
vt 0 0.58333331346511841
vt 0.3318684995174408 0.3888888955116272
vt 0.3318684995174408 0.58333331346511841
vt 0.1659342497587204 0.3888888955116272
vt 0.1659342497587204 0.58333331346511841
vt 0.66520184278488159 0.3888888955116272
vt 0.3333333432674408 0.3888888955116272
vt 0.66520184278488159 0.83186846971511841
vt 0.3333333432674408 0.83186846971511841
vt 0.66520184278488159 0.6103786826133728
vt 0.499267578125 0.83186846971511841
vt 0.3333333432674408 0.6103786826133728
vt 0.499267578125 0.3888888955116272
vn 0 -1 0
vn 0 -1 0
vn 0 -1 0
vn 0 -1 0
vn 0 -1 0
vn 0 -1 0
vn 0 -1 0
vn 0 -1 0
vn 0 0 1
vn 0 0 1
vn 0 0 1
vn 0 0 1
vn 0 0 1
vn 0 0 1
vn 1 0 0
vn 1 0 0
vn 1 0 0
vn 1 0 0
vn 1 0 0
vn 1 0 0
vn 0 0 -1
vn 0 0 -1
vn 0 0 -1
vn 0 0 -1
vn 0 0 -1
vn 0 0 -1
vn -1 0 0
vn -1 0 0
vn -1 0 0
vn -1 0 0
vn -1 0 0
vn -1 0 0
vn 0 1 0
vn 0 1 0
vn 0 1 0
vn 0 1 0
vn 0 1 0
vn 0 1 0
vn 0 1 0
vn 0 1 0
f 318/318/318 315/315/315 311/311/311
f 318/318/318 312/312/312 317/317/317
f 317/317/317 315/315/315 318/318/318
f 315/315/315 317/317/317 316/316/316
f 316/316/316 317/317/317 314/314/314
f 313/313/313 315/315/315 316/316/316
f 320/320/320 324/324/324 323/323/323 319/319/319
f 321/321/321 323/323/323 324/324/324 322/322/322
f 326/326/326 330/330/330 329/329/329 325/325/325
f 327/327/327 329/329/329 330/330/330 328/328/328
f 332/332/332 336/336/336 335/335/335 331/331/331
f 333/333/333 335/335/335 336/336/336 334/334/334
f 338/338/338 342/342/342 341/341/341 337/337/337
f 339/339/339 341/341/341 342/342/342 340/340/340
f 350/350/350 343/343/343 347/347/347
f 350/350/350 349/349/349 344/344/344
f 349/349/349 350/350/350 347/347/347
f 347/347/347 348/348/348 349/349/349
f 348/348/348 346/346/346 349/349/349
f 345/345/345 348/348/348 347/347/347
usemtl Default
v 4 0 6
v 4 0 0
v 12 0 6
v 12 0 0
v 8 0 6
v 12 0 3
v 8 0 0
v 4 0 3
v 12 0 6
v 12 3.5 6
v 4 0 6
v 4 3.5 6
v 8 0 6
v 8 3.5 6
v 12 0 0
v 12 3.5 0
v 12 0 6
v 12 3.5 6
v 12 0 3
v 12 3.5 3
v 4 0 0
v 4 3.5 0
v 12 0 0
v 12 3.5 0
v 8 0 0
v 8 3.5 0
v 4 0 6
v 4 3.5 6
v 4 0 0
v 4 3.5 0
v 4 0 3
v 4 3.5 3
v 4 3.5 6
v 4 3.5 0
v 12 3.5 6
v 12 3.5 0
v 8 3.5 6
v 12 3.5 3
v 8 3.5 0
v 4 3.5 3
vt 0.99853515625 0
vt 0.66666668653488159 0
vt 0.99853515625 0.4444444477558136
vt 0.66666668653488159 0.4444444477558136
vt 0.99853515625 0.2222222238779068
vt 0.83260089159011841 0.4444444477558136
vt 0.66666668653488159 0.2222222238779068
vt 0.83260089159011841 0
vt 0 0.1944444477558136
vt 0 0.3874240517616272
vt 0.4444444477558136 0.1944444477558136
vt 0.4444444477558136 0.3874240517616272
vt 0.2222222238779068 0.1944444477558136
vt 0.2222222238779068 0.3874240517616272
vt 0 0.6111111044883728
vt 0 0.80555558204650879
vt 0.3318684995174408 0.6111111044883728
vt 0.3318684995174408 0.80555558204650879
vt 0.1659342497587204 0.6111111044883728
vt 0.1659342497587204 0.80555558204650879
vt 0 0
vt 0 0.1929796040058136
vt 0.4444444477558136 0
vt 0.4444444477558136 0.1929796040058136
vt 0.2222222238779068 0
vt 0.2222222238779068 0.1929796040058136
vt 0 0.3888888955116272
vt 0 0.58333331346511841
vt 0.3318684995174408 0.3888888955116272
vt 0.3318684995174408 0.58333331346511841
vt 0.1659342497587204 0.3888888955116272
vt 0.1659342497587204 0.58333331346511841
vt 0.66520184278488159 0.3888888955116272
vt 0.3333333432674408 0.3888888955116272
vt 0.66520184278488159 0.83186846971511841
vt 0.3333333432674408 0.83186846971511841
vt 0.66520184278488159 0.6103786826133728
vt 0.499267578125 0.83186846971511841
vt 0.3333333432674408 0.6103786826133728
vt 0.499267578125 0.3888888955116272
vn 0 -1 0
vn 0 -1 0
vn 0 -1 0
vn 0 -1 0
vn 0 -1 0
vn 0 -1 0
vn 0 -1 0
vn 0 -1 0
vn 0 0 1
vn 0 0 1
vn 0 0 1
vn 0 0 1
vn 0 0 1
vn 0 0 1
vn 1 0 0
vn 1 0 0
vn 1 0 0
vn 1 0 0
vn 1 0 0
vn 1 0 0
vn 0 0 -1
vn 0 0 -1
vn 0 0 -1
vn 0 0 -1
vn 0 0 -1
vn 0 0 -1
vn -1 0 0
vn -1 0 0
vn -1 0 0
vn -1 0 0
vn -1 0 0
vn -1 0 0
vn 0 1 0
vn 0 1 0
vn 0 1 0
vn 0 1 0
vn 0 1 0
vn 0 1 0
vn 0 1 0
vn 0 1 0
f 358/358/358 355/355/355 351/351/351
f 358/358/358 352/352/352 357/357/357
f 356/356/356 355/355/355 358/358/358
f 358/358/358 357/357/357 356/356/356
f 356/356/356 357/357/357 354/354/354
f 353/353/353 355/355/355 356/356/356
f 360/360/360 364/364/364 363/363/363 359/359/359
f 361/361/361 363/363/363 364/364/364 362/362/362
f 366/366/366 370/370/370 369/369/369 365/365/365
f 367/367/367 369/369/369 370/370/370 368/368/368
f 372/372/372 376/376/376 375/375/375 371/371/371
f 373/373/373 375/375/375 376/376/376 374/374/374
f 378/378/378 382/382/382 381/381/381 377/377/377
f 379/379/379 381/381/381 382/382/382 380/380/380
f 390/390/390 383/383/383 387/387/387
f 390/390/390 389/389/389 384/384/384
f 388/388/388 390/390/390 387/387/387
f 390/390/390 388/388/388 389/389/389
f 388/388/388 386/386/386 389/389/389
f 385/385/385 388/388/388 387/387/387
usemtl Default
v 4 0 -2
v 4 0 -8
v 8 0 -2
v 8 0 -8
v 6 0 -2
v 8 0 -5
v 6 0 -8
v 4 0 -5
v 8 0 -2
v 8 3.5 -2
v 4 0 -2
v 4 3.5 -2
v 6 0 -2
v 4 1.75 -2
v 6 3.5 -2
v 8 1.75 -2
v 8 0 -8
v 8 3.5 -8
v 8 0 -2
v 8 3.5 -2
v 8 0 -5
v 8 1.75 -2
v 8 3.5 -5
v 8 1.75 -8
v 4 0 -8
v 4 3.5 -8
v 8 0 -8
v 8 3.5 -8
v 6 0 -8
v 8 1.75 -8
v 6 3.5 -8
v 4 1.75 -8
v 4 0 -2
v 4 3.5 -2
v 4 0 -8
v 4 3.5 -8
v 4 0 -5
v 4 1.75 -2
v 4 1.75 -8
v 4 3.5 -5
v 4 3.5 -2
v 4 3.5 -8
v 8 3.5 -2
v 8 3.5 -8
v 6 3.5 -2
v 8 3.5 -5
v 6 3.5 -8
v 4 3.5 -5
vt 0.3333333432674408 0.5
vt 0.3333333432674408 0.99853515625
vt 0.66520184278488159 0.5
vt 0.66520184278488159 0.99853515625
vt 0.499267578125 0.5
vt 0.66520184278488159 0.749267578125
vt 0.499267578125 0.99853515625
vt 0.3333333432674408 0.749267578125
vt 0.66666668653488159 0.5
vt 0.66666668653488159 0.79166668653488159
vt 0.99853515625 0.5
vt 0.99853515625 0.79166668653488159
vt 0.83260089159011841 0.5
vt 0.99853515625 0.64583331346511841
vt 0.83260089159011841 0.79166668653488159
vt 0.66666668653488159 0.64583331346511841
vt 0.625 0
vt 0.3333333432674408 0
vt 0.625 0.49853515625
vt 0.3333333432674408 0.49853515625
vt 0.625 0.249267578125
vt 0.4791666567325592 0.49853515625
vt 0.3333333432674408 0.249267578125
vt 0.4791666567325592 0
vt 0.66666668653488159 0
vt 0.66666668653488159 0.2916666567325592
vt 0.99853515625 0
vt 0.99853515625 0.2916666567325592
vt 0.83260089159011841 0
vt 0.99853515625 0.1458333283662796
vt 0.83260089159011841 0.2916666567325592
vt 0.66666668653488159 0.1458333283662796
vt 0.2916666567325592 0
vt 0 0
vt 0.2916666567325592 0.49853515625
vt 0 0.49853515625
vt 0.2916666567325592 0.249267578125
vt 0.1458333283662796 0
vt 0.1458333283662796 0.49853515625
vt 0 0.249267578125
vt 0 0.5
vt 0 0.99853515625
vt 0.3318684995174408 0.5
vt 0.3318684995174408 0.99853515625
vt 0.1659342497587204 0.5
vt 0.3318684995174408 0.749267578125
vt 0.1659342497587204 0.99853515625
vt 0 0.749267578125
vn 0 -1 0
vn 0 -1 0
vn 0 -1 0
vn 0 -1 0
vn 0 -1 0
vn 0 -1 0
vn 0 -1 0
vn 0 -1 0
vn 0 0 1
vn 0 0 1
vn 0 0 1
vn 0 0 1
vn 0 0 1
vn 0 0 1
vn 0 0 1
vn 0 0 1
vn 1 0 0
vn 1 0 0
vn 1 0 0
vn 1 0 0
vn 1 0 0
vn 1 0 0
vn 1 0 0
vn 1 0 0
vn 0 0 -1
vn 0 0 -1
vn 0 0 -1
vn 0 0 -1
vn 0 0 -1
vn 0 0 -1
vn 0 0 -1
vn 0 0 -1
vn -1 0 0
vn -1 0 0
vn -1 0 0
vn -1 0 0
vn -1 0 0
vn -1 0 0
vn -1 0 0
vn -1 0 0
vn 0 1 0
vn 0 1 0
vn 0 1 0
vn 0 1 0
vn 0 1 0
vn 0 1 0
vn 0 1 0
vn 0 1 0
f 398/398/398 395/395/395 391/391/391
f 398/398/398 392/392/392 397/397/397
f 396/396/396 395/395/395 398/398/398
f 398/398/398 397/397/397 396/396/396
f 396/396/396 397/397/397 394/394/394
f 393/393/393 395/395/395 396/396/396
f 406/406/406 403/403/403 399/399/399
f 406/406/406 400/400/400 405/405/405
f 404/404/404 403/403/403 406/406/406
f 406/406/406 405/405/405 404/404/404
f 404/404/404 405/405/405 402/402/402
f 401/401/401 403/403/403 404/404/404
f 414/414/414 411/411/411 407/407/407
f 414/414/414 408/408/408 413/413/413
f 412/412/412 411/411/411 414/414/414
f 414/414/414 413/413/413 412/412/412
f 412/412/412 413/413/413 410/410/410
f 409/409/409 411/411/411 412/412/412
f 422/422/422 419/419/419 415/415/415
f 422/422/422 416/416/416 421/421/421
f 420/420/420 419/419/419 422/422/422
f 422/422/422 421/421/421 420/420/420
f 420/420/420 421/421/421 418/418/418
f 417/417/417 419/419/419 420/420/420
f 428/428/428 427/427/427 423/423/423
f 428/428/428 424/424/424 430/430/430
f 429/429/429 427/427/427 428/428/428
f 428/428/428 430/430/430 429/429/429
f 429/429/429 430/430/430 426/426/426
f 425/425/425 427/427/427 429/429/429
f 438/438/438 431/431/431 435/435/435
f 438/438/438 437/437/437 432/432/432
f 436/436/436 438/438/438 435/435/435
f 438/438/438 436/436/436 437/437/437
f 436/436/436 434/434/434 437/437/437
f 433/433/433 436/436/436 435/435/435
usemtl Default
v 12 0 -2
v 12 0 -8
v 20 0 -2
v 20 0 -8
v 16 0 -2
v 20 0 -5
v 16 0 -8
v 12 0 -5
v 20 0 -2
v 20 3.5 -2
v 12 0 -2
v 12 3.5 -2
v 16 0 -2
v 16 3.5 -2
v 20 0 -8
v 20 3.5 -8
v 20 0 -2
v 20 3.5 -2
v 20 0 -5
v 20 3.5 -5
v 12 0 -8
v 12 3.5 -8
v 20 0 -8
v 20 3.5 -8
v 16 0 -8
v 16 3.5 -8
v 12 0 -2
v 12 3.5 -2
v 12 0 -8
v 12 3.5 -8
v 12 0 -5
v 12 3.5 -5
v 12 3.5 -2
v 12 3.5 -8
v 20 3.5 -2
v 20 3.5 -8
v 16 3.5 -2
v 20 3.5 -5
v 16 3.5 -8
v 12 3.5 -5
vt 0.99853515625 0
vt 0.66666668653488159 0
vt 0.99853515625 0.4444444477558136
vt 0.66666668653488159 0.4444444477558136
vt 0.99853515625 0.2222222238779068
vt 0.83260089159011841 0.4444444477558136
vt 0.66666668653488159 0.2222222238779068
vt 0.83260089159011841 0
vt 0 0.1944444477558136
vt 0 0.3874240517616272
vt 0.4444444477558136 0.1944444477558136
vt 0.4444444477558136 0.3874240517616272
vt 0.2222222238779068 0.1944444477558136
vt 0.2222222238779068 0.3874240517616272
vt 0 0.6111111044883728
vt 0 0.80555558204650879
vt 0.3318684995174408 0.6111111044883728
vt 0.3318684995174408 0.80555558204650879
vt 0.1659342497587204 0.6111111044883728
vt 0.1659342497587204 0.80555558204650879
vt 0 0
vt 0 0.1929796040058136
vt 0.4444444477558136 0
vt 0.4444444477558136 0.1929796040058136
vt 0.2222222238779068 0
vt 0.2222222238779068 0.1929796040058136
vt 0 0.3888888955116272
vt 0 0.58333331346511841
vt 0.3318684995174408 0.3888888955116272
vt 0.3318684995174408 0.58333331346511841
vt 0.1659342497587204 0.3888888955116272
vt 0.1659342497587204 0.58333331346511841
vt 0.66520184278488159 0.3888888955116272
vt 0.3333333432674408 0.3888888955116272
vt 0.66520184278488159 0.83186846971511841
vt 0.3333333432674408 0.83186846971511841
vt 0.66520184278488159 0.6103786826133728
vt 0.499267578125 0.83186846971511841
vt 0.3333333432674408 0.6103786826133728
vt 0.499267578125 0.3888888955116272
vn 0 -1 0
vn 0 -1 0
vn 0 -1 0
vn 0 -1 0
vn 0 -1 0
vn 0 -1 0
vn 0 -1 0
vn 0 -1 0
vn 0 0 1
vn 0 0 1
vn 0 0 1
vn 0 0 1
vn 0 0 1
vn 0 0 1
vn 1 0 0
vn 1 0 0
vn 1 0 0
vn 1 0 0
vn 1 0 0
vn 1 0 0
vn 0 0 -1
vn 0 0 -1
vn 0 0 -1
vn 0 0 -1
vn 0 0 -1
vn 0 0 -1
vn -1 0 0
vn -1 0 0
vn -1 0 0
vn -1 0 0
vn -1 0 0
vn -1 0 0
vn 0 1 0
vn 0 1 0
vn 0 1 0
vn 0 1 0
vn 0 1 0
vn 0 1 0
vn 0 1 0
vn 0 1 0
f 446/446/446 443/443/443 439/439/439
f 446/446/446 440/440/440 445/445/445
f 445/445/445 443/443/443 446/446/446
f 443/443/443 445/445/445 444/444/444
f 444/444/444 445/445/445 442/442/442
f 441/441/441 443/443/443 444/444/444
f 448/448/448 452/452/452 451/451/451 447/447/447
f 449/449/449 451/451/451 452/452/452 450/450/450
f 454/454/454 458/458/458 457/457/457 453/453/453
f 455/455/455 457/457/457 458/458/458 456/456/456
f 460/460/460 464/464/464 463/463/463 459/459/459
f 461/461/461 463/463/463 464/464/464 462/462/462
f 466/466/466 470/470/470 469/469/469 465/465/465
f 467/467/467 469/469/469 470/470/470 468/468/468
f 478/478/478 471/471/471 475/475/475
f 478/478/478 477/477/477 472/472/472
f 477/477/477 478/478/478 475/475/475
f 475/475/475 476/476/476 477/477/477
f 476/476/476 474/474/474 477/477/477
f 473/473/473 476/476/476 475/475/475
usemtl Default
v 30 0 -2
v 30 0 -8
v 38 0 -2
v 38 0 -8
v 34 0 -2
v 38 0 -5
v 34 0 -8
v 30 0 -5
v 38 0 -2
v 38 3.5 -2
v 30 0 -2
v 30 3.5 -2
v 34 0 -2
v 34 3.5 -2
v 38 0 -8
v 38 3.5 -8
v 38 0 -2
v 38 3.5 -2
v 38 0 -5
v 38 3.5 -5
v 30 0 -8
v 30 3.5 -8
v 38 0 -8
v 38 3.5 -8
v 34 0 -8
v 34 3.5 -8
v 30 0 -2
v 30 3.5 -2
v 30 0 -8
v 30 3.5 -8
v 30 0 -5
v 30 3.5 -5
v 30 3.5 -2
v 30 3.5 -8
v 38 3.5 -2
v 38 3.5 -8
v 34 3.5 -2
v 38 3.5 -5
v 34 3.5 -8
v 30 3.5 -5
vt 0.99853515625 0
vt 0.66666668653488159 0
vt 0.99853515625 0.4444444477558136
vt 0.66666668653488159 0.4444444477558136
vt 0.99853515625 0.2222222238779068
vt 0.83260089159011841 0.4444444477558136
vt 0.66666668653488159 0.2222222238779068
vt 0.83260089159011841 0
vt 0 0.1944444477558136
vt 0 0.3874240517616272
vt 0.4444444477558136 0.1944444477558136
vt 0.4444444477558136 0.3874240517616272
vt 0.2222222238779068 0.1944444477558136
vt 0.2222222238779068 0.3874240517616272
vt 0 0.6111111044883728
vt 0 0.80555558204650879
vt 0.3318684995174408 0.6111111044883728
vt 0.3318684995174408 0.80555558204650879
vt 0.1659342497587204 0.6111111044883728
vt 0.1659342497587204 0.80555558204650879
vt 0 0
vt 0 0.1929796040058136
vt 0.4444444477558136 0
vt 0.4444444477558136 0.1929796040058136
vt 0.2222222238779068 0
vt 0.2222222238779068 0.1929796040058136
vt 0 0.3888888955116272
vt 0 0.58333331346511841
vt 0.3318684995174408 0.3888888955116272
vt 0.3318684995174408 0.58333331346511841
vt 0.1659342497587204 0.3888888955116272
vt 0.1659342497587204 0.58333331346511841
vt 0.66520184278488159 0.3888888955116272
vt 0.3333333432674408 0.3888888955116272
vt 0.66520184278488159 0.83186846971511841
vt 0.3333333432674408 0.83186846971511841
vt 0.66520184278488159 0.6103786826133728
vt 0.499267578125 0.83186846971511841
vt 0.3333333432674408 0.6103786826133728
vt 0.499267578125 0.3888888955116272
vn 0 -1 0
vn 0 -1 0
vn 0 -1 0
vn 0 -1 0
vn 0 -1 0
vn 0 -1 0
vn 0 -1 0
vn 0 -1 0
vn 0 0 1
vn 0 0 1
vn 0 0 1
vn 0 0 1
vn 0 0 1
vn 0 0 1
vn 1 0 0
vn 1 0 0
vn 1 0 0
vn 1 0 0
vn 1 0 0
vn 1 0 0
vn 0 0 -1
vn 0 0 -1
vn 0 0 -1
vn 0 0 -1
vn 0 0 -1
vn 0 0 -1
vn -1 0 0
vn -1 0 0
vn -1 0 0
vn -1 0 0
vn -1 0 0
vn -1 0 0
vn 0 1 0
vn 0 1 0
vn 0 1 0
vn 0 1 0
vn 0 1 0
vn 0 1 0
vn 0 1 0
vn 0 1 0
f 486/486/486 483/483/483 479/479/479
f 486/486/486 480/480/480 485/485/485
f 485/485/485 483/483/483 486/486/486
f 483/483/483 485/485/485 484/484/484
f 484/484/484 485/485/485 482/482/482
f 481/481/481 483/483/483 484/484/484
f 488/488/488 492/492/492 491/491/491 487/487/487
f 489/489/489 491/491/491 492/492/492 490/490/490
f 494/494/494 498/498/498 497/497/497 493/493/493
f 495/495/495 497/497/497 498/498/498 496/496/496
f 500/500/500 504/504/504 503/503/503 499/499/499
f 501/501/501 503/503/503 504/504/504 502/502/502
f 506/506/506 510/510/510 509/509/509 505/505/505
f 507/507/507 509/509/509 510/510/510 508/508/508
f 518/518/518 511/511/511 515/515/515
f 518/518/518 517/517/517 512/512/512
f 517/517/517 518/518/518 515/515/515
f 515/515/515 516/516/516 517/517/517
f 516/516/516 514/514/514 517/517/517
f 513/513/513 516/516/516 515/515/515
usemtl Default
v 0 0 0
v 0 0 -8
v 4 0 0
v 4 0 -8
v 2 0 0
v 4 0 -4
v 2 0 -8
v 0 0 -4
v 4 0 0
v 4 3.5 0
v 0 0 0
v 0 3.5 0
v 2 0 0
v 0 1.75 0
v 2 3.5 0
v 4 1.75 0
v 4 0 -8
v 4 3.5 -8
v 4 0 0
v 4 3.5 0
v 4 0 -4
v 4 1.75 0
v 4 3.5 -4
v 4 1.75 -8
v 0 0 -8
v 0 3.5 -8
v 4 0 -8
v 4 3.5 -8
v 2 0 -8
v 4 1.75 -8
v 2 3.5 -8
v 0 1.75 -8
v 0 0 0
v 0 3.5 0
v 0 0 -8
v 0 3.5 -8
v 0 0 -4
v 0 1.75 0
v 0 1.75 -8
v 0 3.5 -4
v 0 3.5 0
v 0 3.5 -8
v 4 3.5 0
v 4 3.5 -8
v 2 3.5 0
v 4 3.5 -4
v 2 3.5 -8
v 0 3.5 -4
vt 0.73333334922790527 0
vt 0.73333334922790527 0.53333336114883423
vt 0.99853515625 0
vt 0.99853515625 0.53333336114883423
vt 0.86593425273895264 0
vt 0.99853515625 0.26666668057441711
vt 0.86593425273895264 0.53333336114883423
vt 0.73333334922790527 0.26666668057441711
vt 0.46520182490348816 0
vt 0.23333333432674408 0
vt 0.46520182490348816 0.26520183682441711
vt 0.23333333432674408 0.26520183682441711
vt 0.46520182490348816 0.13260091841220856
vt 0.34926757216453552 0.26520183682441711
vt 0.23333333432674408 0.13260091841220856
vt 0.34926757216453552 0
vt 0.46520182490348816 0.26666668057441711
vt 0.23333333432674408 0.26666668057441711
vt 0.46520182490348816 0.79853516817092896
vt 0.23333333432674408 0.79853516817092896
vt 0.46520182490348816 0.53260093927383423
vt 0.34926757216453552 0.79853516817092896
vt 0.23333333432674408 0.53260093927383423
vt 0.34926757216453552 0.26666668057441711
vt 0.23186849057674408 0
vt 0 0
vt 0.23186849057674408 0.26520183682441711
vt 0 0.26520183682441711
vt 0.23186849057674408 0.13260091841220856
vt 0.11593424528837204 0.26520183682441711
vt 0 0.13260091841220856
vt 0.11593424528837204 0
vt 0.23186849057674408 0.26666668057441711
vt 0 0.26666668057441711
vt 0.23186849057674408 0.79853516817092896
vt 0 0.79853516817092896
vt 0.23186849057674408 0.53260093927383423
vt 0.11593424528837204 0.26666668057441711
vt 0.11593424528837204 0.79853516817092896
vt 0 0.53260093927383423
vt 0.46666666865348816 0
vt 0.46666666865348816 0.53333336114883423
vt 0.73186850547790527 0
vt 0.73186850547790527 0.53333336114883423
vt 0.59926760196685791 0
vt 0.73186850547790527 0.26666668057441711
vt 0.59926760196685791 0.53333336114883423
vt 0.46666666865348816 0.26666668057441711
vn 0 -1 0
vn 0 -1 0
vn 0 -1 0
vn 0 -1 0
vn 0 -1 0
vn 0 -1 0
vn 0 -1 0
vn 0 -1 0
vn 0 0 1
vn 0 0 1
vn 0 0 1
vn 0 0 1
vn 0 0 1
vn 0 0 1
vn 0 0 1
vn 0 0 1
vn 1 0 0
vn 1 0 0
vn 1 0 0
vn 1 0 0
vn 1 0 0
vn 1 0 0
vn 1 0 0
vn 1 0 0
vn 0 0 -1
vn 0 0 -1
vn 0 0 -1
vn 0 0 -1
vn 0 0 -1
vn 0 0 -1
vn 0 0 -1
vn 0 0 -1
vn -1 0 0
vn -1 0 0
vn -1 0 0
vn -1 0 0
vn -1 0 0
vn -1 0 0
vn -1 0 0
vn -1 0 0
vn 0 1 0
vn 0 1 0
vn 0 1 0
vn 0 1 0
vn 0 1 0
vn 0 1 0
vn 0 1 0
vn 0 1 0
f 526/526/526 523/523/523 519/519/519
f 526/526/526 520/520/520 525/525/525
f 524/524/524 523/523/523 526/526/526
f 526/526/526 525/525/525 524/524/524
f 524/524/524 525/525/525 522/522/522
f 521/521/521 523/523/523 524/524/524
f 534/534/534 531/531/531 527/527/527
f 534/534/534 528/528/528 533/533/533
f 532/532/532 531/531/531 534/534/534
f 534/534/534 533/533/533 532/532/532
f 532/532/532 533/533/533 530/530/530
f 529/529/529 531/531/531 532/532/532
f 542/542/542 539/539/539 535/535/535
f 542/542/542 536/536/536 541/541/541
f 540/540/540 539/539/539 542/542/542
f 542/542/542 541/541/541 540/540/540
f 540/540/540 541/541/541 538/538/538
f 537/537/537 539/539/539 540/540/540
f 550/550/550 547/547/547 543/543/543
f 550/550/550 544/544/544 549/549/549
f 548/548/548 547/547/547 550/550/550
f 550/550/550 549/549/549 548/548/548
f 548/548/548 549/549/549 546/546/546
f 545/545/545 547/547/547 548/548/548
f 556/556/556 555/555/555 551/551/551
f 556/556/556 552/552/552 558/558/558
f 557/557/557 555/555/555 556/556/556
f 556/556/556 558/558/558 557/557/557
f 557/557/557 558/558/558 554/554/554
f 553/553/553 555/555/555 557/557/557
f 566/566/566 559/559/559 563/563/563
f 566/566/566 565/565/565 560/560/560
f 564/564/564 566/566/566 563/563/563
f 566/566/566 564/564/564 565/565/565
f 564/564/564 562/562/562 565/565/565
f 561/561/561 564/564/564 563/563/563
usemtl Default
v 25 0 -2
v 25 0 -8
v 30 0 -2
v 30 0 -8
v 27.5 0 -2
v 30 0 -5
v 27.5 0 -8
v 25 0 -5
v 30 0 -2
v 30 3.5 -2
v 25 0 -2
v 25 3.5 -2
v 27.5 0 -2
v 27.5 3.5 -2
v 30 0 -8
v 30 3.5 -8
v 30 0 -2
v 30 3.5 -2
v 30 0 -5
v 30 3.5 -5
v 25 0 -8
v 25 3.5 -8
v 30 0 -8
v 30 3.5 -8
v 27.5 0 -8
v 27.5 3.5 -8
v 25 0 -2
v 25 3.5 -2
v 25 0 -8
v 25 3.5 -8
v 25 0 -5
v 25 3.5 -5
v 25 3.5 -2
v 25 3.5 -8
v 30 3.5 -2
v 30 3.5 -8
v 27.5 3.5 -2
v 30 3.5 -5
v 27.5 3.5 -8
v 25 3.5 -5
vt 0.46007362008094788 0.42307692766189575
vt 0 0.42307692766189575
vt 0.46007362008094788 0.80769228935241699
vt 0 0.80769228935241699
vt 0.46007362008094788 0.61538463830947876
vt 0.23003681004047394 0.80769228935241699
vt 0 0.61538463830947876
vt 0.23003681004047394 0.42307692766189575
vt 0.99853515625 0
vt 0.73076921701431274 0
vt 0.99853515625 0.38315054774284363
vt 0.73076921701431274 0.38315054774284363
vt 0.99853515625 0.19157527387142181
vt 0.73076921701431274 0.19157527387142181
vt 0.99853515625 0.38461539149284363
vt 0.73076921701431274 0.38461539149284363
vt 0.99853515625 0.8446890115737915
vt 0.73076921701431274 0.8446890115737915
vt 0.99853515625 0.61465221643447876
vt 0.73076921701431274 0.61465221643447876
vt 0.72930437326431274 0
vt 0.46153846383094788 0
vt 0.72930437326431274 0.38315054774284363
vt 0.46153846383094788 0.38315054774284363
vt 0.72930437326431274 0.19157527387142181
vt 0.46153846383094788 0.19157527387142181
vt 0.72930437326431274 0.38461539149284363
vt 0.46153846383094788 0.38461539149284363
vt 0.72930437326431274 0.8446890115737915
vt 0.46153846383094788 0.8446890115737915
vt 0.72930437326431274 0.61465221643447876
vt 0.46153846383094788 0.61465221643447876
vt 0.46007362008094788 0
vt 0 0
vt 0.46007362008094788 0.38461539149284363
vt 0 0.38461539149284363
vt 0.46007362008094788 0.19230769574642181
vt 0.23003681004047394 0.38461539149284363
vt 0 0.19230769574642181
vt 0.23003681004047394 0
vn 0 -1 0
vn 0 -1 0
vn 0 -1 0
vn 0 -1 0
vn 0 -1 0
vn 0 -1 0
vn 0 -1 0
vn 0 -1 0
vn 0 0 1
vn 0 0 1
vn 0 0 1
vn 0 0 1
vn 0 0 1
vn 0 0 1
vn 1 0 0
vn 1 0 0
vn 1 0 0
vn 1 0 0
vn 1 0 0
vn 1 0 0
vn 0 0 -1
vn 0 0 -1
vn 0 0 -1
vn 0 0 -1
vn 0 0 -1
vn 0 0 -1
vn -1 0 0
vn -1 0 0
vn -1 0 0
vn -1 0 0
vn -1 0 0
vn -1 0 0
vn 0 1 0
vn 0 1 0
vn 0 1 0
vn 0 1 0
vn 0 1 0
vn 0 1 0
vn 0 1 0
vn 0 1 0
f 574/574/574 571/571/571 567/567/567
f 574/574/574 568/568/568 573/573/573
f 572/572/572 571/571/571 574/574/574
f 574/574/574 573/573/573 572/572/572
f 572/572/572 573/573/573 570/570/570
f 569/569/569 571/571/571 572/572/572
f 576/576/576 580/580/580 579/579/579 575/575/575
f 577/577/577 579/579/579 580/580/580 578/578/578
f 582/582/582 586/586/586 585/585/585 581/581/581
f 583/583/583 585/585/585 586/586/586 584/584/584
f 588/588/588 592/592/592 591/591/591 587/587/587
f 589/589/589 591/591/591 592/592/592 590/590/590
f 594/594/594 598/598/598 597/597/597 593/593/593
f 595/595/595 597/597/597 598/598/598 596/596/596
f 606/606/606 599/599/599 603/603/603
f 606/606/606 605/605/605 600/600/600
f 604/604/604 606/606/606 603/603/603
f 606/606/606 604/604/604 605/605/605
f 604/604/604 602/602/602 605/605/605
f 601/601/601 604/604/604 603/603/603
usemtl Default
v 61 0 0
v 61 0 -8
v 65 0 0
v 65 0 -8
v 63 0 0
v 65 0 -4
v 63 0 -8
v 61 0 -4
v 65 0 0
v 65 3.5 0
v 61 0 0
v 61 3.5 0
v 63 0 0
v 61 1.75 0
v 63 3.5 0
v 65 1.75 0
v 65 0 -8
v 65 3.5 -8
v 65 0 0
v 65 3.5 0
v 65 0 -4
v 65 1.75 0
v 65 3.5 -4
v 65 1.75 -8
v 61 0 -8
v 61 3.5 -8
v 65 0 -8
v 65 3.5 -8
v 63 0 -8
v 65 1.75 -8
v 63 3.5 -8
v 61 1.75 -8
v 61 0 0
v 61 3.5 0
v 61 0 -8
v 61 3.5 -8
v 61 0 -4
v 61 1.75 0
v 61 1.75 -8
v 61 3.5 -4
v 61 3.5 0
v 61 3.5 -8
v 65 3.5 0
v 65 3.5 -8
v 63 3.5 0
v 65 3.5 -4
v 63 3.5 -8
v 61 3.5 -4
vt 0.73333334922790527 0
vt 0.73333334922790527 0.53333336114883423
vt 0.99853515625 0
vt 0.99853515625 0.53333336114883423
vt 0.86593425273895264 0
vt 0.99853515625 0.26666668057441711
vt 0.86593425273895264 0.53333336114883423
vt 0.73333334922790527 0.26666668057441711
vt 0.46520182490348816 0
vt 0.23333333432674408 0
vt 0.46520182490348816 0.26520183682441711
vt 0.23333333432674408 0.26520183682441711
vt 0.46520182490348816 0.13260091841220856
vt 0.34926757216453552 0.26520183682441711
vt 0.23333333432674408 0.13260091841220856
vt 0.34926757216453552 0
vt 0.46520182490348816 0.26666668057441711
vt 0.23333333432674408 0.26666668057441711
vt 0.46520182490348816 0.79853516817092896
vt 0.23333333432674408 0.79853516817092896
vt 0.46520182490348816 0.53260093927383423
vt 0.34926757216453552 0.79853516817092896
vt 0.23333333432674408 0.53260093927383423
vt 0.34926757216453552 0.26666668057441711
vt 0.23186849057674408 0
vt 0 0
vt 0.23186849057674408 0.26520183682441711
vt 0 0.26520183682441711
vt 0.23186849057674408 0.13260091841220856
vt 0.11593424528837204 0.26520183682441711
vt 0 0.13260091841220856
vt 0.11593424528837204 0
vt 0.23186849057674408 0.26666668057441711
vt 0 0.26666668057441711
vt 0.23186849057674408 0.79853516817092896
vt 0 0.79853516817092896
vt 0.23186849057674408 0.53260093927383423
vt 0.11593424528837204 0.26666668057441711
vt 0.11593424528837204 0.79853516817092896
vt 0 0.53260093927383423
vt 0.46666666865348816 0
vt 0.46666666865348816 0.53333336114883423
vt 0.73186850547790527 0
vt 0.73186850547790527 0.53333336114883423
vt 0.59926760196685791 0
vt 0.73186850547790527 0.26666668057441711
vt 0.59926760196685791 0.53333336114883423
vt 0.46666666865348816 0.26666668057441711
vn 0 -1 0
vn 0 -1 0
vn 0 -1 0
vn 0 -1 0
vn 0 -1 0
vn 0 -1 0
vn 0 -1 0
vn 0 -1 0
vn 0 0 1
vn 0 0 1
vn 0 0 1
vn 0 0 1
vn 0 0 1
vn 0 0 1
vn 0 0 1
vn 0 0 1
vn 1 0 0
vn 1 0 0
vn 1 0 0
vn 1 0 0
vn 1 0 0
vn 1 0 0
vn 1 0 0
vn 1 0 0
vn 0 0 -1
vn 0 0 -1
vn 0 0 -1
vn 0 0 -1
vn 0 0 -1
vn 0 0 -1
vn 0 0 -1
vn 0 0 -1
vn -1 0 0
vn -1 0 0
vn -1 0 0
vn -1 0 0
vn -1 0 0
vn -1 0 0
vn -1 0 0
vn -1 0 0
vn 0 1 0
vn 0 1 0
vn 0 1 0
vn 0 1 0
vn 0 1 0
vn 0 1 0
vn 0 1 0
vn 0 1 0
f 614/614/614 611/611/611 607/607/607
f 614/614/614 608/608/608 613/613/613
f 612/612/612 611/611/611 614/614/614
f 614/614/614 613/613/613 612/612/612
f 612/612/612 613/613/613 610/610/610
f 609/609/609 611/611/611 612/612/612
f 622/622/622 619/619/619 615/615/615
f 622/622/622 616/616/616 621/621/621
f 620/620/620 619/619/619 622/622/622
f 622/622/622 621/621/621 620/620/620
f 620/620/620 621/621/621 618/618/618
f 617/617/617 619/619/619 620/620/620
f 630/630/630 627/627/627 623/623/623
f 630/630/630 624/624/624 629/629/629
f 628/628/628 627/627/627 630/630/630
f 630/630/630 629/629/629 628/628/628
f 628/628/628 629/629/629 626/626/626
f 625/625/625 627/627/627 628/628/628
f 638/638/638 635/635/635 631/631/631
f 638/638/638 632/632/632 637/637/637
f 636/636/636 635/635/635 638/638/638
f 638/638/638 637/637/637 636/636/636
f 636/636/636 637/637/637 634/634/634
f 633/633/633 635/635/635 636/636/636
f 644/644/644 643/643/643 639/639/639
f 644/644/644 640/640/640 646/646/646
f 645/645/645 643/643/643 644/644/644
f 644/644/644 646/646/646 645/645/645
f 645/645/645 646/646/646 642/642/642
f 641/641/641 643/643/643 645/645/645
f 654/654/654 647/647/647 651/651/651
f 654/654/654 653/653/653 648/648/648
f 652/652/652 654/654/654 651/651/651
f 654/654/654 652/652/652 653/653/653
f 652/652/652 650/650/650 653/653/653
f 649/649/649 652/652/652 651/651/651
usemtl Default
v 30 0 5
v 30 0 0
v 37 0 5
v 37 0 0
v 33.5 0 5
v 37 0 2.5
v 33.5 0 0
v 30 0 2.5
v 37 0 5
v 37 3.5 5
v 30 0 5
v 30 3.5 5
v 33.5 0 5
v 33.5 3.5 5
v 37 0 0
v 37 3.5 0
v 37 0 5
v 37 3.5 5
v 37 0 2.5
v 37 3.5 2.5
v 30 0 0
v 30 3.5 0
v 37 0 0
v 37 3.5 0
v 33.5 0 0
v 33.5 3.5 0
v 30 0 5
v 30 3.5 5
v 30 0 0
v 30 3.5 0
v 30 0 2.5
v 30 3.5 2.5
v 30 3.5 5
v 30 3.5 0
v 37 3.5 5
v 37 3.5 0
v 33.5 3.5 5
v 37 3.5 2.5
v 33.5 3.5 0
v 30 3.5 2.5
vt 0.66520184278488159 0.46666666865348816
vt 0.3333333432674408 0.46666666865348816
vt 0.66520184278488159 0.93186849355697632
vt 0.3333333432674408 0.93186849355697632
vt 0.66520184278488159 0.69926756620407104
vt 0.499267578125 0.93186849355697632
vt 0.3333333432674408 0.69926756620407104
vt 0.499267578125 0.46666666865348816
vt 0 0.23333333432674408
vt 0 0.46520182490348816
vt 0.46666666865348816 0.23333333432674408
vt 0.46666666865348816 0.46520182490348816
vt 0.23333333432674408 0.23333333432674408
vt 0.23333333432674408 0.46520182490348816
vt 0.66666668653488159 0.46666666865348816
vt 0.66666668653488159 0.69999998807907104
vt 0.99853515625 0.46666666865348816
vt 0.99853515625 0.69999998807907104
vt 0.83260089159011841 0.46666666865348816
vt 0.83260089159011841 0.69999998807907104
vt 0 0
vt 0 0.23186849057674408
vt 0.46666666865348816 0
vt 0.46666666865348816 0.23186849057674408
vt 0.23333333432674408 0
vt 0.23333333432674408 0.23186849057674408
vt 0.66666668653488159 0
vt 0.66666668653488159 0.23333333432674408
vt 0.99853515625 0
vt 0.99853515625 0.23333333432674408
vt 0.83260089159011841 0
vt 0.83260089159011841 0.23333333432674408
vt 0.3318684995174408 0.46666666865348816
vt 0 0.46666666865348816
vt 0.3318684995174408 0.93186849355697632
vt 0 0.93186849355697632
vt 0.3318684995174408 0.69926756620407104
vt 0.1659342497587204 0.93186849355697632
vt 0 0.69926756620407104
vt 0.1659342497587204 0.46666666865348816
vn 0 -1 0
vn 0 -1 0
vn 0 -1 0
vn 0 -1 0
vn 0 -1 0
vn 0 -1 0
vn 0 -1 0
vn 0 -1 0
vn 0 0 1
vn 0 0 1
vn 0 0 1
vn 0 0 1
vn 0 0 1
vn 0 0 1
vn 1 0 0
vn 1 0 0
vn 1 0 0
vn 1 0 0
vn 1 0 0
vn 1 0 0
vn 0 0 -1
vn 0 0 -1
vn 0 0 -1
vn 0 0 -1
vn 0 0 -1
vn 0 0 -1
vn -1 0 0
vn -1 0 0
vn -1 0 0
vn -1 0 0
vn -1 0 0
vn -1 0 0
vn 0 1 0
vn 0 1 0
vn 0 1 0
vn 0 1 0
vn 0 1 0
vn 0 1 0
vn 0 1 0
vn 0 1 0
f 662/662/662 659/659/659 655/655/655
f 662/662/662 656/656/656 661/661/661
f 660/660/660 659/659/659 662/662/662
f 662/662/662 661/661/661 660/660/660
f 660/660/660 661/661/661 658/658/658
f 657/657/657 659/659/659 660/660/660
f 664/664/664 668/668/668 667/667/667 663/663/663
f 665/665/665 667/667/667 668/668/668 666/666/666
f 670/670/670 674/674/674 673/673/673 669/669/669
f 671/671/671 673/673/673 674/674/674 672/672/672
f 676/676/676 680/680/680 679/679/679 675/675/675
f 677/677/677 679/679/679 680/680/680 678/678/678
f 682/682/682 686/686/686 685/685/685 681/681/681
f 683/683/683 685/685/685 686/686/686 684/684/684
f 694/694/694 687/687/687 691/691/691
f 694/694/694 693/693/693 688/688/688
f 692/692/692 694/694/694 691/691/691
f 694/694/694 692/692/692 693/693/693
f 692/692/692 690/690/690 693/693/693
f 689/689/689 692/692/692 691/691/691
usemtl Default
v 37 0 5
v 37 0 0
v 44 0 5
v 44 0 0
v 40.5 0 5
v 44 0 2.5
v 40.5 0 0
v 37 0 2.5
v 44 0 5
v 44 3.5 5
v 37 0 5
v 37 3.5 5
v 40.5 0 5
v 40.5 3.5 5
v 44 0 0
v 44 3.5 0
v 44 0 5
v 44 3.5 5
v 44 0 2.5
v 44 3.5 2.5
v 37 0 0
v 37 3.5 0
v 44 0 0
v 44 3.5 0
v 40.5 0 0
v 40.5 3.5 0
v 37 0 5
v 37 3.5 5
v 37 0 0
v 37 3.5 0
v 37 0 2.5
v 37 3.5 2.5
v 37 3.5 5
v 37 3.5 0
v 44 3.5 5
v 44 3.5 0
v 40.5 3.5 5
v 44 3.5 2.5
v 40.5 3.5 0
v 37 3.5 2.5
vt 0.66520184278488159 0.46666666865348816
vt 0.3333333432674408 0.46666666865348816
vt 0.66520184278488159 0.93186849355697632
vt 0.3333333432674408 0.93186849355697632
vt 0.66520184278488159 0.69926756620407104
vt 0.499267578125 0.93186849355697632
vt 0.3333333432674408 0.69926756620407104
vt 0.499267578125 0.46666666865348816
vt 0 0.23333333432674408
vt 0 0.46520182490348816
vt 0.46666666865348816 0.23333333432674408
vt 0.46666666865348816 0.46520182490348816
vt 0.23333333432674408 0.23333333432674408
vt 0.23333333432674408 0.46520182490348816
vt 0.66666668653488159 0.46666666865348816
vt 0.66666668653488159 0.69999998807907104
vt 0.99853515625 0.46666666865348816
vt 0.99853515625 0.69999998807907104
vt 0.83260089159011841 0.46666666865348816
vt 0.83260089159011841 0.69999998807907104
vt 0 0
vt 0 0.23186849057674408
vt 0.46666666865348816 0
vt 0.46666666865348816 0.23186849057674408
vt 0.23333333432674408 0
vt 0.23333333432674408 0.23186849057674408
vt 0.66666668653488159 0
vt 0.66666668653488159 0.23333333432674408
vt 0.99853515625 0
vt 0.99853515625 0.23333333432674408
vt 0.83260089159011841 0
vt 0.83260089159011841 0.23333333432674408
vt 0.3318684995174408 0.46666666865348816
vt 0 0.46666666865348816
vt 0.3318684995174408 0.93186849355697632
vt 0 0.93186849355697632
vt 0.3318684995174408 0.69926756620407104
vt 0.1659342497587204 0.93186849355697632
vt 0 0.69926756620407104
vt 0.1659342497587204 0.46666666865348816
vn 0 -1 0
vn 0 -1 0
vn 0 -1 0
vn 0 -1 0
vn 0 -1 0
vn 0 -1 0
vn 0 -1 0
vn 0 -1 0
vn 0 0 1
vn 0 0 1
vn 0 0 1
vn 0 0 1
vn 0 0 1
vn 0 0 1
vn 1 0 0
vn 1 0 0
vn 1 0 0
vn 1 0 0
vn 1 0 0
vn 1 0 0
vn 0 0 -1
vn 0 0 -1
vn 0 0 -1
vn 0 0 -1
vn 0 0 -1
vn 0 0 -1
vn -1 0 0
vn -1 0 0
vn -1 0 0
vn -1 0 0
vn -1 0 0
vn -1 0 0
vn 0 1 0
vn 0 1 0
vn 0 1 0
vn 0 1 0
vn 0 1 0
vn 0 1 0
vn 0 1 0
vn 0 1 0
f 702/702/702 699/699/699 695/695/695
f 702/702/702 696/696/696 701/701/701
f 700/700/700 699/699/699 702/702/702
f 702/702/702 701/701/701 700/700/700
f 700/700/700 701/701/701 698/698/698
f 697/697/697 699/699/699 700/700/700
f 704/704/704 708/708/708 707/707/707 703/703/703
f 705/705/705 707/707/707 708/708/708 706/706/706
f 710/710/710 714/714/714 713/713/713 709/709/709
f 711/711/711 713/713/713 714/714/714 712/712/712
f 716/716/716 720/720/720 719/719/719 715/715/715
f 717/717/717 719/719/719 720/720/720 718/718/718
f 722/722/722 726/726/726 725/725/725 721/721/721
f 723/723/723 725/725/725 726/726/726 724/724/724
f 734/734/734 727/727/727 731/731/731
f 734/734/734 733/733/733 728/728/728
f 732/732/732 734/734/734 731/731/731
f 734/734/734 732/732/732 733/733/733
f 732/732/732 730/730/730 733/733/733
f 729/729/729 732/732/732 731/731/731
usemtl Default
v 44 0 5
v 44 0 0
v 51 0 5
v 51 0 0
v 47.5 0 5
v 51 0 2.5
v 47.5 0 0
v 44 0 2.5
v 51 0 5
v 51 3.5 5
v 44 0 5
v 44 3.5 5
v 47.5 0 5
v 47.5 3.5 5
v 51 0 0
v 51 3.5 0
v 51 0 5
v 51 3.5 5
v 51 0 2.5
v 51 3.5 2.5
v 44 0 0
v 44 3.5 0
v 51 0 0
v 51 3.5 0
v 47.5 0 0
v 47.5 3.5 0
v 44 0 5
v 44 3.5 5
v 44 0 0
v 44 3.5 0
v 44 0 2.5
v 44 3.5 2.5
v 44 3.5 5
v 44 3.5 0
v 51 3.5 5
v 51 3.5 0
v 47.5 3.5 5
v 51 3.5 2.5
v 47.5 3.5 0
v 44 3.5 2.5
vt 0.66520184278488159 0.46666666865348816
vt 0.3333333432674408 0.46666666865348816
vt 0.66520184278488159 0.93186849355697632
vt 0.3333333432674408 0.93186849355697632
vt 0.66520184278488159 0.69926756620407104
vt 0.499267578125 0.93186849355697632
vt 0.3333333432674408 0.69926756620407104
vt 0.499267578125 0.46666666865348816
vt 0 0.23333333432674408
vt 0 0.46520182490348816
vt 0.46666666865348816 0.23333333432674408
vt 0.46666666865348816 0.46520182490348816
vt 0.23333333432674408 0.23333333432674408
vt 0.23333333432674408 0.46520182490348816
vt 0.66666668653488159 0.46666666865348816
vt 0.66666668653488159 0.69999998807907104
vt 0.99853515625 0.46666666865348816
vt 0.99853515625 0.69999998807907104
vt 0.83260089159011841 0.46666666865348816
vt 0.83260089159011841 0.69999998807907104
vt 0 0
vt 0 0.23186849057674408
vt 0.46666666865348816 0
vt 0.46666666865348816 0.23186849057674408
vt 0.23333333432674408 0
vt 0.23333333432674408 0.23186849057674408
vt 0.66666668653488159 0
vt 0.66666668653488159 0.23333333432674408
vt 0.99853515625 0
vt 0.99853515625 0.23333333432674408
vt 0.83260089159011841 0
vt 0.83260089159011841 0.23333333432674408
vt 0.3318684995174408 0.46666666865348816
vt 0 0.46666666865348816
vt 0.3318684995174408 0.93186849355697632
vt 0 0.93186849355697632
vt 0.3318684995174408 0.69926756620407104
vt 0.1659342497587204 0.93186849355697632
vt 0 0.69926756620407104
vt 0.1659342497587204 0.46666666865348816
vn 0 -1 0
vn 0 -1 0
vn 0 -1 0
vn 0 -1 0
vn 0 -1 0
vn 0 -1 0
vn 0 -1 0
vn 0 -1 0
vn 0 0 1
vn 0 0 1
vn 0 0 1
vn 0 0 1
vn 0 0 1
vn 0 0 1
vn 1 0 0
vn 1 0 0
vn 1 0 0
vn 1 0 0
vn 1 0 0
vn 1 0 0
vn 0 0 -1
vn 0 0 -1
vn 0 0 -1
vn 0 0 -1
vn 0 0 -1
vn 0 0 -1
vn -1 0 0
vn -1 0 0
vn -1 0 0
vn -1 0 0
vn -1 0 0
vn -1 0 0
vn 0 1 0
vn 0 1 0
vn 0 1 0
vn 0 1 0
vn 0 1 0
vn 0 1 0
vn 0 1 0
vn 0 1 0
f 742/742/742 739/739/739 735/735/735
f 742/742/742 736/736/736 741/741/741
f 740/740/740 739/739/739 742/742/742
f 742/742/742 741/741/741 740/740/740
f 740/740/740 741/741/741 738/738/738
f 737/737/737 739/739/739 740/740/740
f 744/744/744 748/748/748 747/747/747 743/743/743
f 745/745/745 747/747/747 748/748/748 746/746/746
f 750/750/750 754/754/754 753/753/753 749/749/749
f 751/751/751 753/753/753 754/754/754 752/752/752
f 756/756/756 760/760/760 759/759/759 755/755/755
f 757/757/757 759/759/759 760/760/760 758/758/758
f 762/762/762 766/766/766 765/765/765 761/761/761
f 763/763/763 765/765/765 766/766/766 764/764/764
f 774/774/774 767/767/767 771/771/771
f 774/774/774 773/773/773 768/768/768
f 772/772/772 774/774/774 771/771/771
f 774/774/774 772/772/772 773/773/773
f 772/772/772 770/770/770 773/773/773
f 769/769/769 772/772/772 771/771/771
usemtl Default
v 51 0 5
v 51 0 0
v 58 0 5
v 58 0 0
v 54.5 0 5
v 58 0 2.5
v 54.5 0 0
v 51 0 2.5
v 58 0 5
v 58 3.5 5
v 51 0 5
v 51 3.5 5
v 54.5 0 5
v 54.5 3.5 5
v 58 0 0
v 58 3.5 0
v 58 0 5
v 58 3.5 5
v 58 0 2.5
v 58 3.5 2.5
v 51 0 0
v 51 3.5 0
v 58 0 0
v 58 3.5 0
v 54.5 0 0
v 54.5 3.5 0
v 51 0 5
v 51 3.5 5
v 51 0 0
v 51 3.5 0
v 51 0 2.5
v 51 3.5 2.5
v 51 3.5 5
v 51 3.5 0
v 58 3.5 5
v 58 3.5 0
v 54.5 3.5 5
v 58 3.5 2.5
v 54.5 3.5 0
v 51 3.5 2.5
vt 0.66520184278488159 0.46666666865348816
vt 0.3333333432674408 0.46666666865348816
vt 0.66520184278488159 0.93186849355697632
vt 0.3333333432674408 0.93186849355697632
vt 0.66520184278488159 0.69926756620407104
vt 0.499267578125 0.93186849355697632
vt 0.3333333432674408 0.69926756620407104
vt 0.499267578125 0.46666666865348816
vt 0 0.23333333432674408
vt 0 0.46520182490348816
vt 0.46666666865348816 0.23333333432674408
vt 0.46666666865348816 0.46520182490348816
vt 0.23333333432674408 0.23333333432674408
vt 0.23333333432674408 0.46520182490348816
vt 0.66666668653488159 0.46666666865348816
vt 0.66666668653488159 0.69999998807907104
vt 0.99853515625 0.46666666865348816
vt 0.99853515625 0.69999998807907104
vt 0.83260089159011841 0.46666666865348816
vt 0.83260089159011841 0.69999998807907104
vt 0 0
vt 0 0.23186849057674408
vt 0.46666666865348816 0
vt 0.46666666865348816 0.23186849057674408
vt 0.23333333432674408 0
vt 0.23333333432674408 0.23186849057674408
vt 0.66666668653488159 0
vt 0.66666668653488159 0.23333333432674408
vt 0.99853515625 0
vt 0.99853515625 0.23333333432674408
vt 0.83260089159011841 0
vt 0.83260089159011841 0.23333333432674408
vt 0.3318684995174408 0.46666666865348816
vt 0 0.46666666865348816
vt 0.3318684995174408 0.93186849355697632
vt 0 0.93186849355697632
vt 0.3318684995174408 0.69926756620407104
vt 0.1659342497587204 0.93186849355697632
vt 0 0.69926756620407104
vt 0.1659342497587204 0.46666666865348816
vn 0 -1 0
vn 0 -1 0
vn 0 -1 0
vn 0 -1 0
vn 0 -1 0
vn 0 -1 0
vn 0 -1 0
vn 0 -1 0
vn 0 0 1
vn 0 0 1
vn 0 0 1
vn 0 0 1
vn 0 0 1
vn 0 0 1
vn 1 0 0
vn 1 0 0
vn 1 0 0
vn 1 0 0
vn 1 0 0
vn 1 0 0
vn 0 0 -1
vn 0 0 -1
vn 0 0 -1
vn 0 0 -1
vn 0 0 -1
vn 0 0 -1
vn -1 0 0
vn -1 0 0
vn -1 0 0
vn -1 0 0
vn -1 0 0
vn -1 0 0
vn 0 1 0
vn 0 1 0
vn 0 1 0
vn 0 1 0
vn 0 1 0
vn 0 1 0
vn 0 1 0
vn 0 1 0
f 782/782/782 779/779/779 775/775/775
f 782/782/782 776/776/776 781/781/781
f 780/780/780 779/779/779 782/782/782
f 782/782/782 781/781/781 780/780/780
f 780/780/780 781/781/781 778/778/778
f 777/777/777 779/779/779 780/780/780
f 784/784/784 788/788/788 787/787/787 783/783/783
f 785/785/785 787/787/787 788/788/788 786/786/786
f 790/790/790 794/794/794 793/793/793 789/789/789
f 791/791/791 793/793/793 794/794/794 792/792/792
f 796/796/796 800/800/800 799/799/799 795/795/795
f 797/797/797 799/799/799 800/800/800 798/798/798
f 802/802/802 806/806/806 805/805/805 801/801/801
f 803/803/803 805/805/805 806/806/806 804/804/804
f 814/814/814 807/807/807 811/811/811
f 814/814/814 813/813/813 808/808/808
f 812/812/812 814/814/814 811/811/811
f 814/814/814 812/812/812 813/813/813
f 812/812/812 810/810/810 813/813/813
f 809/809/809 812/812/812 811/811/811
usemtl Default
v 58 0 5
v 58 0 0
v 65 0 5
v 65 0 0
v 61.5 0 5
v 65 0 2.5
v 61.5 0 0
v 58 0 2.5
v 65 0 5
v 65 3.5 5
v 58 0 5
v 58 3.5 5
v 61.5 0 5
v 61.5 3.5 5
v 65 0 0
v 65 3.5 0
v 65 0 5
v 65 3.5 5
v 65 0 2.5
v 65 3.5 2.5
v 58 0 0
v 58 3.5 0
v 65 0 0
v 65 3.5 0
v 61.5 0 0
v 61.5 3.5 0
v 58 0 5
v 58 3.5 5
v 58 0 0
v 58 3.5 0
v 58 0 2.5
v 58 3.5 2.5
v 58 3.5 5
v 58 3.5 0
v 65 3.5 5
v 65 3.5 0
v 61.5 3.5 5
v 65 3.5 2.5
v 61.5 3.5 0
v 58 3.5 2.5
vt 0.66520184278488159 0.46666666865348816
vt 0.3333333432674408 0.46666666865348816
vt 0.66520184278488159 0.93186849355697632
vt 0.3333333432674408 0.93186849355697632
vt 0.66520184278488159 0.69926756620407104
vt 0.499267578125 0.93186849355697632
vt 0.3333333432674408 0.69926756620407104
vt 0.499267578125 0.46666666865348816
vt 0 0.23333333432674408
vt 0 0.46520182490348816
vt 0.46666666865348816 0.23333333432674408
vt 0.46666666865348816 0.46520182490348816
vt 0.23333333432674408 0.23333333432674408
vt 0.23333333432674408 0.46520182490348816
vt 0.66666668653488159 0.46666666865348816
vt 0.66666668653488159 0.69999998807907104
vt 0.99853515625 0.46666666865348816
vt 0.99853515625 0.69999998807907104
vt 0.83260089159011841 0.46666666865348816
vt 0.83260089159011841 0.69999998807907104
vt 0 0
vt 0 0.23186849057674408
vt 0.46666666865348816 0
vt 0.46666666865348816 0.23186849057674408
vt 0.23333333432674408 0
vt 0.23333333432674408 0.23186849057674408
vt 0.66666668653488159 0
vt 0.66666668653488159 0.23333333432674408
vt 0.99853515625 0
vt 0.99853515625 0.23333333432674408
vt 0.83260089159011841 0
vt 0.83260089159011841 0.23333333432674408
vt 0.3318684995174408 0.46666666865348816
vt 0 0.46666666865348816
vt 0.3318684995174408 0.93186849355697632
vt 0 0.93186849355697632
vt 0.3318684995174408 0.69926756620407104
vt 0.1659342497587204 0.93186849355697632
vt 0 0.69926756620407104
vt 0.1659342497587204 0.46666666865348816
vn 0 -1 0
vn 0 -1 0
vn 0 -1 0
vn 0 -1 0
vn 0 -1 0
vn 0 -1 0
vn 0 -1 0
vn 0 -1 0
vn 0 0 1
vn 0 0 1
vn 0 0 1
vn 0 0 1
vn 0 0 1
vn 0 0 1
vn 1 0 0
vn 1 0 0
vn 1 0 0
vn 1 0 0
vn 1 0 0
vn 1 0 0
vn 0 0 -1
vn 0 0 -1
vn 0 0 -1
vn 0 0 -1
vn 0 0 -1
vn 0 0 -1
vn -1 0 0
vn -1 0 0
vn -1 0 0
vn -1 0 0
vn -1 0 0
vn -1 0 0
vn 0 1 0
vn 0 1 0
vn 0 1 0
vn 0 1 0
vn 0 1 0
vn 0 1 0
vn 0 1 0
vn 0 1 0
f 822/822/822 819/819/819 815/815/815
f 822/822/822 816/816/816 821/821/821
f 820/820/820 819/819/819 822/822/822
f 822/822/822 821/821/821 820/820/820
f 820/820/820 821/821/821 818/818/818
f 817/817/817 819/819/819 820/820/820
f 824/824/824 828/828/828 827/827/827 823/823/823
f 825/825/825 827/827/827 828/828/828 826/826/826
f 830/830/830 834/834/834 833/833/833 829/829/829
f 831/831/831 833/833/833 834/834/834 832/832/832
f 836/836/836 840/840/840 839/839/839 835/835/835
f 837/837/837 839/839/839 840/840/840 838/838/838
f 842/842/842 846/846/846 845/845/845 841/841/841
f 843/843/843 845/845/845 846/846/846 844/844/844
f 854/854/854 847/847/847 851/851/851
f 854/854/854 853/853/853 848/848/848
f 852/852/852 854/854/854 851/851/851
f 854/854/854 852/852/852 853/853/853
f 852/852/852 850/850/850 853/853/853
f 849/849/849 852/852/852 851/851/851
usemtl Default
v 59.049999237060547 0 -2
v 59.049999237060547 2 -2
v 59.950000762939453 0 -2
v 59.950000762939453 2 -2
vt 0 0
vt 0 1
vt 1 0
vt 1 1
vn 0 0 1
vn 0 0 1
vn 0 0 1
vn 0 0 1
f 858/858/858 856/856/856 855/855/855 857/857/857
usemtl Default
v 30.200000762939453 2.0999999046325684 -2
v 30.200000762939453 0 -2
v 31.399999618530273 2.0999999046325684 -2
v 31.399999618530273 0 -2
vt 0 0
vt 0 1
vt 1 0
vt 1 1
vn 0 0 -1
vn 0 0 -1
vn 0 0 -1
vn 0 0 -1
f 862/862/862 860/860/860 859/859/859 861/861/861
usemtl Default
v 58.200000762939453 2.0999999046325684 0
v 58.200000762939453 0 0
v 59.400001525878906 2.0999999046325684 0
v 59.400001525878906 0 0
vt 0 0
vt 0 1
vt 1 0
vt 1 1
vn 0 0 -1
vn 0 0 -1
vn 0 0 -1
vn 0 0 -1
f 866/866/866 864/864/864 863/863/863 865/865/865
usemtl Default
v 51.200000762939453 2.0999999046325684 0
v 51.200000762939453 0 0
v 52.400001525878906 2.0999999046325684 0
v 52.400001525878906 0 0
vt 0 0
vt 0 1
vt 1 0
vt 1 1
vn 0 0 -1
vn 0 0 -1
vn 0 0 -1
vn 0 0 -1
f 870/870/870 868/868/868 867/867/867 869/869/869
usemtl Default
v 44.200000762939453 2.0999999046325684 0
v 44.200000762939453 0 0
v 45.400001525878906 2.0999999046325684 0
v 45.400001525878906 0 0
vt 0 0
vt 0 1
vt 1 0
vt 1 1
vn 0 0 -1
vn 0 0 -1
vn 0 0 -1
vn 0 0 -1
f 874/874/874 872/872/872 871/871/871 873/873/873
usemtl Default
v 37.200000762939453 2.0999999046325684 0
v 37.200000762939453 0 0
v 38.400001525878906 2.0999999046325684 0
v 38.400001525878906 0 0
vt 0 0
vt 0 1
vt 1 0
vt 1 1
vn 0 0 -1
vn 0 0 -1
vn 0 0 -1
vn 0 0 -1
f 878/878/878 876/876/876 875/875/875 877/877/877
usemtl Default
v 30.200000762939453 2.0999999046325684 0
v 30.200000762939453 0 0
v 31.399999618530273 2.0999999046325684 0
v 31.399999618530273 0 0
vt 0 0
vt 0 1
vt 1 0
vt 1 1
vn 0 0 -1
vn 0 0 -1
vn 0 0 -1
vn 0 0 -1
f 882/882/882 880/880/880 879/879/879 881/881/881
usemtl Default
v 47.549999237060547 0 -2
v 47.549999237060547 2 -2
v 48.450000762939453 0 -2
v 48.450000762939453 2 -2
vt 0 0
vt 0 1
vt 1 0
vt 1 1
vn 0 0 1
vn 0 0 1
vn 0 0 1
vn 0 0 1
f 886/886/886 884/884/884 883/883/883 885/885/885
usemtl Default
v 9.5500001907348633 0 -2
v 9.5500001907348633 2 -2
v 10.449999809265137 0 -2
v 10.449999809265137 2 -2
vt 0 0
vt 0 1
vt 1 0
vt 1 1
vn 0 0 1
vn 0 0 1
vn 0 0 1
vn 0 0 1
f 890/890/890 888/888/888 887/887/887 889/889/889
usemtl Default
v 4 0 -1
v 4 0 -1.6000000238418579
v 4 1.0499999523162842 -1.6000000238418579
v 4 2.0999999046325684 -1.6000000238418579
v 4 2.0999999046325684 -0.40000000596046448
v 4 1.0499999523162842 -0.40000000596046448
v 4 0 -0.40000000596046448
vt 0.5 0.0098039219155907631
vt 0.99019604921340942 0.0098039219155907631
vt 0.99019604921340942 0.5
vt 0.99019604921340942 0.99019604921340942
vt 0.0098039219155907631 0.99019604921340942
vt 0.0098039219155907631 0.5
vt 0.0098039219155907631 0.0098039219155907631
vn 1 0 0
vn 1 0 0
vn 1 0 0
vn 1 0 0
vn 1 0 0
vn 1 0 0
vn 1 0 0
f 891/891/891 896/896/896 897/897/897
f 895/895/895 896/896/896 893/893/893 894/894/894
f 893/893/893 891/891/891 892/892/892
f 891/891/891 893/893/893 896/896/896
usemtl Default
v 61 0 -1
v 61 0 -1.6000000238418579
v 61 1.0499999523162842 -1.6000000238418579
v 61 2.0999999046325684 -1.6000000238418579
v 61 2.0999999046325684 -0.40000000596046448
v 61 1.0499999523162842 -0.40000000596046448
v 61 0 -0.40000000596046448
vt 0.5 0.0098039219155907631
vt 0.99019604921340942 0.0098039219155907631
vt 0.99019604921340942 0.5
vt 0.99019604921340942 0.99019604921340942
vt 0.0098039219155907631 0.99019604921340942
vt 0.0098039219155907631 0.5
vt 0.0098039219155907631 0.0098039219155907631
vn 1 0 0
vn 1 0 0
vn 1 0 0
vn 1 0 0
vn 1 0 0
vn 1 0 0
vn 1 0 0
f 898/898/898 903/903/903 904/904/904
f 902/902/902 903/903/903 900/900/900 901/901/901
f 900/900/900 898/898/898 899/899/899
f 898/898/898 900/900/900 903/903/903
usemtl Default
v 18.899999618530273 0 -2
v 18.899999618530273 2 -2
v 19.799999237060547 0 -2
v 19.799999237060547 2 -2
vt 0 0
vt 0 1
vt 1 0
vt 1 1
vn 0 0 1
vn 0 0 1
vn 0 0 1
vn 0 0 1
f 908/908/908 906/906/906 905/905/905 907/907/907
usemtl Default
v 10.899999618530273 0 0
v 10.899999618530273 2 0
v 11.800000190734863 0 0
v 11.800000190734863 2 0
vt 0 0
vt 0 1
vt 1 0
vt 1 1
vn 0 0 1
vn 0 0 1
vn 0 0 1
vn 0 0 1
f 912/912/912 910/910/910 909/909/909 911/911/911
usemtl Default
v 6.9000000953674316 0 -2
v 6.9000000953674316 2 -2
v 7.8000001907348633 0 -2
v 7.8000001907348633 2 -2
vt 0 0
vt 0 1
vt 1 0
vt 1 1
vn 0 0 1
vn 0 0 1
vn 0 0 1
vn 0 0 1
f 916/916/916 914/914/914 913/913/913 915/915/915
